<?xml version="1.0" encoding="UTF-8" standalone="no"?>
<svg width="360px" height="247px" viewBox="0 0 360 247" version="1.1" xmlns="http://www.w3.org/2000/svg" xmlns:xlink="http://www.w3.org/1999/xlink" xmlns:sketch="http://www.bohemiancoding.com/sketch/ns">
    <!-- Generator: Sketch 3.2.2 (9983) - http://www.bohemiancoding.com/sketch -->
    <title>春文字</title>
    <desc>Created with Sketch.</desc>
    <defs></defs>
    <g id="Page-1" stroke="none" stroke-width="1" fill="none" fill-rule="evenodd" sketch:type="MSPage">
        <g id="春文字" sketch:type="MSArtboardGroup" fill="#FFFFFF">
            <g id="Imported-Layers" sketch:type="MSLayerGroup">
                <path d="M105.084,209.156 C105.626,209.284 106.433,209.347 107.502,209.347 L109.873,209.347 C109.969,208.709 110.025,208.118 110.041,207.575 C110.328,207.656 110.712,207.759 111.19,207.886 C111.541,207.982 111.718,208.094 111.718,208.222 C111.718,208.334 111.55,208.414 111.215,208.461 C110.991,208.494 110.88,208.541 110.88,208.605 C110.847,208.86 110.815,209.108 110.783,209.347 L113.131,209.347 C113.289,209.156 113.441,208.949 113.586,208.725 C113.744,208.517 113.873,208.414 113.969,208.414 C114.08,208.414 114.328,208.59 114.711,208.94 C115.158,209.323 115.382,209.555 115.382,209.635 C115.382,209.89 115.254,210.018 114.998,210.018 L110.712,210.018 C110.648,210.497 110.568,210.96 110.472,211.407 L112.651,211.407 C112.954,211.136 113.106,210.992 113.106,210.976 C113.218,210.896 113.321,210.856 113.418,210.856 C113.529,210.856 113.784,211.04 114.184,211.407 C114.471,211.694 114.615,211.886 114.615,211.982 C114.615,212.046 114.496,212.158 114.256,212.317 C114.128,212.397 114.064,212.533 114.064,212.724 L114.064,220.291 L114.447,220.291 C114.607,220.116 114.759,219.932 114.902,219.741 C115.062,219.549 115.19,219.453 115.286,219.453 C115.397,219.453 115.621,219.613 115.956,219.932 C116.372,220.3 116.579,220.515 116.579,220.579 C116.579,220.834 116.459,220.962 116.22,220.962 L106.761,220.962 C105.771,220.962 105.084,221.018 104.701,221.129 L104.341,220.1 C104.853,220.228 105.594,220.291 106.569,220.291 L106.569,212.341 C106.569,211.798 106.545,211.303 106.496,210.856 C106.864,210.984 107.231,211.167 107.599,211.407 L109.538,211.407 C109.634,210.912 109.713,210.449 109.777,210.018 L107.502,210.018 C106.512,210.018 105.834,210.074 105.467,210.186 L105.084,209.156 L105.084,209.156 Z M108.915,222.351 C107.814,223.133 106.345,223.915 104.509,224.698 L104.438,224.41 C104.996,224.187 105.643,223.803 106.377,223.261 C107.191,222.75 107.91,222.103 108.532,221.321 L109.587,221.968 C109.825,222.096 109.945,222.192 109.945,222.255 C109.93,222.383 109.833,222.447 109.658,222.447 L108.915,222.351 L108.915,222.351 Z M106.952,204.103 C107.319,204.231 107.774,204.359 108.317,204.486 C108.78,204.566 109.012,204.662 109.012,204.773 C109.012,204.901 108.883,205.021 108.629,205.133 C108.325,205.18 108.174,205.276 108.174,205.42 L108.174,206.833 L114.902,206.833 L114.902,206.641 C114.902,205.316 114.839,204.286 114.711,203.552 C115.334,203.68 115.837,203.791 116.22,203.887 C116.587,203.935 116.77,204.039 116.77,204.199 C116.77,204.31 116.595,204.43 116.244,204.558 C115.972,204.622 115.837,204.758 115.837,204.965 L115.837,206.833 L122.662,206.833 L122.662,205.803 C122.662,205.26 122.597,204.694 122.469,204.103 C122.837,204.231 123.3,204.359 123.859,204.486 C124.305,204.566 124.53,204.662 124.53,204.773 C124.53,204.901 124.402,205.021 124.147,205.133 C123.843,205.18 123.691,205.276 123.691,205.42 L123.691,207.767 C123.691,207.879 123.587,207.982 123.38,208.078 C123.092,208.174 122.917,208.222 122.854,208.222 C122.662,208.222 122.566,208.166 122.566,208.054 L122.614,207.48 L108.174,207.48 L108.174,207.863 C108.174,207.975 108.061,208.078 107.838,208.174 C107.567,208.27 107.399,208.318 107.335,208.318 C107.144,208.318 107.047,208.254 107.047,208.126 L107.144,207.096 L107.144,205.803 C107.144,205.26 107.079,204.694 106.952,204.103 L106.952,204.103 Z M107.502,213.562 L113.131,213.562 L113.131,212.054 L107.502,212.054 L107.502,213.562 Z M107.502,215.813 L113.131,215.813 L113.131,214.208 L107.502,214.208 L107.502,215.813 Z M107.502,218.041 L113.131,218.041 L113.131,216.46 L107.502,216.46 L107.502,218.041 Z M107.502,220.291 L113.131,220.291 L113.131,218.71 L107.502,218.71 L107.502,220.291 Z M111.263,221.513 C112.588,221.928 113.449,222.311 113.849,222.662 C114.12,222.902 114.256,223.141 114.256,223.381 C114.24,223.875 114.08,224.123 113.777,224.123 C113.649,224.123 113.466,223.955 113.226,223.62 C112.875,223.061 112.156,222.455 111.071,221.8 L111.263,221.513 L111.263,221.513 Z M119.668,222.447 C118.358,223.229 116.618,224.011 114.447,224.794 L114.352,224.506 C115.022,224.267 115.78,223.875 116.627,223.333 C117.6,222.79 118.463,222.119 119.213,221.321 L120.315,222.04 C120.569,222.168 120.698,222.271 120.698,222.351 C120.681,222.415 120.594,222.447 120.434,222.447 L119.668,222.447 L119.668,222.447 Z M115.645,208.797 C116.187,208.925 117.002,208.988 118.087,208.988 L123.691,208.988 C123.883,208.781 124.05,208.573 124.194,208.365 C124.37,208.158 124.513,208.054 124.625,208.054 C124.753,208.054 125,208.222 125.367,208.557 C125.815,208.94 126.038,209.172 126.038,209.252 C126.038,209.507 125.878,209.635 125.559,209.635 L121.201,209.635 C120.881,210.417 120.491,211.136 120.028,211.79 L123.427,211.79 C123.444,211.79 123.54,211.686 123.715,211.479 C123.939,211.239 124.09,211.12 124.17,211.12 C124.282,211.12 124.53,211.303 124.912,211.67 C125.232,211.974 125.392,212.165 125.392,212.245 C125.392,212.325 125.255,212.453 124.985,212.628 C124.808,212.788 124.721,212.916 124.721,213.012 C124.721,215.933 124.753,218.703 124.817,221.321 C124.817,221.433 124.713,221.529 124.505,221.608 C124.362,221.657 124.282,221.689 124.266,221.704 C123.947,221.704 123.787,221.577 123.787,221.321 L123.787,220.962 L117.872,220.962 L117.896,221.417 C117.896,221.593 117.752,221.72 117.465,221.8 C117.273,221.864 117.137,221.896 117.058,221.896 C116.867,221.896 116.77,221.737 116.77,221.417 L116.867,220.195 L116.867,213.275 C116.867,212.493 116.802,211.775 116.674,211.12 C117.105,211.263 117.505,211.487 117.872,211.79 L119.572,211.79 C119.843,211.056 120.043,210.338 120.171,209.635 L118.087,209.635 C117.082,209.635 116.395,209.699 116.028,209.827 L115.645,208.797 L115.645,208.797 Z M117.8,214.496 L123.787,214.496 L123.787,212.436 L117.8,212.436 L117.8,214.496 Z M117.8,217.298 L123.787,217.298 L123.787,215.143 L117.8,215.143 L117.8,217.298 Z M117.8,220.291 L123.787,220.291 L123.787,217.968 L117.8,217.968 L117.8,220.291 Z M121.631,221.608 C123.835,222.503 125.104,223.125 125.44,223.476 C125.711,223.732 125.847,223.947 125.847,224.123 C125.847,224.57 125.695,224.794 125.392,224.794 C125.184,224.794 124.905,224.578 124.554,224.147 C123.994,223.524 122.965,222.774 121.464,221.896 L121.631,221.608 L121.631,221.608 Z" id="Fill-1" sketch:type="MSShapeGroup"></path>
                <path d="M116.322,112.524 L117.817,113.55 C117.655,113.82 117.457,113.964 116.953,113.964 L101.324,113.964 L101.198,113.496 L110.759,113.496 C111.804,110.597 112.829,106.744 113.37,103.809 L115.008,104.187 C114.954,104.422 114.738,104.511 114.288,104.511 C113.639,107.14 112.47,110.723 111.173,113.496 L115.566,113.496 L116.322,112.524 L116.322,112.524 Z M102.116,102.585 L101.99,102.117 L109.066,102.117 L109.066,98.156 L110.759,98.299 C110.722,98.588 110.524,98.714 109.877,98.803 L109.877,102.117 L114.828,102.117 L115.602,101.144 L117.079,102.171 C116.934,102.441 116.736,102.585 116.232,102.585 L102.116,102.585 L102.116,102.585 Z M104.817,104.061 C106.456,106.816 107.014,109.193 107.014,110.651 C107.014,111.659 106.744,112.236 106.42,112.236 C106.294,112.236 106.168,112.164 106.042,112.02 C106.059,111.803 106.059,111.588 106.059,111.353 C106.059,109.013 105.267,106.042 104.493,104.151 L104.817,104.061 L104.817,104.061 Z" id="Fill-2" sketch:type="MSShapeGroup"></path>
                <path d="M106.708,128.445 L109.911,128.697 C109.839,129.237 109.479,129.489 108.327,129.597 L108.327,151.482 C108.327,151.554 108.111,152.202 106.708,152.202 L106.708,148.315 L81.367,148.315 L81.367,152.13 C81.367,152.238 81.186,152.814 79.747,152.814 L79.747,128.589 L82.95,128.841 C82.879,129.381 82.518,129.633 81.367,129.741 L81.367,147.379 L93.137,147.379 L93.137,120.13 L96.521,120.418 C96.485,121.03 96.017,121.282 94.757,121.426 L94.757,147.379 L106.708,147.379 L106.708,128.445" id="Fill-3" sketch:type="MSShapeGroup"></path>
                <path d="M112.061,156.269 L114.221,158.285 C113.933,158.573 113.574,158.681 112.782,158.717 C111.234,165.592 108.139,172.827 101.515,177.578 L101.155,176.931 C106.627,172.287 109.686,165.304 110.982,158.393 L101.802,158.393 L101.515,157.457 L110.838,157.457 L112.061,156.269 L112.061,156.269 Z M118.685,152.633 C119.621,156.881 121.133,160.481 122.932,163.54 C126.172,160.84 129.808,157.061 131.679,154.433 L134.343,156.017 C134.163,156.269 133.983,156.377 133.623,156.377 C133.443,156.377 133.227,156.341 132.939,156.269 C130.815,158.537 127,161.848 123.364,164.224 C126.604,169.407 130.887,172.935 135.098,175.383 L134.991,175.743 C134.235,175.779 133.587,176.247 133.264,177.074 C126.927,172.647 121.457,166.312 118.685,155.117 L118.685,177.399 C118.685,179.018 118.217,180.206 115.338,180.53 C115.338,179.126 113.897,179.018 111.054,178.802 L111.054,178.226 L116.093,178.226 C116.85,178.226 117.065,177.974 117.065,177.326 L117.065,147.09 L120.413,147.378 C120.341,147.954 120.125,148.206 118.685,148.386 L118.685,152.633 L118.685,152.633 Z" id="Fill-4" sketch:type="MSShapeGroup"></path>
                <path d="M106.233,188.056 L107.12,188.914 C106.987,189.032 106.824,189.062 106.44,189.077 C104.665,191.68 101.573,194.536 98.185,196.459 C99.146,197.391 100.493,197.539 102.505,197.539 C103.851,197.539 107.047,197.539 108.423,197.494 L108.423,197.716 C108.111,197.746 107.949,197.938 107.92,198.219 L102.476,198.219 C99.739,198.219 98.289,197.79 97.179,195.542 C96.765,196.34 96.188,197.405 95.832,197.967 C95.907,198.056 95.936,198.16 95.936,198.249 C95.936,198.352 95.892,198.441 95.832,198.53 L94.738,197.598 C95.359,197.021 96.365,195.926 96.986,195.157 L97.297,194.003 L98.008,194.18 L97.327,195.246 C97.519,195.63 97.726,195.956 97.963,196.222 C100.907,194.373 103.91,191.547 105.582,188.943 L95.641,188.943 L95.522,188.559 L101.233,188.559 L101.233,185.141 L102.623,185.26 C102.609,185.511 102.43,185.6 101.899,185.674 L101.899,188.559 L105.67,188.559 L106.233,188.056" id="Fill-5" sketch:type="MSShapeGroup"></path>
                <path d="M91.344,42.224 C100.144,48.624 111.146,52.524 121.147,54.225 L121.346,55.325 C114.645,58.625 109.846,63.725 109.245,69.726 C105.145,67.825 101.445,65.225 97.944,62.325 L97.944,91.127 C97.845,91.927 90.344,94.827 85.144,94.827 L82.344,94.827 L82.344,87.727 L62.742,87.727 L62.742,91.427 C62.742,92.427 58.242,95.727 50.541,95.727 L47.742,95.727 L47.742,58.225 C41.641,62.825 34.341,66.726 25.641,69.926 L25.04,68.826 C36.441,61.725 44.141,52.424 49.342,42.224 L26.439,42.224 L25.939,40.624 L50.141,40.624 C51.941,36.824 53.441,33.023 54.643,29.023 L37.441,29.023 L36.941,27.423 L55.143,27.423 C56.242,23.723 57.142,19.922 57.742,16.122 L31.641,16.122 L31.141,14.522 L58.042,14.522 C58.842,9.722 59.442,4.822 59.842,0.021 L80.543,3.421 C80.144,4.921 79.243,5.622 76.344,5.722 C75.844,8.722 75.243,11.622 74.543,14.522 L95.844,14.522 L103.045,5.422 L116.145,14.722 C115.346,15.822 114.045,16.122 111.245,16.122 L74.143,16.122 C73.143,20.022 72.043,23.723 70.642,27.423 L90.943,27.423 L97.545,19.022 L109.745,27.623 C109.045,28.823 107.644,29.023 105.045,29.023 L78.943,29.023 C81.543,33.423 85.144,37.324 89.244,40.624 L99.145,40.624 L106.545,31.223 L120.246,40.824 C119.546,41.924 118.246,42.224 115.346,42.224 L91.344,42.224 L91.344,42.224 Z M86.544,49.124 C85.044,46.924 83.744,44.624 82.443,42.224 L62.942,42.224 C60.543,45.824 57.742,49.124 54.643,52.325 L64.143,55.725 L81.543,55.725 L86.544,49.124 L86.544,49.124 Z M62.742,70.326 L82.343,70.326 L82.343,57.325 L62.742,57.325 L62.742,70.326 Z M62.742,86.126 L82.343,86.126 L82.343,71.925 L62.742,71.925 L62.742,86.126 Z M81.644,40.624 C79.844,36.923 78.142,33.023 76.844,29.023 L69.943,29.023 C68.343,33.023 66.343,36.923 64.043,40.624 L81.644,40.624 L81.644,40.624 Z" id="Fill-6" sketch:type="MSShapeGroup"></path>
                <path d="M3.013,9.697 C3.013,9.715 2.85,9.968 2.202,9.968 L2.202,7.141 C1.807,7.501 1.374,7.824 0.942,8.077 L0.727,7.843 C1.681,7.068 2.689,5.736 3.247,4.655 L3.283,4.674 L3.283,4.62 L0.996,4.62 L0.888,4.151 L3.283,4.151 L3.283,2.909 L4.741,3.018 C4.724,3.287 4.615,3.377 4.093,3.449 L4.093,4.151 L6.307,4.151 L6.307,2.909 L7.784,3.018 C7.748,3.27 7.658,3.359 7.118,3.432 L7.118,4.151 L8.162,4.151 L8.774,3.377 L9.999,4.224 C9.837,4.476 9.603,4.62 9.135,4.62 L7.118,4.62 L7.118,4.998 C7.118,5.016 7.028,5.286 6.307,5.286 L6.307,4.62 L4.093,4.62 L4.093,4.943 L4.489,5.069 C4.417,5.196 4.327,5.286 4.129,5.286 C4.057,5.286 3.967,5.268 3.859,5.25 C3.733,5.448 3.589,5.646 3.427,5.844 L7.929,5.844 L8.378,5.322 L9.476,6.168 C9.369,6.313 9.152,6.366 8.811,6.42 C8.685,9.445 8.433,10.22 7.01,10.22 C7.01,9.77 6.74,9.679 6.307,9.607 L6.307,9.481 C6.271,9.499 6.038,9.679 5.533,9.679 L5.533,9.319 L3.013,9.319 L3.013,9.697 L3.013,9.697 Z M3.409,16.863 C3.427,16.972 3.427,17.079 3.427,17.188 C3.427,18.682 2.257,19.528 1.482,19.528 C1.122,19.528 0.979,19.348 0.979,19.15 C0.979,18.952 1.158,18.736 1.393,18.592 C2.059,18.376 2.923,17.71 3.085,16.846 L3.409,16.863 L3.409,16.863 Z M7.226,9.283 C7.424,9.283 7.515,9.283 7.622,9.193 C7.838,8.995 8,8.221 8.091,6.313 L3.031,6.313 C2.833,6.528 2.635,6.727 2.437,6.925 L3.102,7.248 L5.426,7.248 L5.767,6.816 L6.794,7.555 C6.722,7.627 6.542,7.734 6.344,7.771 L6.344,9.283 L7.226,9.283 L7.226,9.283 Z M3.013,8.851 L5.533,8.851 L5.533,7.717 L3.013,7.717 L3.013,8.851 Z M15.238,15.621 L15.725,15.063 L16.859,15.963 C16.733,16.089 16.517,16.179 16.157,16.215 C15.851,19.132 15.238,19.636 13.725,19.636 C13.725,19.168 13.456,19.024 12.376,18.934 L12.376,18.592 C12.808,18.61 13.798,18.645 14.122,18.645 C14.392,18.645 14.536,18.645 14.662,18.538 C14.932,18.321 15.184,17.493 15.364,16.089 L4.345,16.089 L4.345,16.377 C4.345,16.377 4.237,16.684 3.535,16.684 L3.535,10.094 L4.561,10.579 L13.366,10.579 L13.996,9.823 L15.257,10.651 C15.112,10.922 14.914,11.048 14.41,11.048 L9.566,11.048 L9.566,12.254 L13.024,12.254 L13.582,11.569 L14.734,12.326 C14.59,12.596 14.392,12.722 13.906,12.722 L9.566,12.722 L9.566,13.929 L13.024,13.929 L13.6,13.227 L14.771,14.001 C14.626,14.271 14.429,14.396 13.942,14.396 L9.566,14.396 L9.566,15.621 L15.238,15.621 L15.238,15.621 Z M4.345,12.254 L8.757,12.254 L8.757,11.048 L4.345,11.048 L4.345,12.254 Z M4.345,13.929 L8.757,13.929 L8.757,12.722 L4.345,12.722 L4.345,13.929 Z M4.345,15.621 L8.757,15.621 L8.757,14.396 L4.345,14.396 L4.345,15.621 Z M5.552,16.72 C6.326,17.403 6.596,18.052 6.596,18.52 C6.596,18.97 6.344,19.276 6.073,19.276 C5.947,19.276 5.821,19.204 5.714,19.06 C5.767,18.376 5.569,17.403 5.317,16.81 L5.552,16.72 L5.552,16.72 Z M8.181,16.647 C9.44,17.134 9.855,17.836 9.855,18.321 C9.855,18.645 9.639,18.897 9.404,18.897 C9.278,18.897 9.171,18.844 9.045,18.736 C8.973,18.088 8.505,17.26 8.018,16.81 L8.181,16.647 L8.181,16.647 Z M17.507,4.836 C17.363,5.124 17.182,5.231 16.715,5.231 L16.013,5.231 C15.526,6.366 14.86,7.303 13.96,8.059 C14.896,8.725 16.066,9.193 17.597,9.499 L17.543,9.697 C17.273,9.733 16.985,9.877 16.877,10.22 C15.4,9.787 14.302,9.211 13.42,8.473 C12.376,9.229 11.062,9.77 9.476,10.165 L9.369,9.823 C10.81,9.392 12.016,8.815 12.97,8.059 C12.321,7.393 11.8,6.618 11.367,5.7 C10.881,6.349 10.323,6.942 9.765,7.393 L9.495,7.194 C10.467,6.186 11.439,4.403 11.943,3.018 L13.312,3.341 C13.24,3.539 13.114,3.611 12.682,3.594 C12.502,3.972 12.268,4.367 12.016,4.764 L15.742,4.764 L16.337,4.008 L17.507,4.836 L17.507,4.836 Z M11.169,16.485 C12.79,16.593 13.33,17.241 13.33,17.691 C13.33,17.926 13.168,18.105 12.952,18.105 C12.861,18.105 12.772,18.088 12.682,18.034 C12.376,17.548 11.691,16.972 11.098,16.701 L11.169,16.485 L11.169,16.485 Z M11.709,5.231 L11.638,5.322 C12.105,6.24 12.682,7.015 13.437,7.663 C14.158,6.979 14.716,6.168 15.112,5.231 L11.709,5.231 L11.709,5.231 Z" id="Fill-7" sketch:type="MSShapeGroup"></path>
                <path d="M4.651,32.017 L4.651,30.559 L1.141,30.559 L1.015,30.091 L3.283,30.091 C3.265,30.072 3.229,30.055 3.211,30.019 C3.175,29.496 2.887,28.758 2.562,28.326 L2.707,28.236 L1.05,28.236 L0.924,27.768 L4.651,27.768 L4.651,26.472 L1.734,26.472 L1.608,26.003 L4.651,26.003 L4.651,24.617 L6.128,24.743 C6.109,24.977 5.947,25.067 5.462,25.139 L5.462,26.003 L7.028,26.003 L7.694,25.229 L8.99,26.075 C8.847,26.346 8.667,26.472 8.162,26.472 L5.462,26.472 L5.462,27.768 L7.694,27.768 L8.36,26.993 L9.657,27.84 C9.513,28.11 9.333,28.236 8.828,28.236 L6.992,28.236 L8.091,28.668 C8.018,28.813 7.893,28.866 7.676,28.866 C7.605,28.866 7.515,28.866 7.424,28.848 C7.172,29.244 6.794,29.694 6.397,30.091 L7.784,30.091 L8.396,29.389 L9.603,30.162 C9.459,30.433 9.278,30.559 8.793,30.559 L5.462,30.559 L5.462,32.017 L7.154,32.017 L7.748,31.297 L8.936,32.089 C8.793,32.359 8.612,32.485 8.126,32.485 L5.462,32.485 L5.462,34.231 C5.462,34.231 5.354,34.538 4.651,34.538 L4.651,32.485 L1.681,32.485 L1.555,32.017 L4.651,32.017 L4.651,32.017 Z M17.291,31.459 L17.021,33.277 C17.237,33.565 17.363,33.764 17.363,33.926 C17.363,34.088 17.201,34.214 16.985,34.214 C16.679,34.214 16.265,33.998 15.995,33.674 C15.005,32.449 14.807,30.396 14.752,27.281 L12.664,27.281 C12.592,28.236 12.447,29.172 12.124,30.072 C13.096,30.648 13.456,31.261 13.456,31.639 C13.456,31.854 13.33,31.999 13.114,31.999 C13.042,31.999 12.952,31.981 12.861,31.945 C12.645,31.585 12.25,31.207 11.8,30.829 C11.277,31.891 10.449,32.881 9.152,33.764 L10.305,33.854 C10.287,34.124 10.089,34.231 9.53,34.304 L9.53,35.294 L14.104,35.294 L14.555,34.718 L15.887,35.654 C15.761,35.798 15.436,35.942 15.095,36.015 L15.095,38.247 C15.095,38.283 14.807,38.553 14.284,38.553 L14.284,38.139 L9.53,38.139 L9.53,39.921 C11.043,39.903 12.664,39.886 14.32,39.85 C13.654,39.543 12.88,39.255 12.052,39.039 L12.124,38.733 C15.94,39.147 17.093,40.3 17.093,40.894 C17.093,41.109 16.949,41.254 16.715,41.254 C16.642,41.254 16.589,41.235 16.517,41.218 C16.211,40.93 15.725,40.569 15.095,40.245 C12.178,40.443 8.091,40.659 2.49,40.876 C2.383,41.073 2.202,41.2 2.022,41.235 L1.338,39.976 L2.814,39.976 C4.345,39.976 6.38,39.957 8.721,39.939 L8.721,38.139 L4.057,38.139 L4.057,38.625 C4.057,38.643 3.913,38.877 3.247,38.877 L3.247,34.844 L4.165,35.294 L8.721,35.294 L8.721,34.033 C8.486,34.178 8.234,34.321 7.982,34.448 L7.73,34.142 C9.585,33.061 10.611,31.783 11.169,30.36 C10.611,29.982 10.016,29.641 9.495,29.406 L9.566,29.154 C10.287,29.316 10.899,29.515 11.403,29.73 C11.638,28.939 11.764,28.128 11.817,27.281 L9.459,27.281 L9.315,26.813 L11.854,26.813 C11.89,26.111 11.907,25.391 11.907,24.653 L13.42,24.761 C13.402,24.977 13.294,25.103 12.772,25.157 C12.754,25.715 12.735,26.255 12.7,26.813 L14.608,26.813 L15.04,26.237 L16.283,27.227 C16.157,27.336 15.923,27.443 15.581,27.479 C15.526,30.055 15.707,31.999 16.354,32.863 C16.409,32.936 16.463,32.972 16.481,32.972 C16.589,32.972 17.021,31.603 17.093,31.405 L17.291,31.459 L17.291,31.459 Z M2.833,28.236 C3.715,28.704 4.003,29.244 4.003,29.641 C4.003,29.839 3.931,30 3.823,30.091 L5.894,30.091 C6.182,29.55 6.488,28.83 6.686,28.236 L2.833,28.236 L2.833,28.236 Z M4.057,37.671 L8.72,37.671 L8.72,35.762 L4.057,35.762 L4.057,37.671 Z M9.53,37.671 L14.284,37.671 L14.284,35.762 L9.53,35.762 L9.53,37.671 Z" id="Fill-8" sketch:type="MSShapeGroup"></path>
                <path d="M119.695,81.161 C119.832,81.161 119.934,81.195 119.934,81.433 C120.002,82.487 120.477,83.949 121.294,85.275 C122.279,86.838 123.945,87.586 125.577,87.586 C127.209,87.586 129.826,86.499 129.826,83.813 C129.826,80.991 129.282,80.175 124.863,78.509 C123.843,78.135 121.667,77.047 119.934,75.552 C118.744,74.498 118.233,72.696 118.233,70.724 C118.233,68.65 118.744,67.256 120.783,65.727 C122.314,64.571 123.605,64.095 125.679,64.095 C128.161,64.095 129.486,64.503 130.2,64.775 C130.54,64.911 130.778,64.843 130.982,64.605 L131.425,64.163 C131.561,64.027 131.73,63.959 131.935,63.959 C132.173,63.959 132.24,64.332 132.274,64.537 L132.818,70.35 C132.818,70.486 132.75,70.52 132.649,70.554 L131.9,70.792 C131.73,70.86 131.561,70.792 131.458,70.554 C131.085,69.568 130.507,68.242 129.351,67.019 C128.501,66.066 127.481,65.591 125.951,65.591 C123.401,65.591 122.348,67.8 122.348,68.684 C122.348,69.942 122.382,70.962 123.231,71.812 C124.115,72.73 126.053,73.546 127.719,74.022 C129.351,74.498 130.677,75.348 132.07,76.605 C133.396,77.795 133.94,79.292 133.94,81.671 C133.94,85.819 130.982,89.184 126.495,89.184 C123.435,89.184 121.837,88.674 120.409,87.722 C120.002,87.451 119.798,87.349 119.628,87.349 C119.424,87.349 119.288,87.586 119.084,87.926 C118.88,88.3 118.71,88.335 118.472,88.335 C118.098,88.335 117.962,88.165 117.996,87.79 L118.54,81.331 C118.573,81.093 118.676,81.093 118.811,81.093 L119.695,81.161" id="Fill-9" sketch:type="MSShapeGroup"></path>
                <path d="M138.565,79.597 C138.565,78.441 138.463,77.931 137.443,77.387 L136.661,76.979 C136.491,76.877 136.424,76.81 136.424,76.673 L136.424,76.231 C136.424,76.129 136.491,76.061 136.661,75.994 L141.081,74.26 C141.522,74.09 141.829,73.92 142.135,73.92 C142.339,73.92 142.44,74.158 142.543,74.634 L142.78,75.892 L142.917,75.892 C143.767,74.838 145.534,73.92 147.234,73.92 C149.07,73.92 150.328,74.43 151.45,75.654 C152.878,77.217 153.353,78.407 153.286,80.379 C153.319,85.546 149.853,89.15 145.534,89.15 C144.956,89.15 143.868,89.116 142.984,88.606 L143.018,93.808 C143.053,96.561 143.393,96.731 144.209,96.731 L145.059,96.731 C145.33,96.731 145.364,96.868 145.364,97.071 L145.364,97.717 C145.364,97.921 145.297,98.023 145.059,98.023 C144.889,98.023 143.732,97.921 140.707,97.921 C138.225,97.921 137.035,98.023 136.764,98.023 C136.525,98.023 136.457,97.921 136.457,97.684 L136.457,97.003 C136.457,96.833 136.525,96.731 136.865,96.731 L137.647,96.731 C138.225,96.731 138.463,96.392 138.531,95.848 C138.6,95.1 138.6,94.08 138.6,92.142 L138.565,79.597 L138.565,79.597 Z M142.984,85.071 C142.984,85.615 143.223,86.499 143.902,87.042 C144.413,87.451 145.127,87.824 145.942,87.824 C147.37,87.824 148.628,86.566 148.628,83.303 C148.628,81.161 148.391,76.266 145.093,76.266 C144.446,76.266 143.528,76.538 142.984,77.184 L142.984,85.071 L142.984,85.071 Z" id="Fill-10" sketch:type="MSShapeGroup"></path>
                <path d="M161.479,86.09 C161.479,87.145 161.82,87.484 162.534,87.484 L163.928,87.484 C164.132,87.484 164.166,87.586 164.166,87.79 L164.166,88.47 C164.166,88.674 164.132,88.776 163.996,88.776 C163.792,88.776 162.228,88.674 159.168,88.674 C156.551,88.674 155.122,88.776 154.919,88.776 C154.782,88.776 154.715,88.708 154.715,88.436 L154.715,87.79 C154.715,87.552 154.782,87.484 155.089,87.484 L156.074,87.484 C156.584,87.484 156.891,87.28 156.958,86.669 C157.026,85.717 157.026,84.527 157.026,82.827 L157.026,80.005 C157.026,78.544 156.686,77.931 155.667,77.354 L155.089,77.014 C154.885,76.912 154.816,76.843 154.816,76.707 L154.816,76.401 C154.816,76.266 154.885,76.198 155.089,76.129 L159.848,74.056 C160.052,73.988 160.189,73.92 160.391,73.92 C160.63,73.92 160.766,74.124 160.8,74.328 L161.106,76.979 L161.344,76.979 C162.397,74.736 163.894,73.716 165.39,73.716 C166.409,73.716 167.191,74.498 167.191,75.688 C167.191,76.605 166.138,77.626 165.016,77.626 C164.54,77.626 164.098,77.523 163.792,77.319 C163.519,77.149 163.214,77.081 162.941,77.081 C162.602,77.081 162.262,77.251 162.058,77.693 C161.616,78.611 161.479,79.257 161.479,79.699 L161.479,86.09" id="Fill-11" sketch:type="MSShapeGroup"></path>
                <path d="M176.609,88.776 C176.338,88.776 174.774,88.674 171.816,88.674 C169.845,88.674 168.518,88.776 168.145,88.776 C167.975,88.776 167.873,88.708 167.873,88.436 L167.873,87.756 C167.873,87.552 167.975,87.484 168.213,87.484 L169.471,87.484 C169.845,87.484 170.082,87.349 170.116,86.805 C170.185,85.785 170.185,84.731 170.185,83.779 L170.116,79.019 C170.116,78.067 169.912,77.387 168.484,76.877 C168.11,76.742 168.076,76.605 168.076,76.401 L168.076,76.028 C168.076,75.926 168.145,75.857 168.45,75.755 L173.516,74.124 C173.89,73.988 174.196,73.92 174.434,73.92 C174.706,73.92 174.808,74.09 174.774,74.328 C174.706,74.906 174.706,77.047 174.706,80.039 L174.706,83.677 C174.706,85.002 174.706,86.227 174.74,86.601 C174.808,87.247 174.978,87.484 175.352,87.484 L176.576,87.484 C176.848,87.484 176.916,87.586 176.916,87.79 L176.916,88.436 C176.916,88.674 176.848,88.776 176.609,88.776 L176.609,88.776 Z M171.952,71.336 C170.524,71.37 169.471,70.248 169.471,68.888 C169.471,67.767 170.626,66.645 172.122,66.645 C173.788,66.645 174.638,67.8 174.638,68.786 C174.638,69.908 173.856,71.268 171.952,71.336 L171.952,71.336 Z" id="Fill-12" sketch:type="MSShapeGroup"></path>
                <path d="M184.43,75.79 L184.701,75.79 C185.075,75.348 185.688,74.906 186.333,74.566 C187.081,74.158 187.829,73.92 188.951,73.92 C190.276,73.92 191.568,74.056 192.452,74.872 C193.88,76.198 193.982,77.047 193.982,78.748 L193.982,82.351 C193.982,83.507 193.914,85.104 193.847,86.294 C193.812,87.314 194.356,87.484 194.662,87.484 L195.58,87.484 C195.886,87.484 195.954,87.586 195.954,87.79 L195.954,88.402 C195.954,88.64 195.886,88.776 195.682,88.776 C195.444,88.776 194.391,88.674 191.671,88.674 C189.427,88.674 188.339,88.776 188.1,88.776 C187.898,88.776 187.829,88.674 187.829,88.402 L187.829,87.79 C187.829,87.552 187.931,87.484 188.27,87.484 L188.644,87.484 C188.883,87.484 189.188,87.314 189.257,86.703 C189.393,85.819 189.461,84.731 189.461,83.167 L189.461,79.529 C189.461,78.237 189.358,77.354 188.644,76.707 C188.033,76.164 187.557,76.096 186.979,76.096 C186.367,76.096 185.925,76.266 185.245,76.775 C184.837,77.081 184.565,77.999 184.565,79.393 L184.497,86.363 C184.497,86.975 184.735,87.484 185.041,87.484 L185.483,87.484 C185.755,87.484 185.823,87.586 185.823,87.824 L185.823,88.47 C185.823,88.674 185.755,88.776 185.585,88.776 C185.348,88.776 184.43,88.674 182.186,88.674 C179.771,88.674 178.684,88.776 178.479,88.776 C178.309,88.776 178.242,88.674 178.242,88.47 L178.242,87.79 C178.242,87.586 178.309,87.484 178.582,87.484 L179.092,87.484 C179.466,87.484 180.044,87.382 180.044,86.805 L180.044,79.257 C180.044,78.237 179.466,77.66 178.684,77.286 L178.378,77.149 C178.174,77.047 178.14,76.912 178.14,76.775 L178.14,76.47 C178.14,76.299 178.276,76.198 178.446,76.129 L182.798,74.158 C183.069,74.056 183.307,73.92 183.579,73.92 C183.783,73.92 183.987,74.09 184.056,74.328 L184.43,75.79" id="Fill-13" sketch:type="MSShapeGroup"></path>
                <path d="M198.403,96.868 C197.145,96.154 196.738,95.27 196.738,94.216 C196.738,92.516 198.641,91.292 200.239,90.646 L200.239,90.476 C198.676,90 197.894,88.946 197.894,87.756 C197.894,85.785 199.798,84.697 200.92,84.153 L200.92,84.051 C199.458,83.201 197.928,81.773 197.928,78.883 C197.928,76.673 199.695,73.92 204.523,73.92 C207.515,73.92 209.011,75.484 209.316,75.824 C210.099,75.178 211.356,74.634 212.309,74.634 C213.532,74.634 214.179,75.314 214.179,76.401 C214.179,77.184 213.464,77.863 212.683,77.863 C212.104,77.863 211.832,77.626 211.629,77.286 C211.458,77.014 211.051,76.775 210.677,76.775 C210.507,76.775 210.2,76.912 210.03,77.081 C210.167,77.319 210.439,78.067 210.439,79.292 C210.439,80.583 210.064,81.841 208.909,82.963 C207.617,84.187 205.679,84.595 204.319,84.595 C203.64,84.595 203.163,84.595 202.313,84.493 C201.871,84.765 201.056,85.376 201.056,86.057 C201.056,87.247 202.041,87.349 205.713,87.247 C208.024,87.178 209.759,87.314 211.425,88.606 C212.648,89.592 213.091,90.782 213.091,92.04 C213.091,93.468 212.444,94.692 211.118,95.814 C209.86,96.833 207.277,97.921 203.843,97.921 C202.212,97.921 199.729,97.649 198.403,96.868 L198.403,96.868 Z M209.453,93.706 C209.453,91.836 208.127,90.816 205.033,90.952 L202.075,91.088 C201.09,91.326 200.376,92.38 200.376,93.4 C200.376,94.386 200.92,95.236 201.565,95.711 C202.518,96.392 203.47,96.596 204.999,96.596 C207.243,96.596 209.453,95.406 209.453,93.706 L209.453,93.706 Z M202.687,76.299 C202.212,76.979 202.008,78.544 202.008,80.073 C202.008,81.059 202.313,82.147 202.755,82.657 C203.129,83.133 203.64,83.337 204.319,83.337 C205.815,83.337 206.325,81.059 206.325,78.441 C206.325,77.184 206.19,76.47 206.018,76.164 C205.713,75.585 205.305,75.211 204.353,75.211 C203.606,75.211 203.163,75.62 202.687,76.299 L202.687,76.299 Z" id="Fill-14" sketch:type="MSShapeGroup"></path>
                <path d="M183.736,232.458 C183.526,232.332 183.526,232.08 183.484,231.87 L182.771,227.879 C182.729,227.669 182.854,227.585 183.023,227.543 L183.568,227.418 C183.736,227.375 183.862,227.46 183.946,227.669 L184.996,229.728 C185.837,231.282 186.425,232.332 188.651,232.332 C190.121,232.332 191.97,231.45 191.97,229.476 C191.97,227.585 191.046,226.493 187.895,225.611 C185.417,224.897 182.938,223.595 182.938,220.276 C182.938,217.377 185.669,215.151 188.819,215.151 C190.836,215.151 191.928,215.655 192.684,216.033 C193.314,216.327 193.399,216.538 193.44,216.79 L194.07,219.73 C194.07,219.898 193.986,220.024 193.776,220.108 L193.272,220.276 C193.103,220.318 193.02,220.276 192.893,220.066 L191.466,218.134 C190.962,217.335 190.163,216.496 188.525,216.496 C186.929,216.496 185.291,217.461 185.291,219.268 C185.291,221.704 187.265,222.166 189.323,222.754 C192.39,223.637 194.322,224.897 194.364,228.131 C194.322,231.534 191.55,233.676 187.98,233.676 C185.921,233.676 184.24,232.836 183.736,232.458" id="Fill-15" sketch:type="MSShapeGroup"></path>
                <path d="M199.695,221.284 C199.695,220.276 199.401,219.688 198.184,219.016 L197.217,218.47 C196.923,218.344 196.923,218.218 196.923,218.092 L196.923,217.756 C196.923,217.629 197.007,217.545 197.217,217.461 L201.25,215.445 C201.586,215.277 201.922,215.109 202.216,215.109 C202.426,215.109 202.51,215.319 202.51,215.949 L202.678,217.966 L202.805,217.966 C203.938,216.496 206.123,215.151 208.938,215.151 C211.08,215.151 212.508,216.075 213.727,217.209 C215.322,218.806 215.994,220.528 215.994,223.763 C215.994,229.266 212.172,233.676 206.921,233.676 C205.787,233.676 204.023,233.508 202.721,232.962 L202.721,241.826 C202.721,243.002 203.015,243.212 203.644,243.212 L205.493,243.212 C205.829,243.212 205.871,243.38 205.871,243.632 L205.871,244.346 C205.871,244.598 205.787,244.725 205.493,244.725 C205.282,244.725 203.854,244.598 201.166,244.598 C198.729,244.598 197.259,244.725 196.923,244.725 C196.629,244.725 196.545,244.598 196.545,244.346 L196.545,243.59 C196.545,243.38 196.629,243.212 197.049,243.212 L198.687,243.212 C199.401,243.212 199.485,242.792 199.569,242.162 C199.695,241.238 199.695,238.969 199.695,234.853 L199.695,221.284 L199.695,221.284 Z M202.721,228.972 C202.721,229.896 202.805,230.652 203.603,231.198 C204.778,232.038 206.081,232.332 207.803,232.332 C210.197,232.332 212.676,230.526 212.676,225.317 C212.676,219.436 210.029,217.083 207.215,217.083 C205.451,217.083 203.729,218.092 202.721,219.772 L202.721,228.972 L202.721,228.972 Z" id="Fill-16" sketch:type="MSShapeGroup"></path>
                <path d="M221.62,221.999 C221.62,219.856 221.283,219.436 220.107,218.806 L219.31,218.386 C219.058,218.302 218.974,218.26 218.974,218.092 L218.974,217.84 C218.974,217.671 219.058,217.587 219.31,217.461 L223.468,215.319 C223.72,215.193 223.888,215.151 224.056,215.151 C224.309,215.151 224.351,215.403 224.351,215.655 L224.561,218.638 L224.729,218.638 C225.988,216.706 227.963,214.983 229.77,214.983 C231.197,214.983 231.911,215.865 231.911,216.832 C231.911,218.05 230.903,218.89 230.147,218.89 C229.686,218.89 229.265,218.722 228.929,218.554 C228.593,218.344 228.089,218.218 227.543,218.218 C226.87,218.218 225.778,218.638 225.064,219.982 C224.812,220.444 224.644,221.2 224.644,221.326 L224.644,230.064 C224.644,231.366 224.938,231.786 225.82,231.786 L227.795,231.786 C228.047,231.786 228.089,231.912 228.089,232.164 L228.089,232.92 C228.089,233.172 228.047,233.298 227.879,233.298 C227.627,233.298 225.694,233.172 223.426,233.172 C220.821,233.172 219.058,233.298 218.805,233.298 C218.637,233.298 218.553,233.214 218.553,232.878 L218.553,232.164 C218.553,231.87 218.637,231.786 219.016,231.786 L220.653,231.786 C221.283,231.786 221.578,231.534 221.578,230.988 C221.62,229.602 221.62,228.131 221.62,225.947 L221.62,221.999" id="Fill-17" sketch:type="MSShapeGroup"></path>
                <path d="M235.226,230.778 C233.295,228.467 232.917,226.913 232.917,223.931 C232.917,221.789 234.051,219.1 236.529,217.168 C238.714,215.487 240.772,215.151 242.158,215.151 C244.469,215.151 246.779,216.327 248.039,217.587 C249.93,219.52 250.895,221.704 250.895,224.435 C250.895,229.014 246.779,233.676 241.612,233.676 C239.596,233.676 236.991,232.878 235.226,230.778 L235.226,230.778 Z M247.367,224.015 C247.367,219.352 243.965,216.412 241.822,216.412 C240.687,216.412 239.596,216.664 238.588,217.756 C236.949,219.436 236.361,221.158 236.361,224.351 C236.361,226.703 236.613,228.299 237.957,230.232 C238.924,231.618 240.142,232.416 242.116,232.416 C245.309,232.416 247.367,228.51 247.367,224.015 L247.367,224.015 Z" id="Fill-18" sketch:type="MSShapeGroup"></path>
                <path d="M269.88,224.645 C269.88,226.661 269.88,228.72 269.964,229.602 C270.09,230.904 270.552,231.072 271.056,231.072 C271.308,231.072 271.938,231.072 272.441,230.946 C272.778,230.862 272.904,230.946 272.946,231.114 L273.072,231.66 C273.114,231.912 273.03,231.996 272.862,232.038 L268.451,233.508 C268.199,233.592 267.947,233.676 267.611,233.676 C267.443,233.676 267.275,233.592 267.233,233.172 L266.896,230.736 L266.812,230.736 C265.637,232.374 263.2,233.676 261.1,233.676 C259.924,233.676 258.537,233.55 257.151,231.744 C255.429,229.518 255.513,228.131 255.513,223.511 L255.513,218.596 C255.471,217.419 254.883,217.125 253.917,217 C253.202,216.957 252.992,216.915 252.992,216.706 L252.992,215.949 C252.992,215.697 253.076,215.613 253.454,215.613 L257.193,215.613 C257.445,215.613 257.613,215.571 257.781,215.529 C257.949,215.529 258.117,215.487 258.243,215.487 C258.537,215.487 258.747,215.697 258.705,215.991 C258.663,216.37 258.537,218.344 258.537,220.822 L258.537,223.847 C258.537,225.527 258.117,228.215 259.462,230.148 C260.512,231.66 261.687,231.744 262.822,231.744 C263.956,231.744 265.637,230.652 266.434,229.644 C266.603,229.434 266.854,228.888 266.854,228.51 L266.854,218.47 C266.771,217.293 266.099,217.083 265.049,217 C264.334,217 264.124,216.915 264.124,216.706 L264.124,215.991 C264.124,215.655 264.208,215.613 264.629,215.613 L268.535,215.613 C268.829,215.613 269.039,215.571 269.249,215.529 C269.459,215.529 269.627,215.487 269.753,215.487 C270.006,215.487 270.174,215.697 270.132,215.907 C270.09,216.285 269.88,217.377 269.88,221.494 L269.88,224.645" id="Fill-19" sketch:type="MSShapeGroup"></path>
                <path d="M280.714,227.921 C280.714,231.072 282.142,231.618 282.897,231.618 C283.864,231.618 285.082,231.45 285.67,231.072 C285.881,230.946 286.049,230.988 286.175,231.156 L286.385,231.534 C286.511,231.702 286.427,231.87 286.301,231.996 C285.881,232.416 284.158,233.676 281.638,233.676 C279.579,233.676 277.563,231.702 277.563,230.106 C277.563,228.383 277.689,224.687 277.689,224.099 L277.689,223.175 C277.689,222.418 277.731,219.562 277.774,217.798 L275.211,217.798 C274.832,217.798 274.58,217.629 274.58,217.293 C274.58,216.957 274.832,216.832 275.337,216.538 C276.345,215.949 279.579,212.715 280.125,211.287 C280.251,210.95 280.462,210.866 280.714,210.866 C281.05,210.866 281.134,211.161 281.134,211.497 L280.924,215.613 L286.763,215.613 C287.015,215.613 287.141,215.823 287.057,215.991 L286.637,217.461 C286.595,217.671 286.511,217.798 286.259,217.798 L280.84,217.798 C280.756,219.73 280.714,221.789 280.714,223.721 L280.714,227.921" id="Fill-20" sketch:type="MSShapeGroup"></path>
                <path d="M317.944,243.473 C316.381,241.603 316.074,240.346 316.074,237.932 C316.074,236.198 316.992,234.022 318.998,232.458 C320.767,231.099 322.432,230.827 323.554,230.827 C325.424,230.827 327.294,231.778 328.313,232.798 C329.844,234.362 330.625,236.13 330.625,238.34 C330.625,242.045 327.294,245.819 323.112,245.819 C321.48,245.819 319.372,245.173 317.944,243.473 L317.944,243.473 Z M327.769,238 C327.769,234.226 325.016,231.847 323.282,231.847 C322.364,231.847 321.48,232.05 320.664,232.935 C319.338,234.294 318.862,235.688 318.862,238.272 C318.862,240.176 319.066,241.467 320.154,243.031 C320.936,244.153 321.922,244.799 323.52,244.799 C326.104,244.799 327.769,241.638 327.769,238 L327.769,238 Z" id="Fill-21" sketch:type="MSShapeGroup"></path>
                <path d="M345.993,238.51 C345.993,240.142 345.993,241.808 346.061,242.522 C346.163,243.575 346.537,243.711 346.945,243.711 C347.149,243.711 347.659,243.711 348.066,243.609 C348.339,243.541 348.44,243.609 348.475,243.745 L348.577,244.187 C348.61,244.391 348.543,244.46 348.406,244.493 L344.837,245.683 C344.633,245.751 344.429,245.819 344.157,245.819 C344.021,245.819 343.885,245.751 343.852,245.411 L343.579,243.44 L343.512,243.44 C342.559,244.765 340.588,245.819 338.888,245.819 C337.935,245.819 336.814,245.717 335.692,244.255 C334.298,242.454 334.366,241.332 334.366,237.592 L334.366,233.614 C334.332,232.663 333.856,232.424 333.074,232.322 C332.496,232.289 332.326,232.254 332.326,232.085 L332.326,231.473 C332.326,231.269 332.395,231.201 332.7,231.201 L335.726,231.201 C335.93,231.201 336.066,231.166 336.202,231.132 C336.338,231.132 336.474,231.099 336.576,231.099 C336.814,231.099 336.984,231.269 336.95,231.506 C336.916,231.812 336.814,233.41 336.814,235.416 L336.814,237.864 C336.814,239.224 336.474,241.399 337.561,242.963 C338.412,244.187 339.363,244.255 340.281,244.255 C341.199,244.255 342.559,243.372 343.205,242.555 C343.341,242.385 343.545,241.943 343.545,241.638 L343.545,233.512 C343.478,232.56 342.934,232.391 342.083,232.322 C341.506,232.322 341.336,232.254 341.336,232.085 L341.336,231.506 C341.336,231.234 341.403,231.201 341.743,231.201 L344.905,231.201 C345.143,231.201 345.313,231.166 345.483,231.132 C345.653,231.132 345.789,231.099 345.891,231.099 C346.095,231.099 346.23,231.269 346.197,231.439 C346.163,231.745 345.993,232.628 345.993,235.96 L345.993,238.51" id="Fill-22" sketch:type="MSShapeGroup"></path>
                <path d="M354.766,241.162 C354.766,243.711 355.922,244.153 356.534,244.153 C357.315,244.153 358.302,244.017 358.777,243.711 C358.947,243.609 359.084,243.643 359.186,243.779 L359.355,244.085 C359.457,244.221 359.39,244.357 359.287,244.46 C358.947,244.799 357.554,245.819 355.514,245.819 C353.848,245.819 352.216,244.221 352.216,242.929 C352.216,241.536 352.318,238.544 352.318,238.068 L352.318,237.32 C352.318,236.708 352.353,234.396 352.386,232.968 L350.313,232.968 C350.007,232.968 349.803,232.832 349.803,232.56 C349.803,232.289 350.007,232.186 350.414,231.949 C351.23,231.473 353.848,228.855 354.29,227.699 C354.392,227.427 354.562,227.359 354.766,227.359 C355.038,227.359 355.106,227.597 355.106,227.869 L354.936,231.201 L359.661,231.201 C359.865,231.201 359.968,231.371 359.899,231.506 L359.56,232.696 C359.525,232.866 359.457,232.968 359.254,232.968 L354.868,232.968 C354.8,234.532 354.766,236.198 354.766,237.762 L354.766,241.162" id="Fill-23" sketch:type="MSShapeGroup"></path>
            </g>
        </g>
    </g>
</svg>