<?xml version="1.0" encoding="UTF-8" standalone="no"?>
<svg width="239px" height="359px" viewBox="0 0 239 359" version="1.1" xmlns="http://www.w3.org/2000/svg" xmlns:xlink="http://www.w3.org/1999/xlink" xmlns:sketch="http://www.bohemiancoding.com/sketch/ns">
    <!-- Generator: Sketch 3.2.2 (9983) - http://www.bohemiancoding.com/sketch -->
    <title>冬文字</title>
    <desc>Created with Sketch.</desc>
    <defs></defs>
    <g id="Page-1" stroke="none" stroke-width="1" fill="none" fill-rule="evenodd" sketch:type="MSPage">
        <g id="冬文字" sketch:type="MSArtboardGroup" fill="#FFFFFF">
            <g id="Imported-Layers" sketch:type="MSLayerGroup">
                <path d="M80.356,34.563 L96.541,49.795 C95.708,51.223 94.398,51.699 91.185,51.937 C85.83,60.267 79.285,67.407 71.551,73.596 C84.641,78.475 99.516,81.33 113.797,82.758 L113.558,84.306 C105.942,86.09 101.301,91.803 99.159,100.371 C83.927,96.324 70.36,90.613 59.293,82.045 C43.703,91.207 24.425,97.277 1.338,100.848 L0.981,99.656 C20.498,93.826 37.039,84.781 49.891,73.358 C45.013,68.002 40.967,61.815 37.515,54.555 C29.305,62.052 19.665,68.24 9.311,72.286 L8.598,71.453 C20.855,61.338 31.922,42.893 36.563,26.232 L60.363,30.992 C60.007,32.301 59.055,33.016 55.723,32.896 C53.343,36.823 50.605,40.631 47.512,44.32 L69.527,44.32 L80.356,34.563 L80.356,34.563 Z M23.353,116.317 C31.803,115.246 39.182,114.77 45.607,114.77 C74.644,114.77 84.521,124.41 84.521,131.669 C84.521,136.191 80.713,139.88 75.358,139.88 C74.287,139.88 73.098,139.762 71.907,139.404 C63.577,133.453 44.537,123.576 23.234,117.508 L23.353,116.317 L23.353,116.317 Z M37.873,93.23 C42.989,92.397 47.512,91.922 51.32,91.922 C67.028,91.922 72.74,98.348 72.74,104.061 C72.74,108.701 68.932,112.866 63.695,112.866 C62.387,112.866 61.078,112.51 59.65,112.033 C56.556,107.749 47.988,99.895 37.635,94.421 L37.873,93.23 L37.873,93.23 Z M45.846,46.225 C43.941,48.367 42.037,50.39 39.895,52.412 C44.299,58.125 50.011,62.766 56.556,66.574 C62.268,60.386 66.909,53.603 70.478,46.225 L45.846,46.225 L45.846,46.225 Z" id="Fill-1" sketch:type="MSShapeGroup"></path>
                <path d="M111.451,240.436 L111.451,247.615 C119.888,250.649 122.7,254.72 122.7,257.901 C122.7,260.936 120.184,263.229 117.519,263.229 C116.113,263.229 114.633,262.564 113.523,261.01 C113.819,257.235 113.005,252.573 111.451,249.243 L111.451,278.845 C111.451,279.659 107.306,281.583 103.458,281.583 L101.46,281.583 L101.46,260.048 C98.87,263.674 95.91,267.004 92.506,270.038 L91.617,269.076 C95.614,261.306 98.055,250.354 99.388,240.436 L91.84,240.436 L91.544,239.252 L101.46,239.252 L101.46,211.353 L114.337,212.536 C114.189,213.646 113.597,214.238 111.451,214.534 L111.451,239.252 L112.117,239.252 L116.335,233.258 L122.33,237.994 C125.068,230.741 127.14,221.121 127.88,211.5 L142.015,214.757 C141.719,215.719 141.053,216.311 139.055,216.459 C135.059,229.706 128.916,238.809 120.184,244.729 L119.369,244.211 C120.035,243.101 120.701,241.843 121.294,240.436 L111.451,240.436 L111.451,240.436 Z M92.802,216.755 C98.574,220.899 100.572,225.117 100.572,228.374 C100.572,232 98.13,234.442 95.687,234.442 C94.355,234.442 93.023,233.776 92.061,232.148 C92.653,229.928 92.876,227.411 92.876,224.896 C92.876,222.009 92.506,219.197 91.914,217.051 L92.802,216.755 L92.802,216.755 Z M125.882,219.641 C125.586,220.603 124.92,221.121 122.996,221.195 C120.109,225.783 116.631,231.038 113.597,234.59 L112.487,234.146 C113.079,229.779 113.893,222.527 114.559,216.606 L125.882,219.641 L125.882,219.641 Z M145.863,211.278 C148.38,220.751 156.52,228.743 163.402,232.074 L163.625,232.74 C159.851,235.404 156.224,239.03 155.114,242.879 L158.889,245.69 C158.37,246.283 157.408,246.875 155.854,247.097 C155.187,267.819 154.004,275.515 150.229,278.475 C147.491,280.621 145.049,281.509 139.943,281.509 C139.943,276.329 139.721,273.591 133.061,271.815 L133.061,271.001 C135.207,271.074 138.98,271.074 140.461,271.074 C141.497,271.074 142.015,271.074 142.607,270.557 C144.383,268.929 145.197,261.084 145.789,244.507 L140.387,244.507 C138.463,261.231 133.282,274.257 117.371,281.731 L117.001,280.917 C126.473,272.333 128.694,259.826 129.286,244.507 L124.475,244.507 L124.105,243.322 L144.975,243.322 L149.046,238.29 L153.264,241.473 C148.972,233.924 146.307,222.379 144.901,212.019 L145.863,211.278 L145.863,211.278 Z" id="Fill-2" sketch:type="MSShapeGroup"></path>
                <path d="M154.004,299.527 L162.736,307.741 C162.144,308.408 161.479,308.63 159.924,308.704 C157.26,311.146 152.82,314.402 149.342,316.252 L148.75,315.809 L148.972,314.402 L134.171,314.402 L133.801,313.218 L140.535,313.218 L144.309,308.63 L149.268,311.886 C149.489,309.814 149.712,307.52 149.785,305.743 L132.098,305.743 L132.098,326.243 C132.098,326.686 128.916,328.389 123.514,328.389 L121.59,328.389 L121.59,305.743 L104.272,305.743 C104.494,306.779 104.568,307.668 104.568,308.556 C104.568,310.406 104.124,311.96 103.458,313.218 L109.083,313.218 L112.783,308.777 L119.739,313.366 C119.222,314.254 118.111,314.402 116.409,314.402 L102.719,314.402 C102.274,314.994 100.721,316.771 97.538,316.771 C94.725,316.771 92.283,315.143 92.283,312.33 C92.283,309.962 94.208,308.26 96.353,307.445 C99.019,306.558 101.83,303.819 101.608,300.415 L102.57,300.341 C103.236,301.821 103.68,303.228 104.051,304.56 L121.59,304.56 L121.59,296.123 L99.314,296.123 L98.944,294.939 L141.349,294.939 L146.603,288.204 L156.298,295.087 C155.78,295.901 154.744,296.123 152.672,296.123 L132.098,296.123 L132.098,304.56 L149.046,304.56 L154.004,299.527 L154.004,299.527 Z M112.339,316.992 L119.813,322.32 C119.296,323.209 118.185,323.356 116.409,323.356 L100.572,323.356 L100.202,322.173 L108.343,322.173 L112.339,316.992 L112.339,316.992 Z M140.239,331.497 L144.161,326.317 L154.596,333.644 C154.152,334.235 153.264,334.976 151.71,335.272 L151.71,355.771 C151.71,355.845 148.972,358.583 140.978,358.583 L140.978,353.625 L101.904,353.625 L101.534,352.441 L140.978,352.441 L140.978,342.895 L105.013,342.895 L104.643,341.71 L140.978,341.71 L140.978,332.682 L103.828,332.682 L103.458,331.497 L140.239,331.497 L140.239,331.497 Z M146.603,317.067 L154.374,322.32 C153.855,323.209 152.746,323.356 150.97,323.356 L134.393,323.356 L134.022,322.173 L142.459,322.173 L146.603,317.067 L146.603,317.067 Z" id="Fill-3" sketch:type="MSShapeGroup"></path>
                <path d="M133.073,7.738 C132.882,8.099 132.617,8.291 131.922,8.291 L122.44,8.291 C123.329,12.971 125.825,18.107 133.242,21.636 L133.193,21.924 C132.546,21.947 132.09,22.044 131.874,22.692 C124.721,18.875 122.681,13.163 121.936,8.291 L121.793,8.291 C121.121,13.859 118.961,18.972 111.184,22.764 L110.872,22.308 C117.904,18.539 119.992,13.692 120.641,8.291 L110.968,8.291 L110.8,7.666 L120.688,7.666 C120.904,5.387 120.904,3.01 120.904,0.586 L123.161,0.778 C123.113,1.114 122.944,1.306 122.129,1.354 C122.081,3.49 122.057,5.603 121.864,7.666 L129.833,7.666 L130.937,6.25 L133.073,7.738" id="Fill-4" sketch:type="MSShapeGroup"></path>
                <path d="M131.346,32.89 L132.977,34.475 C132.81,34.666 132.521,34.69 132.065,34.714 C131.561,35.555 130.601,36.803 129.857,37.498 L129.497,37.307 C129.833,36.658 130.289,35.386 130.577,34.426 L122.369,34.426 L122.369,40.835 C122.369,40.835 122.224,41.243 121.289,41.243 L121.289,34.426 L113.704,34.426 C113.632,36.106 112.6,37.186 111.519,37.186 C111.088,37.186 110.872,36.971 110.872,36.658 C110.872,36.37 111.088,36.082 111.399,35.891 C112.336,35.483 113.152,34.282 113.055,32.914 L113.512,32.89 C113.584,33.202 113.656,33.514 113.68,33.802 L121.289,33.802 L121.289,31.45 L113.248,31.45 L113.08,30.826 L127.961,30.826 L128.945,29.626 L130.842,30.897 C130.649,31.282 130.386,31.45 129.714,31.45 L122.369,31.45 L122.369,33.802 L130.481,33.802 L131.346,32.89 L131.346,32.89 Z M128.441,42.515 L129.041,41.723 L130.817,42.995 C130.649,43.186 130.241,43.379 129.762,43.475 L129.762,51.06 C129.737,51.132 129.377,51.516 128.681,51.516 L128.681,50.052 L113.224,50.052 L113.032,49.428 L128.681,49.428 L128.681,46.523 L114.328,46.523 L114.136,45.899 L128.681,45.899 L128.681,43.139 L113.896,43.139 L113.704,42.515 L128.441,42.515 L128.441,42.515 Z M113.368,39.971 L113.2,39.347 L117.856,39.347 L118.553,38.555 L119.969,39.442 C119.776,39.803 119.536,39.971 118.912,39.971 L113.368,39.971 L113.368,39.971 Z M118.433,35.842 L119.824,36.731 C119.633,37.091 119.393,37.259 118.768,37.259 L114.16,37.259 L113.992,36.635 L117.736,36.635 L118.433,35.842 L118.433,35.842 Z M123.809,39.971 L123.641,39.347 L128.393,39.347 L129.138,38.507 L130.626,39.442 C130.433,39.803 130.193,39.971 129.569,39.971 L123.809,39.971 L123.809,39.971 Z M127.77,35.818 L129.209,36.731 C129.018,37.091 128.802,37.259 128.153,37.259 L123.833,37.259 L123.665,36.635 L127.073,36.635 L127.77,35.818 L127.77,35.818 Z" id="Fill-5" sketch:type="MSShapeGroup"></path>
                <path d="M9.773,237.77 C9.604,237.669 9.604,237.465 9.569,237.295 L8.991,234.065 C8.957,233.896 9.06,233.827 9.195,233.793 L9.637,233.691 C9.773,233.657 9.875,233.726 9.943,233.896 L10.793,235.561 C11.473,236.818 11.949,237.669 13.751,237.669 C14.94,237.669 16.436,236.955 16.436,235.356 C16.436,233.827 15.688,232.944 13.139,232.23 C11.133,231.651 9.127,230.598 9.127,227.912 C9.127,225.565 11.337,223.764 13.887,223.764 C15.518,223.764 16.402,224.172 17.014,224.478 C17.524,224.716 17.592,224.886 17.626,225.09 L18.136,227.47 C18.136,227.606 18.068,227.708 17.898,227.776 L17.49,227.912 C17.354,227.945 17.286,227.912 17.184,227.741 L16.028,226.178 C15.62,225.532 14.974,224.852 13.648,224.852 C12.356,224.852 11.031,225.634 11.031,227.096 C11.031,229.067 12.629,229.441 14.295,229.917 C16.776,230.632 18.34,231.651 18.374,234.269 C18.34,237.023 16.097,238.757 13.207,238.757 C11.541,238.757 10.181,238.077 9.773,237.77" id="Fill-6" sketch:type="MSShapeGroup"></path>
                <path d="M34.367,236.513 C34.367,237.057 34.673,237.227 35.115,237.227 L36.203,237.227 C36.509,237.227 36.577,237.329 36.577,237.532 L36.577,238.077 C36.577,238.314 36.509,238.45 36.305,238.45 C36.066,238.45 35.013,238.349 33.075,238.349 C31.341,238.349 30.253,238.45 30.015,238.45 C29.811,238.45 29.743,238.349 29.743,238.077 L29.743,237.532 C29.743,237.295 29.846,237.227 30.185,237.227 L31.171,237.227 C31.545,237.227 31.817,237.057 31.852,236.444 C31.885,235.561 31.919,234.473 31.919,233.589 L31.919,229.102 C31.919,227.741 31.919,226.756 30.934,226.042 C30.117,225.43 29.302,225.43 28.451,225.43 C27.907,225.43 26.718,225.668 25.698,226.756 C25.017,227.504 24.916,228.422 24.916,229.067 L24.916,236.105 C24.916,237.023 25.017,237.227 25.731,237.227 L26.582,237.227 C26.854,237.227 26.922,237.329 26.922,237.567 L26.922,238.145 C26.922,238.349 26.854,238.45 26.684,238.45 C26.445,238.45 25.528,238.349 23.726,238.349 C21.992,238.349 20.904,238.45 20.7,238.45 C20.53,238.45 20.462,238.349 20.462,238.145 L20.462,237.532 C20.462,237.329 20.53,237.227 20.803,237.227 L21.788,237.227 C22.23,237.227 22.468,237.125 22.468,236.547 L22.468,228.592 C22.468,227.571 21.924,226.994 21.074,226.586 L20.803,226.45 C20.564,226.348 20.53,226.246 20.53,226.144 L20.53,225.974 C20.53,225.804 20.666,225.702 20.836,225.634 L23.76,224.002 C24.032,223.866 24.236,223.764 24.372,223.764 C24.542,223.764 24.61,223.9 24.643,224.172 L24.882,226.246 L24.95,226.246 C25.935,225.023 27.907,223.764 29.607,223.764 C30.627,223.764 31.682,223.968 32.497,224.512 C33.517,225.193 34.367,226.892 34.367,227.741 L34.367,236.513" id="Fill-7" sketch:type="MSShapeGroup"></path>
                <path d="M39.587,236.411 C38.023,234.541 37.717,233.283 37.717,230.869 C37.717,229.136 38.635,226.96 40.641,225.395 C42.408,224.036 44.074,223.764 45.196,223.764 C47.066,223.764 48.935,224.716 49.956,225.736 C51.485,227.3 52.268,229.067 52.268,231.277 C52.268,234.984 48.935,238.757 44.754,238.757 C43.122,238.757 41.014,238.11 39.587,236.411 L39.587,236.411 Z M49.412,230.938 C49.412,227.164 46.658,224.784 44.924,224.784 C44.007,224.784 43.122,224.988 42.307,225.872 C40.98,227.232 40.505,228.626 40.505,231.209 C40.505,233.113 40.709,234.405 41.797,235.969 C42.578,237.091 43.564,237.736 45.162,237.736 C47.746,237.736 49.412,234.575 49.412,230.938 L49.412,230.938 Z" id="Fill-8" sketch:type="MSShapeGroup"></path>
                <path d="M69.635,234.643 L69.77,234.643 L72.524,227.13 C72.966,225.939 72.694,225.26 72.015,225.26 L71.538,225.26 C71.368,225.26 71.334,225.158 71.334,224.988 L71.334,224.274 C71.334,224.105 71.436,224.036 71.572,224.036 C71.776,224.036 72.796,224.138 74.19,224.138 C75.652,224.138 76.264,224.036 76.672,224.036 C76.842,224.036 76.91,224.138 76.91,224.274 L76.91,224.988 C76.91,225.158 76.842,225.26 76.672,225.26 L75.822,225.26 C75.414,225.26 74.937,225.532 74.734,225.838 C74.326,226.483 70.009,237.329 69.566,238.417 C69.431,238.791 69.192,238.858 68.921,238.858 C68.682,238.858 68.444,238.62 68.309,238.213 L64.976,228.489 L64.807,228.489 L60.625,238.314 C60.455,238.723 60.184,238.858 59.911,238.858 C59.64,238.858 59.47,238.587 59.334,238.179 L54.88,226.178 C54.641,225.532 54.267,225.26 53.452,225.26 L52.704,225.26 C52.5,225.26 52.466,225.158 52.466,224.954 L52.466,224.308 C52.466,224.138 52.5,224.036 52.67,224.036 C53.146,224.036 53.826,224.138 55.764,224.138 C57.294,224.138 58.109,224.036 58.619,224.036 C58.823,224.036 58.891,224.105 58.891,224.308 L58.891,224.988 C58.891,225.158 58.857,225.26 58.619,225.26 L58.313,225.26 C57.939,225.26 57.702,225.565 57.905,226.178 L60.592,235.221 L60.728,235.221 L64.195,226.892 C64.127,226.348 64.093,226.076 63.889,225.804 C63.719,225.565 63.447,225.464 62.971,225.464 L62.461,225.464 C62.291,225.464 62.224,225.395 62.224,225.226 L62.224,224.512 C62.224,224.308 62.325,224.24 62.529,224.24 C62.801,224.24 63.889,224.342 65.589,224.342 C67.152,224.342 67.9,224.24 68.173,224.24 C68.41,224.24 68.479,224.308 68.479,224.478 L68.479,225.193 C68.479,225.362 68.41,225.464 68.24,225.464 L67.526,225.464 C67.186,225.464 66.915,225.838 67.051,226.348 L69.635,234.643" id="Fill-9" sketch:type="MSShapeGroup"></path>
                <path d="M128.727,65.018 L128.559,65.018 C128.252,65.83 123.352,78.851 123.239,79.131 C123.128,79.438 122.987,79.83 122.54,79.83 C122.231,79.83 122.063,79.606 121.952,79.271 L115.651,61.519 C115.372,60.734 114.868,60.511 114.504,60.511 L113.804,60.511 C113.664,60.511 113.636,60.398 113.636,60.286 L113.636,59.559 C113.636,59.419 113.664,59.362 113.859,59.362 C114.084,59.362 114.952,59.446 117.836,59.446 C119.851,59.446 121,59.362 121.279,59.362 C121.475,59.362 121.504,59.446 121.504,59.587 L121.504,60.286 C121.504,60.427 121.475,60.511 121.279,60.511 L120.664,60.511 C120.216,60.511 119.936,60.902 120.103,61.463 L123.939,73.671 L124.107,73.671 C124.443,72.719 127.804,63.815 127.804,62.807 C127.804,62.106 127.523,61.379 127.271,61.043 C127.02,60.707 126.655,60.511 126.431,60.511 L125.872,60.511 C125.731,60.511 125.704,60.455 125.704,60.286 L125.704,59.559 C125.704,59.446 125.731,59.362 125.899,59.362 C126.151,59.362 127.132,59.446 129.596,59.446 C131.947,59.446 133.012,59.362 133.292,59.362 C133.46,59.362 133.487,59.446 133.487,59.614 L133.487,60.315 C133.487,60.427 133.46,60.511 133.292,60.511 L132.451,60.511 C132.004,60.511 131.752,61.127 131.891,61.602 L135.756,73.671 L135.924,73.671 C137.296,69.862 139.731,62.751 139.731,61.238 C139.731,60.931 139.367,60.511 138.836,60.511 L138.023,60.511 C137.855,60.511 137.827,60.427 137.827,60.259 L137.827,59.559 C137.827,59.446 137.855,59.362 138.052,59.362 C138.332,59.362 139.311,59.446 141.048,59.446 C142.615,59.446 143.428,59.362 143.651,59.362 C143.819,59.362 143.848,59.419 143.848,59.614 L143.848,60.315 C143.848,60.427 143.848,60.511 143.651,60.511 L143.119,60.511 C142.643,60.511 142.084,60.819 141.804,61.519 C141.468,62.415 135.84,77.618 135.279,78.963 C135.139,79.299 134.943,79.83 134.439,79.83 C134.048,79.83 133.88,79.467 133.739,79.074 L128.727,65.018" id="Fill-10" sketch:type="MSShapeGroup"></path>
                <path d="M150.164,79.355 C149.94,79.355 148.652,79.271 146.217,79.271 C144.593,79.271 143.501,79.355 143.192,79.355 C143.053,79.355 142.969,79.299 142.969,79.074 L142.969,78.515 C142.969,78.347 143.053,78.29 143.248,78.29 L144.284,78.29 C144.593,78.29 144.788,78.179 144.816,77.731 C144.872,76.891 144.872,76.022 144.872,75.238 L144.816,71.319 C144.816,70.534 144.648,69.975 143.473,69.555 C143.164,69.442 143.137,69.33 143.137,69.162 L143.137,68.855 C143.137,68.771 143.192,68.715 143.444,68.631 L147.616,67.286 C147.925,67.175 148.177,67.118 148.372,67.118 C148.597,67.118 148.68,67.259 148.652,67.454 C148.597,67.931 148.597,69.694 148.597,72.158 L148.597,75.154 C148.597,76.246 148.597,77.255 148.624,77.563 C148.68,78.095 148.82,78.29 149.129,78.29 L150.137,78.29 C150.36,78.29 150.416,78.375 150.416,78.543 L150.416,79.074 C150.416,79.271 150.36,79.355 150.164,79.355 L150.164,79.355 Z M146.328,64.99 C145.152,65.018 144.284,64.095 144.284,62.975 C144.284,62.051 145.236,61.127 146.469,61.127 C147.841,61.127 148.54,62.078 148.54,62.891 C148.54,63.815 147.896,64.935 146.328,64.99 L146.328,64.99 Z" id="Fill-11" sketch:type="MSShapeGroup"></path>
                <path d="M156.755,68.658 L156.979,68.658 C157.287,68.295 157.791,67.931 158.323,67.651 C158.938,67.314 159.555,67.118 160.478,67.118 C161.571,67.118 162.635,67.231 163.363,67.902 C164.539,68.994 164.623,69.694 164.623,71.095 L164.623,74.063 C164.623,75.015 164.567,76.33 164.511,77.311 C164.483,78.151 164.931,78.29 165.183,78.29 L165.938,78.29 C166.191,78.29 166.247,78.375 166.247,78.543 L166.247,79.047 C166.247,79.242 166.191,79.355 166.022,79.355 C165.827,79.355 164.959,79.271 162.719,79.271 C160.871,79.271 159.975,79.355 159.779,79.355 C159.611,79.355 159.555,79.271 159.555,79.047 L159.555,78.543 C159.555,78.347 159.639,78.29 159.919,78.29 L160.226,78.29 C160.423,78.29 160.675,78.151 160.731,77.647 C160.843,76.919 160.899,76.022 160.899,74.735 L160.899,71.738 C160.899,70.675 160.815,69.946 160.226,69.414 C159.723,68.967 159.331,68.91 158.854,68.91 C158.351,68.91 157.987,69.051 157.427,69.471 C157.091,69.723 156.867,70.479 156.867,71.627 L156.81,77.366 C156.81,77.87 157.007,78.29 157.259,78.29 L157.623,78.29 C157.847,78.29 157.903,78.375 157.903,78.57 L157.903,79.103 C157.903,79.271 157.847,79.355 157.707,79.355 C157.511,79.355 156.755,79.271 154.907,79.271 C152.919,79.271 152.023,79.355 151.855,79.355 C151.715,79.355 151.659,79.271 151.659,79.103 L151.659,78.543 C151.659,78.375 151.715,78.29 151.939,78.29 L152.359,78.29 C152.667,78.29 153.143,78.206 153.143,77.731 L153.143,71.515 C153.143,70.675 152.667,70.198 152.023,69.891 L151.77,69.778 C151.602,69.694 151.575,69.583 151.575,69.471 L151.575,69.219 C151.575,69.078 151.686,68.994 151.827,68.938 L155.411,67.314 C155.635,67.231 155.831,67.118 156.055,67.118 C156.223,67.118 156.39,67.259 156.447,67.454 L156.755,68.658" id="Fill-12" sketch:type="MSShapeGroup"></path>
                <path d="M172.025,75.183 C172.025,77.479 172.894,77.982 173.565,77.982 C174.153,77.982 174.574,77.899 175.021,77.647 C175.105,77.591 175.189,77.591 175.273,77.759 L175.47,78.179 C175.554,78.318 175.47,78.459 175.357,78.543 C174.882,78.879 173.622,79.662 171.437,79.662 C169.534,79.662 168.33,78.347 168.33,77.059 C168.33,76.078 168.386,73.95 168.386,72.887 L168.414,69.19 L166.874,69.19 C166.622,69.19 166.426,69.078 166.426,68.799 C166.426,68.519 166.594,68.322 167.042,68.099 C167.966,67.679 170.317,65.578 171.353,64.402 C171.55,64.179 171.746,64.123 171.886,64.123 C172.138,64.123 172.25,64.318 172.25,64.543 L172.138,67.511 L175.693,67.511 C175.861,67.511 175.945,67.651 175.89,67.763 L175.609,68.967 C175.582,69.078 175.525,69.19 175.357,69.19 L172.082,69.19 C172.025,70.339 172.025,71.683 172.025,72.971 L172.025,75.183" id="Fill-13" sketch:type="MSShapeGroup"></path>
                <path d="M179.835,72.299 L179.835,73.055 C179.835,75.967 181.486,77.395 183.53,77.395 C184.902,77.395 186.022,76.751 186.582,75.855 C186.639,75.715 186.75,75.687 186.862,75.77 L187.339,76.022 C187.45,76.078 187.534,76.219 187.282,76.694 C186.778,77.731 184.958,79.662 182.326,79.662 C180.534,79.662 179.051,79.355 178.127,78.347 C176.698,76.807 176.223,75.715 176.194,73.53 C176.194,72.746 176.194,71.263 177.454,69.414 C178.463,67.931 180.171,67.118 182.326,67.118 C186.862,67.118 187.114,71.459 187.114,71.906 C187.114,72.271 186.862,72.299 186.246,72.299 L179.835,72.299 L179.835,72.299 Z M182.551,71.234 C183.166,71.234 183.446,71.095 183.446,70.675 C183.446,69.442 182.942,68.238 182.074,68.238 C180.759,68.238 180.059,69.275 179.862,71.234 L182.551,71.234 L182.551,71.234 Z" id="Fill-14" sketch:type="MSShapeGroup"></path>
                <path d="M193.776,77.143 C193.776,78.011 194.055,78.29 194.644,78.29 L195.792,78.29 C195.96,78.29 195.988,78.375 195.988,78.543 L195.988,79.103 C195.988,79.271 195.96,79.355 195.848,79.355 C195.68,79.355 194.393,79.271 191.872,79.271 C189.716,79.271 188.54,79.355 188.372,79.355 C188.26,79.355 188.204,79.299 188.204,79.074 L188.204,78.543 C188.204,78.347 188.26,78.29 188.512,78.29 L189.324,78.29 C189.744,78.29 189.996,78.122 190.052,77.618 C190.108,76.835 190.108,75.855 190.108,74.454 L190.108,72.131 C190.108,70.927 189.828,70.423 188.988,69.946 L188.512,69.667 C188.344,69.583 188.288,69.526 188.288,69.414 L188.288,69.162 C188.288,69.051 188.344,68.994 188.512,68.938 L192.432,67.231 C192.6,67.175 192.712,67.118 192.88,67.118 C193.076,67.118 193.188,67.286 193.216,67.454 L193.468,69.639 L193.664,69.639 C194.532,67.791 195.764,66.95 196.996,66.95 C197.836,66.95 198.48,67.595 198.48,68.574 C198.48,69.33 197.612,70.171 196.688,70.171 C196.296,70.171 195.933,70.087 195.68,69.919 C195.456,69.778 195.204,69.723 194.98,69.723 C194.7,69.723 194.42,69.862 194.252,70.227 C193.888,70.982 193.776,71.515 193.776,71.879 L193.776,77.143" id="Fill-15" sketch:type="MSShapeGroup"></path>
                <path d="M33.32,259.626 L30.975,259.626 C30.805,259.626 30.736,259.559 30.805,259.252 L30.94,258.233 C30.975,258.028 31.076,257.994 31.349,257.994 L33.32,257.994 L33.32,257.383 C33.32,254.017 34.272,251.807 35.598,250.312 C37.399,248.34 39.27,247.626 41.174,247.626 C42.771,247.626 44.268,248.237 44.268,249.529 C44.268,250.346 43.383,250.991 42.839,250.991 C42.499,250.991 42.159,250.923 41.888,250.787 C41.581,250.617 41.207,250.176 41.071,250.005 C40.63,249.461 40.153,249.224 39.508,249.224 C38.624,249.224 37.706,249.461 36.958,250.413 C35.7,252.011 35.768,254.969 35.768,257.349 L35.768,257.994 L39.882,257.994 C40.119,257.994 40.153,258.198 40.119,258.334 L39.949,259.456 C39.916,259.593 39.779,259.626 39.508,259.626 L35.768,259.626 L35.768,262.686 C35.768,266.697 35.768,269.825 35.802,270.199 C35.87,270.778 35.972,271.083 36.686,271.083 L38.624,271.083 C38.93,271.083 38.998,271.151 38.998,271.355 L38.998,271.899 C38.998,272.171 38.93,272.307 38.76,272.307 C38.556,272.307 37.298,272.205 34.68,272.205 C32.81,272.205 31.076,272.307 30.805,272.307 C30.6,272.307 30.532,272.239 30.532,272.069 L30.532,271.321 C30.532,271.151 30.6,271.083 30.872,271.083 L32.504,271.083 C33.15,271.083 33.286,270.675 33.32,269.894 L33.32,259.626" id="Fill-16" sketch:type="MSShapeGroup"></path>
                <path d="M51.302,268.159 C51.302,270.098 51.71,270.709 52.321,270.709 C52.865,270.709 53.342,270.438 53.512,270.199 C53.647,270.029 53.716,269.961 53.851,270.064 L54.191,270.335 C54.293,270.438 54.361,270.608 54.157,270.947 C53.886,271.457 53.239,272.613 51.506,272.613 C50.282,272.613 49.398,271.73 49.092,270.335 L49.024,270.335 C48.311,271.186 47.188,271.899 45.658,272.409 C45.013,272.613 44.4,272.613 43.652,272.613 C42.837,272.613 41.612,271.934 41.612,269.791 C41.612,268.228 42.326,266.867 45.013,265.678 C46.542,264.998 48.311,264.182 48.853,263.706 L48.853,261.53 C48.786,260.952 48.752,260.068 48.378,259.626 C48.004,259.185 47.324,258.879 46.338,258.879 C45.658,258.879 44.604,259.15 44.129,259.593 C43.652,260.034 43.959,260.544 43.959,261.156 C43.959,262.346 43.551,263.094 42.156,263.094 C41.612,263.094 41.341,262.788 41.341,262.006 C41.341,260.918 42.293,259.626 43.686,258.811 C45.114,257.961 46.305,257.62 47.834,257.62 C49.432,257.62 50.078,258.097 50.554,258.538 C51.267,259.252 51.302,260.034 51.302,260.952 L51.302,268.159 L51.302,268.159 Z M48.82,264.726 C47.596,265.644 44.265,266.323 44.265,269.146 C44.265,270.403 45.013,271.016 46.032,271.016 C47.018,271.016 48.82,269.825 48.82,268.907 L48.82,264.726 L48.82,264.726 Z" id="Fill-17" sketch:type="MSShapeGroup"></path>
                <path d="M60.822,262.074 C60.822,263.842 60.822,268.976 60.855,270.029 C60.889,270.608 61.025,271.083 61.739,271.083 L63.27,271.083 C63.575,271.083 63.643,271.186 63.643,271.389 L63.643,271.967 C63.643,272.171 63.575,272.307 63.439,272.307 C63.201,272.307 61.706,272.205 59.598,272.205 C57.422,272.205 56.063,272.307 55.756,272.307 C55.586,272.307 55.519,272.171 55.519,271.967 L55.519,271.389 C55.519,271.151 55.586,271.083 55.96,271.083 L57.592,271.083 C57.966,271.083 58.305,270.846 58.34,270.234 C58.374,269.18 58.374,263.332 58.374,261.36 L58.374,259.219 C58.374,256.805 58.34,253.711 58.272,252.827 C58.204,251.671 57.66,251.127 56.572,250.787 L55.893,250.549 C55.723,250.482 55.688,250.447 55.688,250.379 L55.688,250.107 C55.688,250.005 55.79,249.938 55.994,249.869 C57.184,249.325 58.714,248.714 59.972,247.898 C60.277,247.693 60.481,247.626 60.686,247.626 C60.924,247.626 60.992,247.796 60.958,248.237 C60.924,250.107 60.822,257.179 60.822,259.049 L60.822,262.074" id="Fill-18" sketch:type="MSShapeGroup"></path>
                <path d="M70.205,262.074 C70.205,263.842 70.205,268.976 70.239,270.029 C70.273,270.608 70.409,271.083 71.123,271.083 L72.653,271.083 C72.959,271.083 73.027,271.186 73.027,271.389 L73.027,271.967 C73.027,272.171 72.959,272.307 72.823,272.307 C72.585,272.307 71.09,272.205 68.981,272.205 C66.806,272.205 65.446,272.307 65.14,272.307 C64.97,272.307 64.902,272.171 64.902,271.967 L64.902,271.389 C64.902,271.151 64.97,271.083 65.344,271.083 L66.975,271.083 C67.35,271.083 67.689,270.846 67.724,270.234 C67.758,269.18 67.758,263.332 67.758,261.36 L67.758,259.219 C67.758,256.805 67.724,253.711 67.656,252.827 C67.588,251.671 67.044,251.127 65.956,250.787 L65.276,250.549 C65.106,250.482 65.072,250.447 65.072,250.379 L65.072,250.107 C65.072,250.005 65.174,249.938 65.378,249.869 C66.568,249.325 68.098,248.714 69.355,247.898 C69.662,247.693 69.865,247.626 70.069,247.626 C70.308,247.626 70.376,247.796 70.342,248.237 C70.308,250.107 70.205,257.179 70.205,259.049 L70.205,262.074" id="Fill-19" sketch:type="MSShapeGroup"></path>
                <path d="M196.42,301.41 L200.97,305.471 C200.725,305.891 200.375,306.031 199.465,306.101 C195.019,312.192 188.368,317.232 180.073,320.418 C182.663,322.098 186.408,322.378 192.499,322.378 C195.055,322.378 201.285,322.378 204.05,322.308 L204.05,322.693 C202.37,323.112 201.6,324.968 201.6,326.928 L192.394,326.928 C184.343,326.928 180.423,325.353 178.077,319.053 C177.167,321.117 175.803,324.198 174.962,325.738 C175.138,325.983 175.207,326.193 175.207,326.403 C175.207,326.718 175.067,326.963 174.857,327.173 L171.601,323.778 C173.141,322.588 175.837,320.173 177.378,318.527 L177.833,315.657 L179.933,316.148 L178.218,318.667 C178.638,319.228 179.093,319.683 179.618,320.068 C185.429,316.252 190.784,310.337 193.689,304.701 L173.632,304.701 L173.457,304.141 L184.693,304.141 L184.693,295.11 L191.274,295.74 C191.204,296.195 190.924,296.475 189.943,296.615 L189.943,304.141 L193.479,304.141 L196.42,301.41" id="Fill-20" sketch:type="MSShapeGroup"></path>
                <path d="M233.215,321.503 L238.501,325.318 C238.221,325.703 237.765,325.808 236.75,325.808 L205.387,325.808 L205.212,325.248 L217.918,325.248 L217.918,294.865 L224.674,295.53 C224.604,295.985 224.289,296.265 223.344,296.405 L223.344,308.341 L227.824,308.341 L230.659,304.631 L235.84,308.411 C235.56,308.796 235,308.901 234.055,308.901 L223.344,308.901 L223.344,325.248 L230.31,325.248 L233.215,321.503" id="Fill-21" sketch:type="MSShapeGroup"></path>
                <path d="M48.828,201.837 C49.528,203.762 49.808,205.302 49.808,206.492 C49.808,208.907 48.653,209.853 47.603,209.853 C46.798,209.853 46.062,209.258 46.062,208.348 C46.062,207.893 46.272,207.332 46.692,206.737 C47.708,205.898 48.303,204.182 48.373,201.837 L48.828,201.837 L48.828,201.837 Z M57.648,197.321 L59.294,195.291 L63.319,198.302 C63.074,198.616 62.619,198.826 61.954,198.932 C61.604,207.228 60.939,210.378 59.364,211.603 C58.209,212.443 57.229,212.758 55.233,212.758 C55.304,210.763 55.023,209.643 52.713,209.117 L52.713,208.662 L55.514,208.697 C56.004,208.697 56.214,208.662 56.459,208.452 C56.949,208.032 57.299,206.737 57.579,204.287 C57.264,204.287 56.914,204.147 56.599,203.867 C56.424,202.606 55.443,201.066 54.394,200.297 L54.639,199.981 C56.143,200.191 57.193,200.611 57.858,201.102 C57.893,200.156 57.964,199.071 57.999,197.882 L52.048,197.882 L52.048,198.722 C52.048,199.002 50.858,199.912 48.863,199.912 L48.163,199.912 L48.163,180.8 L52.503,182.444 L57.369,182.444 L59.364,179.855 L63.039,182.515 C62.794,182.935 62.305,183.005 61.43,183.005 L57.193,183.005 L57.193,187.311 L57.369,187.311 L59.014,185.035 L62.059,187.38 C61.849,187.801 61.324,187.87 60.484,187.87 L57.193,187.87 L57.193,192.281 L57.369,192.281 L59.014,190.006 L62.059,192.351 C61.849,192.77 61.324,192.841 60.484,192.841 L57.193,192.841 L57.193,197.321 L57.648,197.321 L57.648,197.321 Z M50.438,201.452 C52.398,203.202 53.063,204.917 53.063,206.247 C53.063,207.718 52.223,208.697 51.383,208.697 C50.998,208.697 50.578,208.452 50.263,207.963 C50.438,207.193 50.508,206.317 50.508,205.442 C50.508,204.042 50.298,202.606 49.948,201.592 L50.438,201.452 L50.438,201.452 Z M52.048,187.311 L53.344,187.311 L53.344,183.005 L52.048,183.005 L52.048,187.311 Z M52.048,192.281 L53.344,192.281 L53.344,187.87 L52.048,187.87 L52.048,192.281 Z M52.048,197.321 L53.344,197.321 L53.344,192.84 L52.048,192.84 L52.048,197.321 Z M52.573,200.717 C55.233,202.222 56.108,203.902 56.108,205.162 C56.108,206.212 55.478,206.947 54.743,206.947 C54.394,206.947 54.009,206.772 53.693,206.388 C53.764,204.672 53.063,202.327 52.188,200.927 L52.573,200.717 L52.573,200.717 Z M78.126,203.902 L78.161,207.718 C79.736,208.418 79.911,208.628 79.911,209.258 C79.911,211.043 78.721,211.848 74.485,211.848 L69.025,211.848 C64.545,211.848 63.529,210.692 63.529,206.492 L63.529,194.031 L61.149,195.081 L60.765,194.661 L63.529,193.436 L63.529,183.845 L69.025,184.335 L69.025,179.715 L74.52,180.204 C74.485,180.694 74.206,180.975 73.155,181.114 L73.155,189.165 L73.961,188.815 L75.501,186.085 L79.736,188.5 C79.526,188.886 79.071,189.2 78.406,189.376 L78.406,199.561 C78.406,202.047 77.706,203.797 73.961,203.972 C73.961,202.222 73.926,201.276 73.785,200.892 C73.716,200.682 73.506,200.472 73.155,200.297 L73.155,203.483 C73.155,203.552 72.49,204.742 69.025,204.742 L69.025,191.581 L67.729,192.176 L67.729,206.598 C67.729,207.928 67.905,208.067 69.06,208.067 L74.485,208.067 C75.115,208.067 75.605,208.032 76.025,207.612 C76.446,207.157 77.111,205.723 77.846,203.902 L78.126,203.902 L78.126,203.902 Z M69.025,184.615 C68.885,184.93 68.57,185.105 67.729,185.21 L67.729,191.581 L69.025,190.985 L69.025,184.615 L69.025,184.615 Z M74.381,189.2 L73.155,189.761 L73.155,199.807 C74.24,199.807 74.381,199.807 74.381,199.387 L74.381,189.2 L74.381,189.2 Z" id="Fill-22" sketch:type="MSShapeGroup"></path>
            </g>
        </g>
    </g>
</svg>