<?xml version="1.0" encoding="UTF-8" standalone="no"?>
<svg width="544px" height="272px" viewBox="0 0 544 272" version="1.1" xmlns="http://www.w3.org/2000/svg" xmlns:xlink="http://www.w3.org/1999/xlink" xmlns:sketch="http://www.bohemiancoding.com/sketch/ns">
    <!-- Generator: Sketch 3.2.2 (9983) - http://www.bohemiancoding.com/sketch -->
    <title>秋文字</title>
    <desc>Created with Sketch.</desc>
    <defs></defs>
    <g id="Page-1" stroke="none" stroke-width="1" fill="none" fill-rule="evenodd" sketch:type="MSPage">
        <g id="秋文字" sketch:type="MSArtboardGroup">
            <g id="Imported-Layers" sketch:type="MSLayerGroup">
                <path d="M37.624,40.937 L37.624,55.932 C52.619,59.978 57.617,66.761 57.617,72.116 C57.617,77.114 53.452,81.041 49.049,81.041 C46.788,81.041 44.288,79.97 42.385,77.471 C42.86,71.045 40.956,63.191 37.624,57.954 L37.624,108.412 C37.505,109.364 32.27,113.053 24.058,113.053 L20.964,113.053 L20.964,74.853 C15.608,81.874 9.302,88.3 2.042,93.894 L0.614,92.347 C9.896,78.661 16.204,58.787 19.298,40.937 L1.567,40.937 L1.091,39.033 L20.964,39.033 L20.964,21.302 C14.181,22.372 7.278,23.324 0.853,24.157 L0.614,22.968 C13.586,16.541 31.556,6.307 40.361,0 L58.926,15.827 C57.974,16.66 56.665,17.018 54.999,17.018 C53.571,17.018 51.904,16.779 50.001,16.185 C46.431,16.898 42.266,17.731 37.624,18.564 L37.624,39.033 L39.172,39.033 L46.193,28.68 L57.022,37.604 C58.45,34.392 59.164,30.702 58.807,27.014 L60.235,27.014 C63.924,34.63 65.59,41.056 65.59,46.411 C65.59,52.6 62.972,60.811 54.522,60.811 C49.882,60.811 46.312,57.954 46.312,53.551 C46.312,50.219 48.572,47.125 51.548,45.34 C52.856,44.269 54.166,42.722 55.356,40.818 C54.761,40.937 54.047,40.937 53.333,40.937 L37.624,40.937 L37.624,40.937 Z M92.009,57.24 C93.199,48.315 94.627,35.939 95.698,25.467 L116.167,30.702 C115.81,32.25 114.619,33.202 111.406,33.44 C106.17,43.793 99.744,54.385 93.199,62.001 C97.483,75.924 104.385,85.087 115.334,91.275 L115.215,92.703 C107.241,94.965 101.886,103.176 100.22,113.41 C90.462,102.938 87.13,80.922 85.82,48.315 L85.702,48.315 C83.202,77.352 74.516,98.653 41.671,113.291 L40.481,111.625 C67.97,90.204 70.351,63.191 70.351,25.586 C70.351,17.731 70.231,9.401 70.231,0.595 L91.652,2.261 C91.533,4.046 90.581,4.998 86.772,5.474 C87.368,27.37 88.677,44.269 91.89,57.24 L92.009,57.24 L92.009,57.24 Z" id="Fill-1" fill="#FFFFFF" sketch:type="MSShapeGroup"></path>
                <path d="M115.105,49.699 L111.381,54.524 C110.052,56.272 109.025,57.868 109.025,58.552 C109.025,59.236 109.481,59.729 110.583,59.729 L111.533,59.729 C111.724,59.729 111.837,59.806 111.799,60.109 L111.686,60.907 C111.648,61.098 111.571,61.212 111.268,61.212 C110.888,61.212 109.254,61.098 105.91,61.098 C103.023,61.098 101.693,61.212 101.274,61.212 C101.047,61.212 100.933,61.136 100.971,60.87 L101.123,60.034 C101.161,59.806 101.236,59.729 101.389,59.729 L101.997,59.729 C103.137,59.729 105.112,58.704 106.442,57.108 L124.3,36.022 C124.527,35.756 124.68,35.68 125.173,35.68 C125.705,35.68 126.694,35.565 128.099,35.375 C129.049,35.262 129.581,35.071 129.885,35.071 C130.189,35.071 130.341,35.186 130.265,35.451 L124.604,56.538 C124.413,57.185 124.186,58.134 124.186,58.666 C124.186,59.274 124.793,59.729 125.553,59.729 L126.352,59.729 C126.579,59.729 126.694,59.844 126.655,59.996 L126.541,60.87 C126.503,61.06 126.427,61.212 126.085,61.212 C125.629,61.212 124.11,61.098 120.842,61.098 C117.612,61.098 116.435,61.212 115.826,61.212 C115.485,61.212 115.409,61.06 115.446,60.832 L115.599,60.034 C115.637,59.844 115.751,59.729 115.902,59.729 L116.662,59.729 C117.841,59.729 118.639,59.464 119.437,56.69 L121.45,49.699 L115.105,49.699 L115.105,49.699 Z M121.868,48.331 L124.68,38.871 C124.831,38.339 124.224,38.188 123.92,38.567 L116.131,48.331 L121.868,48.331 L121.868,48.331 Z" id="Fill-2" fill="#FFFFFF" sketch:type="MSShapeGroup"></path>
                <path d="M148.392,45.254 C148.733,45.254 148.885,45.444 148.772,45.748 L146.111,53.879 C145.124,56.88 144.744,58.248 144.744,58.552 C144.782,58.894 145.01,59.008 145.237,59.008 C145.732,59.008 146.606,57.868 147.289,56.994 C147.403,56.843 147.556,56.843 147.669,56.956 L148.087,57.26 C148.201,57.336 148.163,57.488 148.087,57.678 C147.556,58.704 145.466,61.478 141.895,61.478 C140.906,61.478 140.299,60.983 140.299,60.186 C140.299,59.502 141.742,55.513 142.16,54.411 L141.742,54.183 C140.374,56.311 137.069,61.478 133.27,61.478 C132.281,61.478 131.218,60.262 131.294,59.616 C131.294,57.982 132.016,56.311 133.573,52.549 C134.6,50.041 135.094,48.369 135.094,47.876 C135.094,47.496 134.827,47.23 134.447,47.23 C133.915,47.23 132.737,48.142 131.863,49.205 C131.75,49.357 131.56,49.357 131.445,49.243 L131.066,48.863 C130.99,48.749 130.952,48.674 131.066,48.522 C131.863,47.496 133.84,44.874 137.563,44.874 C138.817,44.874 139.539,45.71 139.539,46.66 C139.539,47.496 139.007,49.434 137.487,53.157 C136.537,55.475 135.892,57.185 135.892,57.868 C135.892,58.286 136.234,58.552 136.537,58.552 C137.183,58.552 140.641,54.411 141.59,52.853 C142.236,51.751 142.692,50.763 143.224,49.167 L144.439,45.52 C144.516,45.292 144.706,45.254 145.01,45.254 L148.392,45.254" id="Fill-3" fill="#FFFFFF" sketch:type="MSShapeGroup"></path>
                <path d="M159.488,46.014 L163.326,46.014 C163.516,46.014 163.592,46.128 163.516,46.355 L163.25,47.344 C163.174,47.571 163.022,47.686 162.756,47.686 L158.919,47.686 L155.803,56.044 C155.613,56.652 155.272,57.603 155.272,58.058 C155.272,58.439 155.575,58.78 156.108,58.78 C156.829,58.78 159.109,57.185 159.337,56.918 C159.45,56.767 159.565,56.805 159.679,56.918 L160.097,57.374 C160.21,57.488 160.248,57.564 160.21,57.678 C159.717,58.324 156.487,61.478 152.611,61.478 C151.281,61.478 150.636,60.68 150.636,60.109 C150.636,59.35 150.75,58.514 151.054,57.754 L154.511,47.686 L151.548,47.686 C151.319,47.686 151.244,47.496 151.319,47.268 L151.548,46.28 C151.624,46.09 151.737,46.014 151.966,46.014 L155.119,46.014 L156.373,41.91 C156.525,41.53 156.677,41.417 157.665,41.379 C158.652,41.303 160.666,40.353 161.008,40.125 C161.198,40.011 161.426,39.897 161.616,39.897 C161.882,39.897 162.034,40.314 161.92,40.581 L159.488,46.014" id="Fill-4" fill="#FFFFFF" sketch:type="MSShapeGroup"></path>
                <path d="M180.957,45.254 C181.299,45.254 181.45,45.444 181.337,45.748 L178.677,53.879 C177.69,56.88 177.31,58.248 177.31,58.552 C177.348,58.894 177.575,59.008 177.803,59.008 C178.297,59.008 179.171,57.868 179.854,56.994 C179.969,56.843 180.121,56.843 180.234,56.956 L180.652,57.26 C180.767,57.336 180.729,57.488 180.652,57.678 C180.121,58.704 178.031,61.478 174.46,61.478 C173.472,61.478 172.864,60.983 172.864,60.186 C172.864,59.502 174.308,55.513 174.726,54.411 L174.308,54.183 C172.939,56.311 169.635,61.478 165.835,61.478 C164.847,61.478 163.783,60.262 163.86,59.616 C163.86,57.982 164.581,56.311 166.139,52.549 C167.165,50.041 167.658,48.369 167.658,47.876 C167.658,47.496 167.393,47.23 167.013,47.23 C166.481,47.23 165.303,48.142 164.429,49.205 C164.315,49.357 164.125,49.357 164.012,49.243 L163.631,48.863 C163.556,48.749 163.518,48.674 163.631,48.522 C164.429,47.496 166.405,44.874 170.128,44.874 C171.382,44.874 172.105,45.71 172.105,46.66 C172.105,47.496 171.572,49.434 170.053,53.157 C169.103,55.475 168.457,57.185 168.457,57.868 C168.457,58.286 168.799,58.552 169.103,58.552 C169.748,58.552 173.206,54.411 174.155,52.853 C174.802,51.751 175.258,50.763 175.789,49.167 L177.005,45.52 C177.081,45.292 177.272,45.254 177.575,45.254 L180.957,45.254" id="Fill-5" fill="#FFFFFF" sketch:type="MSShapeGroup"></path>
                <path d="M183.505,61.098 C183.201,61.098 183.049,60.907 183.163,60.604 L185.633,53.423 C186.431,51.067 187.419,48.56 187.381,47.989 C187.381,47.724 187.305,47.458 186.925,47.458 C186.431,47.458 184.645,49.357 184.341,49.814 C184.227,49.965 184.075,49.965 183.923,49.814 L183.505,49.434 C183.392,49.319 183.354,49.205 183.429,49.092 C183.999,48.18 186.735,44.874 189.774,44.874 C191.408,44.874 191.903,45.444 191.903,46.355 C191.903,47.496 189.851,51.789 189.546,52.587 L189.926,52.853 C191.484,50.231 194.409,44.874 198.019,44.874 C199.272,44.874 200.413,45.824 200.413,46.735 C200.413,47.876 198.931,51.562 198.475,52.739 L198.817,53.005 C200.868,49.928 203.528,44.874 207.252,44.874 C208.848,44.874 209.569,46.28 209.569,47.002 C209.569,48.256 208.543,51.181 207.594,53.879 C206.834,56.044 206.149,57.716 206.149,58.248 C206.188,58.552 206.34,58.78 206.606,58.78 C207.518,58.78 209.113,56.387 209.304,56.082 C209.417,55.893 209.531,55.893 209.607,55.931 L210.14,56.311 C210.291,56.425 210.291,56.538 210.177,56.805 C210.064,57.07 207.442,61.478 203.262,61.478 C202.009,61.478 201.553,60.718 201.515,60.109 C201.477,59.388 202.16,57.26 203.566,53.575 C204.744,50.459 205.086,49.396 205.086,48.712 C205.086,48.294 204.859,47.989 204.402,47.989 C203.794,47.989 201.173,51.181 198.741,54.828 C198.475,55.246 197.905,56.196 197.449,57.526 L196.271,60.87 C196.195,61.06 196.043,61.098 195.739,61.098 L192.51,61.098 C192.168,61.098 192.016,60.945 192.13,60.604 L194.409,54.297 C195.36,51.675 196.157,49.357 196.157,48.749 C196.157,48.331 196.043,47.989 195.512,47.989 C194.865,47.989 192.244,51.029 190.078,54.335 C189.584,55.057 189.015,56.12 188.483,57.488 L187.229,60.832 C187.152,61.06 186.963,61.098 186.696,61.098 L183.505,61.098" id="Fill-6" fill="#FFFFFF" sketch:type="MSShapeGroup"></path>
                <path d="M212.461,61.098 C212.194,61.098 212.043,60.907 212.119,60.68 L214.74,53.385 C215.614,50.991 216.45,48.483 216.45,48.027 C216.45,47.647 216.26,47.42 215.956,47.42 C215.387,47.42 213.904,48.901 213.41,49.472 C213.297,49.585 213.145,49.623 213.03,49.51 L212.651,49.092 C212.499,48.978 212.499,48.863 212.612,48.712 C213.183,47.951 215.576,44.874 219.527,44.874 C220.668,44.874 221.048,45.748 221.048,46.355 C221.048,46.888 220.25,48.939 219.224,51.295 L219.566,51.562 C220.705,49.89 223.86,44.874 227.62,44.874 C229.254,44.874 230.052,46.355 230.052,47.42 C230.052,48.256 229.521,49.852 227.849,54.524 C226.937,57.108 226.633,57.944 226.633,58.4 C226.633,58.856 226.822,59.046 227.127,59.046 C227.582,59.046 228.836,57.868 229.216,57.412 C229.33,57.26 229.482,57.298 229.597,57.412 L229.939,57.716 C230.09,57.83 230.09,58.021 229.977,58.172 C229.521,58.78 227.202,61.478 223.593,61.478 C222.453,61.478 222.073,60.794 222.073,60.034 C222.073,59.35 222.871,57.07 224.049,53.727 C224.657,51.98 225.568,49.434 225.568,48.749 C225.568,48.142 225.265,47.914 224.809,47.914 C223.936,47.914 221.123,50.953 219.604,53.423 C218.768,54.753 217.97,55.969 217.742,56.614 L216.26,60.87 C216.185,61.021 216.109,61.098 215.69,61.098 L212.461,61.098" id="Fill-7" fill="#FFFFFF" sketch:type="MSShapeGroup"></path>
                <path d="M186.507,133.353 C186.507,131.156 186.075,130.761 184.779,130.328 L184.167,130.112 C183.951,130.041 183.915,130.005 183.915,129.897 L183.915,129.572 C183.915,129.429 184.024,129.393 184.348,129.213 L188.091,127.233 C188.379,127.089 188.631,126.945 188.919,126.945 C189.135,126.945 189.278,127.233 189.207,127.845 C189.135,128.457 189.099,135.764 189.099,137.564 L189.099,139.867 L189.278,139.867 C190.538,138.355 192.626,137.527 194.21,137.527 C195.722,137.527 196.766,137.996 197.774,138.968 C199.394,140.48 199.321,142.316 199.321,144.259 L199.321,146.311 C199.321,148.326 199.394,150.558 199.394,151.242 C199.394,151.674 199.97,151.782 200.726,151.782 L201.337,151.782 C201.625,151.782 201.733,151.854 201.733,152.105 L201.733,152.646 C201.733,152.934 201.661,153.078 201.445,153.078 C201.193,153.078 200.041,152.97 197.989,152.97 C196.226,152.97 194.93,153.078 194.606,153.078 C194.355,153.078 194.282,152.97 194.282,152.682 L194.282,152.07 C194.282,151.89 194.318,151.782 194.534,151.782 L195.362,151.782 C195.974,151.782 196.693,151.71 196.729,151.098 C196.766,150.594 196.729,148.687 196.729,147.534 L196.729,144.619 C196.729,142.604 196.586,141.163 195.542,140.191 C194.822,139.508 194.066,139.184 193.166,139.184 C192.122,139.184 190.826,139.543 189.818,140.695 C189.495,141.091 189.099,141.812 189.099,142.459 L189.099,150.306 C189.099,151.458 189.207,151.782 189.891,151.782 L190.971,151.782 C191.223,151.782 191.366,151.854 191.366,152.07 L191.366,152.682 C191.366,152.934 191.295,153.078 191.078,153.078 C190.79,153.078 189.315,152.97 187.659,152.97 C185.859,152.97 184.491,153.078 184.167,153.078 C184.024,153.078 183.915,152.97 183.915,152.718 L183.915,152.07 C183.915,151.818 184.06,151.782 184.455,151.782 L185.211,151.782 C185.787,151.782 186.327,151.638 186.399,151.206 C186.507,150.522 186.507,146.562 186.507,144.223 L186.507,133.353" id="Fill-8" fill="#FFFFFF" sketch:type="MSShapeGroup"></path>
                <path d="M205.622,150.918 C203.967,148.938 203.643,147.607 203.643,145.051 C203.643,143.215 204.614,140.911 206.738,139.256 C208.61,137.816 210.374,137.527 211.562,137.527 C213.541,137.527 215.522,138.535 216.601,139.615 C218.221,141.271 219.049,143.143 219.049,145.482 C219.049,149.406 215.522,153.401 211.094,153.401 C209.366,153.401 207.134,152.718 205.622,150.918 L205.622,150.918 Z M216.026,145.123 C216.026,141.127 213.109,138.607 211.274,138.607 C210.302,138.607 209.366,138.823 208.502,139.76 C207.099,141.199 206.595,142.675 206.595,145.411 C206.595,147.427 206.811,148.794 207.962,150.45 C208.79,151.638 209.834,152.322 211.526,152.322 C214.262,152.322 216.026,148.975 216.026,145.123 L216.026,145.123 Z" id="Fill-9" fill="#FFFFFF" sketch:type="MSShapeGroup"></path>
                <path d="M223.514,142.783 C223.514,141.919 223.262,141.415 222.219,140.839 L221.391,140.371 C221.139,140.264 221.139,140.155 221.139,140.047 L221.139,139.76 C221.139,139.651 221.21,139.579 221.391,139.508 L224.846,137.779 C225.134,137.636 225.422,137.491 225.674,137.491 C225.854,137.491 225.926,137.672 225.926,138.212 L226.07,139.94 L226.178,139.94 C227.149,138.68 229.022,137.527 231.434,137.527 C233.269,137.527 234.493,138.319 235.537,139.291 C236.904,140.659 237.48,142.135 237.48,144.906 C237.48,149.622 234.205,153.401 229.705,153.401 C228.733,153.401 227.222,153.258 226.106,152.79 L226.106,160.385 C226.106,161.393 226.358,161.572 226.898,161.572 L228.481,161.572 C228.77,161.572 228.806,161.717 228.806,161.933 L228.806,162.545 C228.806,162.761 228.733,162.868 228.481,162.868 C228.302,162.868 227.078,162.761 224.775,162.761 C222.686,162.761 221.427,162.868 221.139,162.868 C220.887,162.868 220.815,162.761 220.815,162.545 L220.815,161.896 C220.815,161.717 220.887,161.572 221.246,161.572 L222.65,161.572 C223.262,161.572 223.334,161.213 223.406,160.673 C223.514,159.881 223.514,157.938 223.514,154.409 L223.514,142.783 L223.514,142.783 Z M226.106,149.37 C226.106,150.162 226.178,150.81 226.861,151.278 C227.869,151.998 228.985,152.25 230.461,152.25 C232.513,152.25 234.637,150.702 234.637,146.238 C234.637,141.199 232.369,139.184 229.957,139.184 C228.445,139.184 226.97,140.047 226.106,141.487 L226.106,149.37 L226.106,149.37 Z" id="Fill-10" fill="#FFFFFF" sketch:type="MSShapeGroup"></path>
                <path d="M346.733,214.657 L350.296,217.249 C350.008,217.717 349.611,217.933 348.567,217.933 L334.781,217.933 L334.781,223.225 C334.781,225.42 334.241,226.932 330.067,227.328 C330.067,225.061 328.41,224.7 325.423,224.484 L325.423,223.981 L330.93,223.981 C331.578,223.981 331.758,223.765 331.758,223.261 L331.758,217.933 L316.712,217.933 L316.46,217.142 L331.758,217.142 L331.758,214.621 L334.565,214.802 C336.797,213.974 339.677,212.642 341.62,211.49 L319.915,211.49 L319.663,210.698 L342.412,210.698 L344.248,209.042 L347.236,211.85 C346.912,212.102 346.48,212.174 345.653,212.21 C343.349,213.218 339.425,214.334 336.15,215.054 C336.077,215.413 335.789,215.594 334.781,215.737 L334.781,217.142 L344.824,217.142 L346.733,214.657 L346.733,214.657 Z M317.036,199.216 L316.819,198.388 L331.758,198.388 L331.758,193.708 L336.401,194.14 C336.365,194.68 335.97,194.932 334.781,195.076 L334.781,198.388 L344.5,198.388 L346.408,195.832 L349.972,198.495 C349.684,198.964 349.288,199.216 348.244,199.216 L317.036,199.216 L317.036,199.216 Z M343.889,208.143 C343.853,208.358 342.341,208.935 341.404,208.935 L340.937,208.935 L340.937,207.639 L325.782,207.639 L325.782,208.322 C325.782,208.358 325.315,209.33 322.831,209.33 L322.831,200.619 L325.999,201.951 L340.577,201.951 L341.837,200.295 L345.401,202.779 C345.185,203.067 344.608,203.391 343.889,203.535 L343.889,208.143 L343.889,208.143 Z M325.782,206.847 L340.936,206.847 L340.936,202.744 L325.782,202.744 L325.782,206.847 Z" id="Fill-11" fill="#FFFFFF" sketch:type="MSShapeGroup"></path>
                <path d="M376.497,198.172 L380.097,200.871 C379.845,201.159 379.27,201.483 378.514,201.627 L378.514,225.924 C378.514,225.996 377.649,226.932 375.525,226.932 L375.525,224.736 L358.248,224.736 L358.248,226.068 C358.248,226.14 357.96,227.22 355.332,227.22 L355.332,198.567 L358.5,200.008 L363.683,200.008 C364.188,198.1 364.691,195.472 364.907,193.601 L369.838,194.68 C369.731,195.076 369.37,195.256 368.507,195.256 C367.57,196.66 366.131,198.531 364.619,200.008 L375.13,200.008 L376.497,198.172 L376.497,198.172 Z M358.248,207.782 L375.525,207.782 L375.525,200.799 L358.248,200.799 L358.248,207.782 Z M358.248,215.773 L375.525,215.773 L375.525,208.61 L358.248,208.61 L358.248,215.773 Z M358.248,223.908 L375.525,223.908 L375.525,216.565 L358.248,216.565 L358.248,223.908 Z" id="Fill-12" fill="#FFFFFF" sketch:type="MSShapeGroup"></path>
                <path d="M417.201,202.599 C416.913,203.139 416.482,203.319 415.474,203.319 L407.843,203.319 C409.246,209.33 412.738,213.47 417.346,215.737 L417.31,216.098 C416.121,216.277 415.186,217.142 414.718,218.509 C410.506,215.306 408.238,210.59 407.194,203.606 L407.158,203.606 C406.223,209.223 403.523,214.117 395.244,217.753 L394.813,217.177 C401.436,213.361 403.703,208.683 404.459,203.319 L398.628,203.319 C396.576,209.87 392.689,215.485 384.77,218.869 L384.518,218.293 C391.86,214.117 395.244,207.278 396.612,199.432 L391.069,199.432 C390.673,200.26 390.276,201.087 389.845,201.843 C393.553,202.095 394.776,203.535 394.776,204.615 C394.776,205.335 394.272,205.875 393.588,205.875 C393.336,205.875 393.013,205.803 392.725,205.587 C392.185,204.471 390.78,203.175 389.484,202.419 C388.729,203.679 387.937,204.831 387.037,205.839 C390.853,206.523 392.076,208.179 392.076,209.366 C392.076,210.158 391.536,210.77 390.853,210.77 C390.528,210.77 390.205,210.662 389.881,210.374 C389.449,208.935 388.009,207.278 386.642,206.307 C385.85,207.135 385.022,207.891 384.157,208.538 L383.653,208.179 C386.318,205.119 388.657,199.575 389.809,193.636 L393.948,194.788 C393.805,195.22 393.48,195.436 392.58,195.436 C392.221,196.552 391.824,197.632 391.393,198.64 L396.396,198.64 L398.016,196.983 L400.896,199.575 C400.644,199.899 400.283,200.043 399.491,200.079 C399.311,200.907 399.096,201.735 398.88,202.527 L404.567,202.527 C404.891,199.827 404.891,196.947 404.891,193.96 L409.175,194.32 C409.103,194.752 408.887,195.004 407.771,195.147 C407.698,197.703 407.662,200.151 407.339,202.527 L412.054,202.527 L413.854,200.151 L417.201,202.599 L417.201,202.599 Z M390.133,218.401 C390.349,219.301 390.421,220.129 390.421,220.885 C390.421,224.844 387.865,227.22 385.633,227.22 C384.661,227.22 384.121,226.752 384.121,226.032 C384.121,225.384 384.625,224.809 385.274,224.448 C387.253,223.692 389.413,221.461 389.484,218.401 L390.133,218.401 L390.133,218.401 Z M394.848,218.725 C397.008,220.669 397.764,222.576 397.764,224.088 C397.764,225.78 396.756,226.932 395.784,226.932 C395.353,226.932 394.884,226.644 394.524,226.068 C394.776,225.096 394.92,224.017 394.92,222.9 C394.92,221.425 394.704,219.949 394.344,218.869 L394.848,218.725 L394.848,218.725 Z M401.255,218.545 C405.215,220.669 406.475,223.116 406.475,224.809 C406.475,226.105 405.755,226.968 404.927,226.968 C404.531,226.968 404.099,226.788 403.703,226.357 C403.631,223.944 402.299,220.705 400.86,218.797 L401.255,218.545 L401.255,218.545 Z M408.238,218.005 C414.646,220.236 416.625,223.404 416.625,225.384 C416.625,226.5 415.978,227.256 415.186,227.256 C414.825,227.256 414.43,227.112 414.034,226.788 C413.242,223.944 410.435,220.345 407.914,218.365 L408.238,218.005 L408.238,218.005 Z M410.651,194.68 C414.609,195.256 415.905,196.804 415.905,198.027 C415.905,198.856 415.258,199.539 414.502,199.539 C414.142,199.539 413.746,199.396 413.386,199.035 C413.025,197.632 411.731,195.939 410.435,195.004 L410.651,194.68 L410.651,194.68 Z" id="Fill-13" fill="#FFFFFF" sketch:type="MSShapeGroup"></path>
                <path d="M446.686,200.764 L449.746,203.606 C449.458,203.931 449.098,204.039 448.162,204.075 C443.734,210.374 436.499,216.709 428.149,220.849 C430.596,222.937 434.088,223.261 439.451,223.261 C442.475,223.261 449.746,223.261 452.913,223.188 L452.913,223.656 C451.833,223.872 451.293,224.844 451.222,226.032 L439.343,226.032 C432.108,226.032 428.4,224.772 425.809,218.941 C424.801,220.957 423.397,223.729 422.569,225.204 C422.749,225.42 422.821,225.636 422.821,225.853 C422.821,226.14 422.713,226.392 422.533,226.608 L419.617,223.872 C421.129,222.54 423.721,219.949 425.232,218.149 L425.917,215.27 L427.788,215.737 L426.097,218.329 C426.565,219.121 427.069,219.805 427.609,220.345 C434.376,216.062 441.035,209.475 444.67,203.354 L421.778,203.354 L421.526,202.563 L434.556,202.563 L434.556,193.888 L439.163,194.284 C439.127,194.86 438.732,195.112 437.543,195.256 L437.543,202.563 L444.706,202.563 L446.686,200.764" id="Fill-14" fill="#FFFFFF" sketch:type="MSShapeGroup"></path>
                <path d="M37.944,123.693 L39.961,125.157 C39.745,125.397 39.241,125.613 38.665,125.733 L38.665,141.503 C38.641,141.551 38.281,141.982 37.537,141.982 L37.537,140.255 L22.415,140.255 L22.415,141.815 C22.415,141.839 22.344,142.247 21.36,142.247 L21.36,123.982 L22.56,124.629 L27.408,124.629 C27.936,123.262 28.512,121.413 28.872,120.045 L30.96,120.741 C30.888,120.982 30.624,121.077 30.096,121.029 C29.569,122.085 28.776,123.501 28.008,124.629 L37.249,124.629 L37.944,123.693 L37.944,123.693 Z M22.415,131.974 L37.537,131.974 L37.537,125.254 L22.415,125.254 L22.415,131.974 Z M22.415,139.631 L37.537,139.631 L37.537,132.598 L22.415,132.598 L22.415,139.631 Z" id="Fill-15" fill="#F2F2F2" sketch:type="MSShapeGroup"></path>
                <path d="M29.4,153.333 L21.407,153.333 C21.407,154.773 20.567,155.733 19.583,155.733 C19.031,155.733 18.936,155.373 18.936,155.182 C18.936,154.894 19.175,154.629 19.463,154.461 C20.255,154.102 20.831,153.045 20.711,151.917 L21.167,151.893 C21.264,152.181 21.311,152.445 21.36,152.709 L29.4,152.709 L29.4,151.029 L21.36,151.029 L21.191,150.405 L36.072,150.405 L37.057,149.205 L38.953,150.477 C38.761,150.861 38.497,151.029 37.825,151.029 L30.48,151.029 L30.48,152.709 L39.073,152.709 L39.865,151.893 L41.354,153.357 C41.185,153.525 40.898,153.549 40.465,153.573 C40.105,154.173 39.433,155.014 38.929,155.493 L38.545,155.302 C38.737,154.869 39.001,154.029 39.192,153.333 L30.48,153.333 L30.48,158.277 C30.48,158.277 30.336,158.686 29.4,158.686 L29.4,153.333 L29.4,153.333 Z M24.695,165.67 L24.695,168.526 C26.088,168.286 27.624,168.047 29.16,167.782 L29.232,168.215 C27.12,168.767 24.239,169.511 20.304,170.398 C20.207,170.687 20.016,170.855 19.799,170.927 L18.936,169.366 C19.367,169.318 19.919,169.246 20.567,169.15 L20.567,164.758 L22.535,164.926 C22.512,165.238 22.271,165.334 21.648,165.431 L21.648,169.007 L23.615,168.694 L23.615,162.79 L21.648,162.79 L21.648,163.366 C21.648,163.39 21.455,163.702 20.567,163.702 L20.567,158.445 L21.768,159.022 L26.448,159.022 L27.023,158.302 L28.68,159.478 C28.536,159.646 28.152,159.838 27.744,159.91 L27.744,163.03 C27.72,163.102 27.36,163.486 26.664,163.486 L26.664,162.79 L24.695,162.79 L24.695,165.046 L26.592,165.046 L27.36,164.11 L28.872,165.143 C28.68,165.502 28.416,165.67 27.792,165.67 L24.695,165.67 L24.695,165.67 Z M21.648,162.166 L26.665,162.166 L26.665,159.646 L21.648,159.646 L21.648,162.166 Z M21.863,157.485 L21.695,156.861 L25.896,156.861 L26.567,156.094 L27.936,156.957 C27.744,157.317 27.504,157.485 26.88,157.485 L21.863,157.485 L21.863,157.485 Z M26.328,154.102 L27.696,154.965 C27.504,155.325 27.288,155.493 26.664,155.493 L22.199,155.493 L22.031,154.869 L25.68,154.869 L26.328,154.102 L26.328,154.102 Z M38.232,158.781 L39.577,160.054 C39.385,160.222 39.121,160.294 38.52,160.294 C37.776,161.397 36.817,162.406 35.665,163.294 C37.297,164.254 39.217,164.95 41.185,165.358 L41.161,165.622 C40.705,165.646 40.369,165.935 40.225,166.414 L39.793,166.271 C39.625,166.414 39.361,166.534 39.049,166.582 L39.049,170.398 C39.024,170.471 38.665,170.831 37.969,170.831 L37.969,169.895 L31.968,169.895 L31.968,170.639 C31.968,170.639 31.8,171.047 30.937,171.047 L30.937,165.887 C30.12,166.198 29.256,166.486 28.344,166.727 L28.176,166.271 C30.456,165.55 32.496,164.542 34.177,163.294 C33.288,162.55 32.544,161.71 31.944,160.773 C31.128,161.686 30.168,162.55 29.16,163.15 L28.848,162.838 C30.336,161.662 31.824,159.622 32.593,157.918 L34.32,158.47 C34.248,158.662 34.105,158.758 33.792,158.758 C33.696,158.758 33.601,158.758 33.48,158.733 C33.313,158.998 33.145,159.262 32.952,159.525 L37.393,159.525 L38.232,158.781 L38.232,158.781 Z M37.776,165.767 L37.921,165.574 C36.841,165.094 35.809,164.519 34.897,163.87 C33.96,164.494 32.929,165.046 31.776,165.55 L32.256,165.767 L37.776,165.767 L37.776,165.767 Z M31.968,169.271 L37.969,169.271 L37.969,166.391 L31.968,166.391 L31.968,169.271 Z M32.16,157.485 L31.992,156.861 L36.313,156.861 L37.009,156.046 L38.473,156.957 C38.281,157.317 38.041,157.485 37.417,157.485 L32.16,157.485 L32.16,157.485 Z M36.505,154.077 L37.921,154.965 C37.729,155.325 37.513,155.493 36.864,155.493 L32.232,155.493 L32.065,154.869 L35.809,154.869 L36.505,154.077 L36.505,154.077 Z M32.473,160.149 L32.305,160.366 C32.929,161.278 33.792,162.094 34.849,162.79 C35.809,161.998 36.625,161.109 37.249,160.149 L32.473,160.149 L32.473,160.149 Z" id="Fill-16" fill="#F2F2F2" sketch:type="MSShapeGroup"></path>
                <path d="M229.917,183.948 C228.262,181.969 227.938,180.637 227.938,178.081 C227.938,176.245 228.909,173.941 231.033,172.286 C232.905,170.846 234.669,170.558 235.856,170.558 C237.836,170.558 239.816,171.566 240.896,172.646 C242.516,174.302 243.344,176.173 243.344,178.513 C243.344,182.437 239.816,186.432 235.389,186.432 C233.661,186.432 231.429,185.748 229.917,183.948 L229.917,183.948 Z M240.32,178.153 C240.32,174.157 237.404,171.638 235.568,171.638 C234.597,171.638 233.661,171.854 232.797,172.79 C231.394,174.23 230.89,175.705 230.89,178.441 C230.89,180.457 231.105,181.824 232.257,183.481 C233.085,184.668 234.129,185.353 235.82,185.353 C238.557,185.353 240.32,182.005 240.32,178.153 L240.32,178.153 Z" id="Fill-17" fill="#FFFFFF" sketch:type="MSShapeGroup"></path>
                <path d="M248.457,172.682 L246.045,172.682 C245.865,172.682 245.758,172.502 245.793,172.286 L245.938,171.206 C245.974,170.99 246.081,170.954 246.369,170.954 L248.457,170.954 L248.457,170.306 C248.457,167.462 249.465,165.123 250.869,163.539 C252.776,161.451 254.756,160.695 256.7,160.695 C258.464,160.695 260.191,161.379 261.02,162.675 C262.892,160.623 264.907,159.976 266.778,159.976 C268.471,159.976 270.055,160.623 270.055,161.991 C270.055,162.854 269.118,163.539 268.542,163.539 C268.183,163.539 267.822,163.467 267.534,163.323 C267.211,163.143 266.815,162.675 266.671,162.495 C266.203,161.919 265.699,161.667 265.015,161.667 C264.079,161.667 263.108,161.919 262.316,162.927 C260.983,164.619 261.056,167.75 261.056,170.27 L261.056,170.954 L265.411,170.954 C265.663,170.954 265.699,171.17 265.663,171.314 L265.482,172.502 C265.447,172.646 265.303,172.682 265.015,172.682 L261.056,172.682 L261.056,175.921 C261.056,180.169 261.056,183.481 261.092,183.876 C261.163,184.488 261.272,184.813 262.027,184.813 L264.079,184.813 C264.403,184.813 264.475,184.884 264.475,185.101 L264.475,185.676 C264.475,185.964 264.403,186.108 264.223,186.108 C264.007,186.108 262.675,186 259.724,186 C258.464,186 256.628,186.108 256.34,186.108 C256.124,186.108 256.052,186.036 256.052,185.857 L256.052,185.064 C256.052,184.884 256.124,184.813 256.412,184.813 L257.6,184.813 C258.284,184.813 258.428,184.38 258.464,183.553 L258.464,172.682 L251.049,172.682 L251.049,175.921 C251.049,180.169 251.049,183.481 251.085,183.876 C251.156,184.488 251.265,184.813 252.021,184.813 L252.992,184.813 C253.316,184.813 253.389,184.884 253.389,185.101 L253.389,185.676 C253.389,185.964 253.316,186.108 253.137,186.108 C252.921,186.108 251.589,186 249.896,186 C247.917,186 246.081,186.108 245.793,186.108 C245.577,186.108 245.505,186.036 245.505,185.857 L245.505,185.064 C245.505,184.884 245.577,184.813 245.865,184.813 L247.593,184.813 C248.277,184.813 248.421,184.38 248.457,183.553 L248.457,172.682 L248.457,172.682 Z M251.049,170.954 L258.464,170.954 L258.464,170.306 C258.464,167.498 259.075,165.446 259.939,164.259 L259.903,164.187 C258.788,164.331 257.636,163.683 257.132,163.035 C256.772,162.567 256.196,162.387 255.26,162.387 C254.181,162.387 253.137,162.639 252.309,163.647 C250.977,165.339 251.049,168.506 251.049,169.91 L251.049,170.954 L251.049,170.954 Z" id="Fill-18" fill="#FFFFFF" sketch:type="MSShapeGroup"></path>
                <path d="M541.992,244.855 C541.296,246.073 540.252,246.595 537.817,246.595 L505.711,246.595 C512.323,257.818 525.81,262.343 543.123,263.996 L543.036,264.953 C540.078,265.736 538.164,268.085 537.468,271.565 C520.066,267.737 509.452,261.212 503.797,246.595 L502.579,246.595 C499.446,258.08 491.007,266.084 462.382,271.652 L461.687,269.912 C483.698,263.735 491.529,256.514 494.574,246.595 L462.295,246.595 L461.774,244.681 L495.009,244.681 C495.879,241.026 496.228,237.111 496.401,232.674 L507.625,233.544 C507.538,234.588 506.842,235.284 504.319,235.632 C504.058,238.852 503.623,241.897 503.014,244.681 L528.768,244.681 L533.379,238.852 L541.992,244.855 L541.992,244.855 Z M462.469,230.064 L497.793,230.064 L497.793,219.362 L469.951,219.362 L469.43,217.448 L497.793,217.448 L497.793,206.921 L465.602,206.921 L465.079,205.006 L509.539,205.006 C511.889,200.656 514.498,194.652 516.064,190.303 L526.331,194.218 C525.896,194.826 525.287,195.175 524.069,195.175 C523.808,195.175 523.373,195.175 522.938,195.088 C520.241,198.133 515.978,201.961 511.976,205.006 L526.418,205.006 L530.856,199.351 L539.295,205.268 C538.687,206.398 537.642,206.921 535.206,206.921 L505.015,206.921 L505.015,217.448 L522.764,217.448 L527.027,212.054 L535.119,217.622 C534.423,218.927 533.379,219.362 530.942,219.362 L505.015,219.362 L505.015,230.064 L528.594,230.064 L533.118,224.321 L541.558,230.325 C540.861,231.456 539.817,231.978 537.381,231.978 L463.078,231.978 L462.469,230.064 L462.469,230.064 Z M479.523,190.477 C488.745,192.912 491.703,197.089 491.703,200.308 C491.703,202.831 489.789,204.832 487.701,204.832 C486.656,204.832 485.525,204.311 484.568,203.267 C484.308,199.264 481.697,194.044 478.826,191.173 L479.523,190.477 L479.523,190.477 Z" id="Fill-19" fill="#FFFFFF" sketch:type="MSShapeGroup"></path>
            </g>
        </g>
    </g>
</svg>