<?xml version="1.0" encoding="UTF-8" standalone="no"?>
<svg width="239px" height="359px" viewBox="0 0 239 359" version="1.1" xmlns="http://www.w3.org/2000/svg" xmlns:xlink="http://www.w3.org/1999/xlink" xmlns:sketch="http://www.bohemiancoding.com/sketch/ns">
    <!-- Generator: Sketch 3.2.2 (9983) - http://www.bohemiancoding.com/sketch -->
    <title>冬文字</title>
    <desc>Created with Sketch.</desc>
    <defs></defs>
    <g id="Page-1" stroke="none" stroke-width="1" fill="none" fill-rule="evenodd" sketch:type="MSPage">
        <g id="冬文字" sketch:type="MSArtboardGroup" fill="#FFFFFF">
            <g id="Imported-Layers" sketch:type="MSLayerGroup">
                <path d="M80.356,34.563 L96.541,49.795 C95.708,51.223 94.398,51.699 91.185,51.937 C85.83,60.267 79.285,67.407 71.551,73.596 C84.641,78.475 99.516,81.33 113.797,82.758 L113.558,84.306 C105.942,86.09 101.301,91.803 99.159,100.371 C83.927,96.324 70.36,90.613 59.293,82.045 C43.703,91.207 24.425,97.277 1.338,100.848 L0.981,99.656 C20.498,93.826 37.039,84.781 49.891,73.358 C45.013,68.002 40.967,61.815 37.515,54.555 C29.305,62.052 19.665,68.24 9.311,72.286 L8.598,71.453 C20.855,61.338 31.922,42.893 36.563,26.232 L60.363,30.992 C60.007,32.301 59.055,33.016 55.723,32.896 C53.343,36.823 50.605,40.631 47.512,44.32 L69.527,44.32 L80.356,34.563 L80.356,34.563 Z M23.353,116.317 C31.803,115.246 39.182,114.77 45.607,114.77 C74.644,114.77 84.521,124.41 84.521,131.669 C84.521,136.191 80.713,139.88 75.358,139.88 C74.287,139.88 73.098,139.762 71.907,139.404 C63.577,133.453 44.537,123.576 23.234,117.508 L23.353,116.317 L23.353,116.317 Z M37.873,93.23 C42.989,92.397 47.512,91.922 51.32,91.922 C67.028,91.922 72.74,98.348 72.74,104.061 C72.74,108.701 68.932,112.866 63.695,112.866 C62.387,112.866 61.078,112.51 59.65,112.033 C56.556,107.749 47.988,99.895 37.635,94.421 L37.873,93.23 L37.873,93.23 Z M45.846,46.225 C43.941,48.367 42.037,50.39 39.895,52.412 C44.299,58.125 50.011,62.766 56.556,66.574 C62.268,60.386 66.909,53.603 70.478,46.225 L45.846,46.225 L45.846,46.225 Z" id="Fill-1" sketch:type="MSShapeGroup"></path>
                <path d="M111.451,240.436 L111.451,247.615 C119.888,250.649 122.7,254.72 122.7,257.901 C122.7,260.936 120.184,263.229 117.519,263.229 C116.113,263.229 114.633,262.564 113.523,261.01 C113.819,257.235 113.005,252.573 111.451,249.243 L111.451,278.845 C111.451,279.659 107.306,281.583 103.458,281.583 L101.46,281.583 L101.46,260.048 C98.87,263.674 95.91,267.004 92.506,270.038 L91.617,269.076 C95.614,261.306 98.055,250.354 99.388,240.436 L91.84,240.436 L91.544,239.252 L101.46,239.252 L101.46,211.353 L114.337,212.536 C114.189,213.646 113.597,214.238 111.451,214.534 L111.451,239.252 L112.117,239.252 L116.335,233.258 L122.33,237.994 C125.068,230.741 127.14,221.121 127.88,211.5 L142.015,214.757 C141.719,215.719 141.053,216.311 139.055,216.459 C135.059,229.706 128.916,238.809 120.184,244.729 L119.369,244.211 C120.035,243.101 120.701,241.843 121.294,240.436 L111.451,240.436 L111.451,240.436 Z M92.802,216.755 C98.574,220.899 100.572,225.117 100.572,228.374 C100.572,232 98.13,234.442 95.687,234.442 C94.355,234.442 93.023,233.776 92.061,232.148 C92.653,229.928 92.876,227.411 92.876,224.896 C92.876,222.009 92.506,219.197 91.914,217.051 L92.802,216.755 L92.802,216.755 Z M125.882,219.641 C125.586,220.603 124.92,221.121 122.996,221.195 C120.109,225.783 116.631,231.038 113.597,234.59 L112.487,234.146 C113.079,229.779 113.893,222.527 114.559,216.606 L125.882,219.641 L125.882,219.641 Z M145.863,211.278 C148.38,220.751 156.52,228.743 163.402,232.074 L163.625,232.74 C159.851,235.404 156.224,239.03 155.114,242.879 L158.889,245.69 C158.37,246.283 157.408,246.875 155.854,247.097 C155.187,267.819 154.004,275.515 150.229,278.475 C147.491,280.621 145.049,281.509 139.943,281.509 C139.943,276.329 139.721,273.591 133.061,271.815 L133.061,271.001 C135.207,271.074 138.98,271.074 140.461,271.074 C141.497,271.074 142.015,271.074 142.607,270.557 C144.383,268.929 145.197,261.084 145.789,244.507 L140.387,244.507 C138.463,261.231 133.282,274.257 117.371,281.731 L117.001,280.917 C126.473,272.333 128.694,259.826 129.286,244.507 L124.475,244.507 L124.105,243.322 L144.975,243.322 L149.046,238.29 L153.264,241.473 C148.972,233.924 146.307,222.379 144.901,212.019 L145.863,211.278 L145.863,211.278 Z" id="Fill-2" sketch:type="MSShapeGroup"></path>
                <path d="M154.004,299.527 L162.736,307.741 C162.144,308.408 161.479,308.63 159.924,308.704 C157.26,311.146 152.82,314.402 149.342,316.252 L148.75,315.809 L148.972,314.402 L134.171,314.402 L133.801,313.218 L140.535,313.218 L144.309,308.63 L149.268,311.886 C149.489,309.814 149.712,307.52 149.785,305.743 L132.098,305.743 L132.098,326.243 C132.098,326.686 128.916,328.389 123.514,328.389 L121.59,328.389 L121.59,305.743 L104.272,305.743 C104.494,306.779 104.568,307.668 104.568,308.556 C104.568,310.406 104.124,311.96 103.458,313.218 L109.083,313.218 L112.783,308.777 L119.739,313.366 C119.222,314.254 118.111,314.402 116.409,314.402 L102.719,314.402 C102.274,314.994 100.721,316.771 97.538,316.771 C94.725,316.771 92.283,315.143 92.283,312.33 C92.283,309.962 94.208,308.26 96.353,307.445 C99.019,306.558 101.83,303.819 101.608,300.415 L102.57,300.341 C103.236,301.821 103.68,303.228 104.051,304.56 L121.59,304.56 L121.59,296.123 L99.314,296.123 L98.944,294.939 L141.349,294.939 L146.603,288.204 L156.298,295.087 C155.78,295.901 154.744,296.123 152.672,296.123 L132.098,296.123 L132.098,304.56 L149.046,304.56 L154.004,299.527 L154.004,299.527 Z M112.339,316.992 L119.813,322.32 C119.296,323.209 118.185,323.356 116.409,323.356 L100.572,323.356 L100.202,322.173 L108.343,322.173 L112.339,316.992 L112.339,316.992 Z M140.239,331.497 L144.161,326.317 L154.596,333.644 C154.152,334.235 153.264,334.976 151.71,335.272 L151.71,355.771 C151.71,355.845 148.972,358.583 140.978,358.583 L140.978,353.625 L101.904,353.625 L101.534,352.441 L140.978,352.441 L140.978,342.895 L105.013,342.895 L104.643,341.71 L140.978,341.71 L140.978,332.682 L103.828,332.682 L103.458,331.497 L140.239,331.497 L140.239,331.497 Z M146.603,317.067 L154.374,322.32 C153.855,323.209 152.746,323.356 150.97,323.356 L134.393,323.356 L134.022,322.173 L142.459,322.173 L146.603,317.067 L146.603,317.067 Z" id="Fill-3" sketch:type="MSShapeGroup"></path>
                <path d="M133.073,7.738 C132.882,8.099 132.617,8.291 131.922,8.291 L122.44,8.291 C123.329,12.971 125.825,18.107 133.242,21.636 L133.193,21.924 C132.546,21.947 132.09,22.044 131.874,22.692 C124.721,18.875 122.681,13.163 121.936,8.291 L121.793,8.291 C121.121,13.859 118.961,18.972 111.184,22.764 L110.872,22.308 C117.904,18.539 119.992,13.692 120.641,8.291 L110.968,8.291 L110.8,7.666 L120.688,7.666 C120.904,5.387 120.904,3.01 120.904,0.586 L123.161,0.778 C123.113,1.114 122.944,1.306 122.129,1.354 C122.081,3.49 122.057,5.603 121.864,7.666 L129.833,7.666 L130.937,6.25 L133.073,7.738" id="Fill-4" sketch:type="MSShapeGroup"></path>
                <path d="M131.346,32.89 L132.977,34.475 C132.81,34.666 132.521,34.69 132.065,34.714 C131.561,35.555 130.601,36.803 129.857,37.498 L129.497,37.307 C129.833,36.658 130.289,35.386 130.577,34.426 L122.369,34.426 L122.369,40.835 C122.369,40.835 122.224,41.243 121.289,41.243 L121.289,34.426 L113.704,34.426 C113.632,36.106 112.6,37.186 111.519,37.186 C111.088,37.186 110.872,36.971 110.872,36.658 C110.872,36.37 111.088,36.082 111.399,35.891 C112.336,35.483 113.152,34.282 113.055,32.914 L113.512,32.89 C113.584,33.202 113.656,33.514 113.68,33.802 L121.289,33.802 L121.289,31.45 L113.248,31.45 L113.08,30.826 L127.961,30.826 L128.945,29.626 L130.842,30.897 C130.649,31.282 130.386,31.45 129.714,31.45 L122.369,31.45 L122.369,33.802 L130.481,33.802 L131.346,32.89 L131.346,32.89 Z M128.441,42.515 L129.041,41.723 L130.817,42.995 C130.649,43.186 130.241,43.379 129.762,43.475 L129.762,51.06 C129.737,51.132 129.377,51.516 128.681,51.516 L128.681,50.052 L113.224,50.052 L113.032,49.428 L128.681,49.428 L128.681,46.523 L114.328,46.523 L114.136,45.899 L128.681,45.899 L128.681,43.139 L113.896,43.139 L113.704,42.515 L128.441,42.515 L128.441,42.515 Z M113.368,39.971 L113.2,39.347 L117.856,39.347 L118.553,38.555 L119.969,39.442 C119.776,39.803 119.536,39.971 118.912,39.971 L113.368,39.971 L113.368,39.971 Z M118.433,35.842 L119.824,36.731 C119.633,37.091 119.393,37.259 118.768,37.259 L114.16,37.259 L113.992,36.635 L117.736,36.635 L118.433,35.842 L118.433,35.842 Z M123.809,39.971 L123.641,39.347 L128.393,39.347 L129.138,38.507 L130.626,39.442 C130.433,39.803 130.193,39.971 129.569,39.971 L123.809,39.971 L123.809,39.971 Z M127.77,35.818 L129.209,36.731 C129.018,37.091 128.802,37.259 128.153,37.259 L123.833,37.259 L123.665,36.635 L127.073,36.635 L127.77,35.818 L127.77,35.818 Z" id="Fill-5" sketch:type="MSShapeGroup"></path>
                <path d="M9.773,237.77 C9.604,237.669 9.604,237.465 9.569,237.295 L8.991,234.065 C8.957,233.896 9.06,233.827 9.195,233.793 L9.637,233.691 C9.773,233.657 9.875,233.726 9.943,233.896 L10.793,235.561 C11.473,236.818 11.949,237.669 13.751,237.669 C14.94,237.669 16.436,236.955 16.436,235.356 C16.436,233.827 15.688,232.944 13.139,232.23 C11.133,231.651 9.127,230.598 9.127,227.912 C9.127,225.565 11.337,223.764 13.887,223.764 C15.518,223.764 16.402,224.172 17.014,224.478 C17.524,224.716 17.592,224.886 17.626,225.09 L18.136,227.47 C18.136,227.606 18.068,227.708 17.898,227.776 L17.49,227.912 C17.354,227.945 17.286,227.912 17.184,227.741 L16.028,226.178 C15.62,225.532 14.974,224.852 13.648,224.852 C12.356,224.852 11.031,225.634 11.031,227.096 C11.031,229.067 12.629,229.441 14.295,229.917 C16.776,230.632 18.34,231.651 18.374,234.269 C18.34,237.023 16.097,238.757 13.207,238.757 C11.541,238.757 10.181,238.077 9.773,237.77" id="Fill-6" sketch:type="MSShapeGroup"></path>
                <path d="M34.367,236.513 C34.367,237.057 34.673,237.227 35.115,237.227 L36.203,237.227 C36.509,237.227 36.577,237.329 36.577,237.532 L36.577,238.077 C36.577,238.314 36.509,238.45 36.305,238.45 C36.066,238.45 35.013,238.349 33.075,238.349 C31.341,238.349 30.253,238.45 30.015,238.45 C29.811,238.45 29.743,238.349 29.743,238.077 L29.743,237.532 C29.743,237.295 29.846,237.227 30.185,237.227 L31.171,237.227 C31.545,237.227 31.817,237.057 31.852,236.444 C31.885,235.561 31.919,234.473 31.919,233.589 L31.919,229.102 C31.919,227.741 31.919,226.756 30.934,226.042 C30.117,225.43 29.302,225.43 28.451,225.43 C27.907,225.43 26.718,225.668 25.698,226.756 C25.017,227.504 24.916,228.422 24.916,229.067 L24.916,236.105 C24.916,237.023 25.017,237.227 25.731,237.227 L26.582,237.227 C26.854,237.227 26.922,237.329 26.922,237.567 L26.922,238.145 C26.922,238.349 26.854,238.45 26.684,238.45 C26.445,238.45 25.528,238.349 23.726,238.349 C21.992,238.349 20.904,238.45 20.7,238.45 C20.53,238.45 20.462,238.349 20.462,238.145 L20.462,237.532 C20.462,237.329 20.53,237.227 20.803,237.227 L21.788,237.227 C22.23,237.227 22.468,237.125 22.468,236.547 L22.468,228.592 C22.468,227.571 21.924,226.994 21.074,226.586 L20.803,226.45 C20.564,226.348 20.53,226.246 20.53,226.144 L20.53,225.974 C20.53,225.804 20.666,225.702 20.836,225.634 L23.76,224.002 C24.032,223.866 24.236,223.764 24.372,223.764 C24.542,223.764 24.61,223.9 24.643,224.172 L24.882,226.246 L24.95,226.246 C25.935,225.023 27.907,223.764 29.607,223.764 C30.627,223.764 31.682,223.968 32.497,224.512 C33.517,225.193 34.367,226.892 34.367,227.741 L34.367,236.513" id="Fill-7" sketch:type="MSShapeGroup"></path>
                <path d="M39.587,236.411 C38.023,234.541 37.717,233.283 37.717,230.869 C37.717,229.136 38.635,226.96 40.641,225.395 C42.408,224.036 44.074,223.764 45.196,223.764 C47.066,223.764 48.935,224.716 49.956,225.736 C51.485,227.3 52.268,229.067 52.268,231.277 C52.268,234.984 48.935,238.757 44.754,238.757 C43.122,238.757 41.014,238.11 39.587,236.411 L39.587,236.411 Z M49.412,230.938 C49.412,227.164 46.658,224.784 44.924,224.784 C44.007,224.784 43.122,224.988 42.307,225.872 C40.98,227.232 40.505,228.626 40.505,231.209 C40.505,233.113 40.709,234.405 41.797,235.969 C42.578,237.091 43.564,237.736 45.162,237.736 C47.746,237.736 49.412,234.575 49.412,230.938 L49.412,230.938 Z" id="Fill-8" sketch:type="MSShapeGroup"></path>
                <path d="M69.635,234.643 L69.77,234.643 L72.524,227.13 C72.966,225.939 72.694,225.26 72.015,225.26 L71.538,225.26 C71.368,225.26 71.334,225.158 71.334,224.988 L71.334,224.274 C71.334,224.105 71.436,224.036 71.572,224.036 C71.776,224.036 72.796,224.138 74.19,224.138 C75.652,224.138 76.264,224.036 76.672,224.036 C76.842,224.036 76.91,224.138 76.91,224.274 L76.91,224.988 C76.91,225.158 76.842,225.26 76.672,225.26 L75.822,225.26 C75.414,225.26 74.937,225.532 74.734,225.838 C74.326,226.483 70.009,237.329 69.566,238.417 C69.431,238.791 69.192,238.858 68.921,238.858 C68.682,238.858 68.444,238.62 68.309,238.213 L64.976,228.489 L64.807,228.489 L60.625,238.314 C60.455,238.723 60.184,238.858 59.911,238.858 C59.64,238.858 59.47,238.587 59.334,238.179 L54.88,226.178 C54.641,225.532 54.267,225.26 53.452,225.26 L52.704,225.26 C52.5,225.26 52.466,225.158 52.466,224.954 L52.466,224.308 C52.466,224.138 52.5,224.036 52.67,224.036 C53.146,224.036 53.826,224.138 55.764,224.138 C57.294,224.138 58.109,224.036 58.619,224.036 C58.823,224.036 58.891,224.105 58.891,224.308 L58.891,224.988 C58.891,225.158 58.857,225.26 58.619,225.26 L58.313,225.26 C57.939,225.26 57.702,225.565 57.905,226.178 L60.592,235.221 L60.728,235.221 L64.195,226.892 C64.127,226.348 64.093,226.076 63.889,225.804 C63.719,225.565 63.447,225.464 62.971,225.464 L62.461,225.464 C62.291,225.464 62.224,225.395 62.224,225.226 L62.224,224.512 C62.224,224.308 62.325,224.24 62.529,224.24 C62.801,224.24 63.889,224.342 65.589,224.342 C67.152,224.342 67.9,224.24 68.173,224.24 C68.41,224.24 68.479,224.308 68.479,224.478 L68.479,225.193 C68.479,225.362 68.41,225.464 68.24,225.464 L67.526,225.464 C67.186,225.464 66.915,225.838 67.051,226.348 L69.635,234.643" id="Fill-9" sketch:type="MSShapeGroup"></path>
                <path d="M33.32,259.626 L30.975,259.626 C30.805,259.626 30.736,259.559 30.805,259.252 L30.94,258.233 C30.975,258.028 31.076,257.994 31.349,257.994 L33.32,257.994 L33.32,257.383 C33.32,254.017 34.272,251.807 35.598,250.312 C37.399,248.34 39.27,247.626 41.174,247.626 C42.771,247.626 44.268,248.237 44.268,249.529 C44.268,250.346 43.383,250.991 42.839,250.991 C42.499,250.991 42.159,250.923 41.888,250.787 C41.581,250.617 41.207,250.176 41.071,250.005 C40.63,249.461 40.153,249.224 39.508,249.224 C38.624,249.224 37.706,249.461 36.958,250.413 C35.7,252.011 35.768,254.969 35.768,257.349 L35.768,257.994 L39.882,257.994 C40.119,257.994 40.153,258.198 40.119,258.334 L39.949,259.456 C39.916,259.593 39.779,259.626 39.508,259.626 L35.768,259.626 L35.768,262.686 C35.768,266.697 35.768,269.825 35.802,270.199 C35.87,270.778 35.972,271.083 36.686,271.083 L38.624,271.083 C38.93,271.083 38.998,271.151 38.998,271.355 L38.998,271.899 C38.998,272.171 38.93,272.307 38.76,272.307 C38.556,272.307 37.298,272.205 34.68,272.205 C32.81,272.205 31.076,272.307 30.805,272.307 C30.6,272.307 30.532,272.239 30.532,272.069 L30.532,271.321 C30.532,271.151 30.6,271.083 30.872,271.083 L32.504,271.083 C33.15,271.083 33.286,270.675 33.32,269.894 L33.32,259.626" id="Fill-16" sketch:type="MSShapeGroup"></path>
                <path d="M51.302,268.159 C51.302,270.098 51.71,270.709 52.321,270.709 C52.865,270.709 53.342,270.438 53.512,270.199 C53.647,270.029 53.716,269.961 53.851,270.064 L54.191,270.335 C54.293,270.438 54.361,270.608 54.157,270.947 C53.886,271.457 53.239,272.613 51.506,272.613 C50.282,272.613 49.398,271.73 49.092,270.335 L49.024,270.335 C48.311,271.186 47.188,271.899 45.658,272.409 C45.013,272.613 44.4,272.613 43.652,272.613 C42.837,272.613 41.612,271.934 41.612,269.791 C41.612,268.228 42.326,266.867 45.013,265.678 C46.542,264.998 48.311,264.182 48.853,263.706 L48.853,261.53 C48.786,260.952 48.752,260.068 48.378,259.626 C48.004,259.185 47.324,258.879 46.338,258.879 C45.658,258.879 44.604,259.15 44.129,259.593 C43.652,260.034 43.959,260.544 43.959,261.156 C43.959,262.346 43.551,263.094 42.156,263.094 C41.612,263.094 41.341,262.788 41.341,262.006 C41.341,260.918 42.293,259.626 43.686,258.811 C45.114,257.961 46.305,257.62 47.834,257.62 C49.432,257.62 50.078,258.097 50.554,258.538 C51.267,259.252 51.302,260.034 51.302,260.952 L51.302,268.159 L51.302,268.159 Z M48.82,264.726 C47.596,265.644 44.265,266.323 44.265,269.146 C44.265,270.403 45.013,271.016 46.032,271.016 C47.018,271.016 48.82,269.825 48.82,268.907 L48.82,264.726 L48.82,264.726 Z" id="Fill-17" sketch:type="MSShapeGroup"></path>
                <path d="M60.822,262.074 C60.822,263.842 60.822,268.976 60.855,270.029 C60.889,270.608 61.025,271.083 61.739,271.083 L63.27,271.083 C63.575,271.083 63.643,271.186 63.643,271.389 L63.643,271.967 C63.643,272.171 63.575,272.307 63.439,272.307 C63.201,272.307 61.706,272.205 59.598,272.205 C57.422,272.205 56.063,272.307 55.756,272.307 C55.586,272.307 55.519,272.171 55.519,271.967 L55.519,271.389 C55.519,271.151 55.586,271.083 55.96,271.083 L57.592,271.083 C57.966,271.083 58.305,270.846 58.34,270.234 C58.374,269.18 58.374,263.332 58.374,261.36 L58.374,259.219 C58.374,256.805 58.34,253.711 58.272,252.827 C58.204,251.671 57.66,251.127 56.572,250.787 L55.893,250.549 C55.723,250.482 55.688,250.447 55.688,250.379 L55.688,250.107 C55.688,250.005 55.79,249.938 55.994,249.869 C57.184,249.325 58.714,248.714 59.972,247.898 C60.277,247.693 60.481,247.626 60.686,247.626 C60.924,247.626 60.992,247.796 60.958,248.237 C60.924,250.107 60.822,257.179 60.822,259.049 L60.822,262.074" id="Fill-18" sketch:type="MSShapeGroup"></path>
                <path d="M70.205,262.074 C70.205,263.842 70.205,268.976 70.239,270.029 C70.273,270.608 70.409,271.083 71.123,271.083 L72.653,271.083 C72.959,271.083 73.027,271.186 73.027,271.389 L73.027,271.967 C73.027,272.171 72.959,272.307 72.823,272.307 C72.585,272.307 71.09,272.205 68.981,272.205 C66.806,272.205 65.446,272.307 65.14,272.307 C64.97,272.307 64.902,272.171 64.902,271.967 L64.902,271.389 C64.902,271.151 64.97,271.083 65.344,271.083 L66.975,271.083 C67.35,271.083 67.689,270.846 67.724,270.234 C67.758,269.18 67.758,263.332 67.758,261.36 L67.758,259.219 C67.758,256.805 67.724,253.711 67.656,252.827 C67.588,251.671 67.044,251.127 65.956,250.787 L65.276,250.549 C65.106,250.482 65.072,250.447 65.072,250.379 L65.072,250.107 C65.072,250.005 65.174,249.938 65.378,249.869 C66.568,249.325 68.098,248.714 69.355,247.898 C69.662,247.693 69.865,247.626 70.069,247.626 C70.308,247.626 70.376,247.796 70.342,248.237 C70.308,250.107 70.205,257.179 70.205,259.049 L70.205,262.074" id="Fill-19" sketch:type="MSShapeGroup"></path>
                <path d="M196.42,301.41 L200.97,305.471 C200.725,305.891 200.375,306.031 199.465,306.101 C195.019,312.192 188.368,317.232 180.073,320.418 C182.663,322.098 186.408,322.378 192.499,322.378 C195.055,322.378 201.285,322.378 204.05,322.308 L204.05,322.693 C202.37,323.112 201.6,324.968 201.6,326.928 L192.394,326.928 C184.343,326.928 180.423,325.353 178.077,319.053 C177.167,321.117 175.803,324.198 174.962,325.738 C175.138,325.983 175.207,326.193 175.207,326.403 C175.207,326.718 175.067,326.963 174.857,327.173 L171.601,323.778 C173.141,322.588 175.837,320.173 177.378,318.527 L177.833,315.657 L179.933,316.148 L178.218,318.667 C178.638,319.228 179.093,319.683 179.618,320.068 C185.429,316.252 190.784,310.337 193.689,304.701 L173.632,304.701 L173.457,304.141 L184.693,304.141 L184.693,295.11 L191.274,295.74 C191.204,296.195 190.924,296.475 189.943,296.615 L189.943,304.141 L193.479,304.141 L196.42,301.41" id="Fill-20" sketch:type="MSShapeGroup"></path>
                <path d="M233.215,321.503 L238.501,325.318 C238.221,325.703 237.765,325.808 236.75,325.808 L205.387,325.808 L205.212,325.248 L217.918,325.248 L217.918,294.865 L224.674,295.53 C224.604,295.985 224.289,296.265 223.344,296.405 L223.344,308.341 L227.824,308.341 L230.659,304.631 L235.84,308.411 C235.56,308.796 235,308.901 234.055,308.901 L223.344,308.901 L223.344,325.248 L230.31,325.248 L233.215,321.503" id="Fill-21" sketch:type="MSShapeGroup"></path>
                <path d="M68.5569106,188.108696 L68.5569106,180.38587 C68.5569106,179.117747 68.5311656,177.989135 68.4796748,177 C69.6639626,177.050725 70.6937626,177.145833 71.5691057,177.285326 C72.4444488,177.42482 72.9722213,177.545289 73.152439,177.646739 C73.3326567,177.748189 73.4227642,177.874999 73.4227642,178.027174 C73.4227642,178.331523 73.1009517,178.610506 72.4573171,178.86413 L72.4573171,186.206522 L74.7357724,185.103261 C74.9932262,184.342388 75.2056225,183.803444 75.3729675,183.486413 C75.5403125,183.169382 75.7140912,183.01087 75.8943089,183.01087 C76.228999,183.01087 77.104329,183.480068 78.5203252,184.418478 C79.9363214,185.356889 80.6443089,185.959238 80.6443089,186.225543 C80.6443089,186.491849 80.1808989,186.86594 79.254065,187.347826 C79.2025743,189.909433 79.1253393,192.375894 79.0223577,194.747283 C78.9193762,197.118671 78.8099599,198.634055 78.6941057,199.293478 C78.5782515,199.952902 78.359419,200.504527 78.0376016,200.94837 C77.7157843,201.392212 77.2266293,201.766303 76.570122,202.070652 C75.9136146,202.375002 75.4051509,202.527174 75.0447154,202.527174 C74.5040623,202.527174 74.2208673,202.210148 74.195122,201.576087 C74.1693766,200.561589 73.5901141,199.775365 72.4573171,199.217391 L72.4573171,200.092391 C72.4573171,200.954714 72.4830621,201.867749 72.5345528,202.831522 L72.5731707,204.163043 C72.5731707,204.340581 72.5409895,204.46105 72.476626,204.524457 C72.4122626,204.587863 72.1483763,204.733695 71.6849593,204.961957 C71.2215424,205.190219 70.7903136,205.342391 70.3912602,205.418478 C69.9922067,205.494566 69.5931592,205.532609 69.1941057,205.532609 C68.7950522,205.532609 68.5697835,205.500906 68.5182927,205.4375 C68.4668019,205.374094 68.4410569,205.215581 68.4410569,204.961957 L68.4796748,203.13587 C68.5311656,201.89311 68.5569106,200.78986 68.5569106,199.826087 L68.5569106,189.668478 L66.1626016,190.809783 L66.1626016,204.086957 C66.1626016,205.228267 66.2655816,206.00181 66.4715447,206.407609 C66.6775078,206.813408 67.1859716,207.08605 67.9969512,207.225543 C68.8079309,207.365037 70.0501271,207.434783 71.7235772,207.434783 C73.3970273,207.434783 74.6327873,207.307972 75.4308943,207.054348 C76.2290013,206.800723 76.8597538,206.293482 77.3231707,205.532609 C77.7865877,204.771735 78.3272327,203.389503 78.945122,201.38587 C79.0995943,200.929346 79.2090105,200.701087 79.273374,200.701087 C79.3377374,200.701087 79.3699187,201.35416 79.3699187,202.660326 C79.3699187,203.966492 79.4664624,204.898548 79.6595528,205.456522 C79.8526432,206.014496 80.3224895,206.610504 81.0691057,207.244565 C81.4810319,207.574277 81.6869919,207.954708 81.6869919,208.38587 C81.6869919,209.197468 81.0755481,209.894925 79.8526423,210.478261 C78.6297364,211.061597 75.9329477,211.353261 71.7621951,211.353261 C68.5697672,211.353261 66.426496,211.207429 65.3323171,210.915761 C64.2381382,210.624093 63.4529157,210.059787 62.976626,209.222826 C62.5003364,208.385865 62.2621951,207.168486 62.2621951,205.570652 L62.2621951,192.711957 C61.6443059,193.067031 61.2066409,193.396738 60.949187,193.701087 L59.5203252,192.179348 C60.2154506,192.052536 60.8462031,191.849639 61.4126016,191.570652 L62.2621951,191.152174 L62.2621951,185.978261 C62.2621951,184.253615 62.2235776,182.833339 62.1463415,181.717391 C63.3563746,181.742754 64.3604296,181.793478 65.1585366,181.869565 C65.9566436,181.945653 66.4329261,182.021739 66.5873984,182.097826 C66.7418707,182.173913 66.8191057,182.300724 66.8191057,182.478261 C66.8191057,182.655798 66.6002732,182.871376 66.1626016,183.125 L66.1626016,189.25 L68.5569106,188.108696 Z M72.4573171,187.766304 L72.4573171,198.608696 C73.1781879,198.659421 73.7252691,198.564313 74.0985772,198.32337 C74.4718853,198.082426 74.6907178,197.708336 74.7550813,197.201087 C74.8194448,196.693838 74.8838073,195.273562 74.9481707,192.940217 C75.0125342,190.606872 75.0447154,188.463778 75.0447154,186.51087 L72.4573171,187.766304 Z M54.3069106,194.5 L55.3882114,180.956522 L48.1280488,180.956522 C47.6388864,180.956522 47.1754764,181.045289 46.7378049,181.222826 L45.7723577,179.625 C46.390247,179.675725 47.033872,179.701087 47.703252,179.701087 L54.6158537,179.701087 C55.2079975,178.635864 55.5684275,178.014494 55.6971545,177.836957 C55.8258814,177.659419 55.9546064,177.570652 56.0833333,177.570652 C56.3407872,177.570652 57.1453184,177.976445 58.4969512,178.788043 C59.848584,179.599642 60.5243902,180.151267 60.5243902,180.442935 C60.5243902,180.734603 60.1253427,180.994564 59.3272358,181.222826 L58.2845528,193.320652 C60.292693,194.766312 61.296748,195.641303 61.296748,195.945652 C61.296748,196.123189 61.013553,196.364129 60.4471545,196.668478 C60.1639552,202.096042 59.951559,205.437494 59.8099593,206.692935 C59.6683597,207.948376 59.340111,208.950177 58.8252033,209.69837 C58.3102955,210.446562 57.525073,211.017208 56.4695122,211.410326 C55.4139514,211.803444 54.5386214,212 53.8434959,212 C53.3285882,212 53.0196482,211.695655 52.9166667,211.086957 C52.7107036,209.717384 51.6680311,208.766307 49.7886179,208.233696 C49.2737102,208.081521 49.0162602,207.961051 49.0162602,207.872283 C49.0162602,207.783514 49.2093477,207.73913 49.5955285,207.73913 L51.796748,207.815217 C52.5948549,207.815217 53.2384799,207.764493 53.7276423,207.663043 C54.2168046,207.561594 54.5901071,207.409421 54.847561,207.206522 C55.1050148,207.003622 55.2852298,206.756342 55.3882114,206.464674 C55.4911929,206.173006 55.6006092,205.443846 55.7164634,204.277174 C55.8323177,203.110501 55.9288614,201.690226 56.0060976,200.016304 C50.702548,202.476462 47.8255443,203.858694 47.375,204.163043 C46.9244557,204.467393 46.647697,204.619565 46.5447154,204.619565 C46.4417339,204.619565 46.3580627,204.562501 46.2936992,204.44837 C46.2293357,204.334239 46.0619932,203.807976 45.7916667,202.869565 C45.5213401,201.931155 45.2574539,200.942034 45,199.902174 C48.0894463,199.800724 51.7709813,199.585147 56.0447154,199.255435 C56.0962062,198.494561 56.1476962,197.327906 56.199187,195.755435 L50.7926829,195.755435 L50.4065041,196.211957 C50.2262864,196.414856 50.0331989,196.516304 49.8272358,196.516304 C49.6470181,196.516304 49.0420106,196.21196 48.0121951,195.603261 C46.9823797,194.994562 46.4674797,194.60145 46.4674797,194.423913 C46.4674797,194.322463 46.5833322,194.201993 46.8150407,194.0625 C47.0467491,193.923007 47.2205279,193.739132 47.3363821,193.51087 C47.4522364,193.282608 47.5230351,192.952901 47.5487805,192.521739 L47.703252,188.070652 C47.7804882,187.182967 47.8191057,186.390402 47.8191057,185.692935 C47.8191057,184.995468 47.8062332,184.393118 47.7804878,183.88587 C50.0460818,184.038044 51.391258,184.171195 51.8160569,184.285326 C52.2408558,184.399457 52.453252,184.570651 52.453252,184.798913 C52.453252,185.027175 52.2086745,185.268115 51.7195122,185.521739 L51.1788618,194.5 L54.3069106,194.5 Z" id="驰-2" sketch:type="MSShapeGroup"></path>
            </g>
            <path d="M116,59.488 C115.968,59.648 116.064,59.712 116.32,59.712 L117.12,59.712 C117.536,59.712 117.6,60.288 117.504,61.408 L115.744,79.392 C115.68,80.192 115.904,80.64 116.32,80.64 C116.928,80.64 117.28,80.32 117.696,79.712 C118.752,78.272 126.72,67.2 127.072,66.656 C127.296,66.304 127.616,66.272 127.584,66.656 L127.104,79.36 C127.04,80.192 127.2,80.64 127.776,80.64 C128.32,80.64 128.8,80.128 129.28,79.456 C130.496,77.76 134.656,71.744 135.552,70.272 C136.384,68.928 141.184,61.024 141.504,60.576 C141.984,59.904 142.464,59.712 143.008,59.712 L143.552,59.712 C143.712,59.712 143.776,59.648 143.808,59.456 L143.968,58.72 C144,58.528 143.872,58.464 143.584,58.464 C143.168,58.464 142.336,58.56 140.224,58.56 C138.464,58.56 137.696,58.464 137.28,58.464 C137.024,58.464 136.96,58.592 136.928,58.784 L136.8,59.456 C136.768,59.648 136.896,59.712 137.056,59.712 L137.664,59.712 C138.624,59.712 138.656,60.544 138.432,61.376 C138.208,62.272 137.184,64.896 135.616,67.616 C134.848,68.928 132.352,72.96 131.872,73.664 C131.488,74.208 131.232,74.144 131.296,73.472 L132.448,61.248 C132.544,60.096 132.992,59.712 133.472,59.712 L133.824,59.712 C134.08,59.712 134.144,59.648 134.176,59.456 L134.272,58.848 C134.304,58.56 134.208,58.464 133.984,58.464 C133.6,58.464 132.768,58.56 130.816,58.56 C128.576,58.56 127.744,58.464 127.424,58.464 C127.136,58.464 127.072,58.528 127.04,58.656 L126.912,59.52 C126.88,59.648 126.944,59.712 127.2,59.712 L127.52,59.712 C128,59.712 128.192,60.192 128.192,60.928 C128.192,61.856 127.712,63.392 126.976,64.512 L120.928,73.504 C120.704,73.856 120.384,73.76 120.448,73.344 L122.016,61.44 C122.176,60.128 122.688,59.712 123.68,59.712 L124.064,59.712 C124.288,59.712 124.352,59.616 124.384,59.456 L124.512,58.72 C124.544,58.56 124.48,58.464 124.192,58.464 C123.808,58.464 122.592,58.56 120.608,58.56 C118.144,58.56 116.864,58.464 116.544,58.464 C116.256,58.464 116.192,58.56 116.16,58.72 L116,59.488 Z M148.224,76.288 C148.16,76.224 148.032,76.224 147.968,76.32 C147.776,76.608 146.24,78.304 145.6,78.304 C145.28,78.304 145.184,78.08 145.184,77.856 C145.184,77.536 145.28,77.088 145.696,75.904 L147.424,71.008 C148.064,69.152 148.448,68.192 148.448,67.488 C148.448,66.848 148.032,66.336 147.04,66.336 C143.616,66.336 141.056,70.08 140.896,70.272 C140.832,70.336 140.896,70.464 140.992,70.56 L141.28,70.848 C141.376,70.944 141.504,70.944 141.632,70.816 C142.016,70.304 143.456,68.672 143.968,68.672 C144.256,68.672 144.384,68.864 144.384,69.088 C144.384,69.472 144.192,70.048 143.904,70.88 L143.04,73.408 C141.696,77.312 141.152,78.784 141.152,79.36 C141.152,79.84 141.44,80.32 142.4,80.32 C146.496,80.32 148.48,77.248 148.64,76.992 C148.736,76.832 148.704,76.768 148.608,76.672 L148.224,76.288 Z M147.296,59.2 C146.208,59.2 145.312,60.16 145.312,61.152 C145.312,62.368 146.112,63.104 147.36,63.104 C148.544,63.104 149.568,61.984 149.568,60.992 C149.568,60 148.832,59.2 147.296,59.2 L147.296,59.2 Z M153.152,80 C153.504,80 153.568,79.936 153.632,79.808 L154.88,76.224 C155.072,75.68 155.744,74.656 156.448,73.536 C157.728,71.456 160.096,68.896 160.832,68.896 C161.216,68.896 161.472,69.088 161.472,69.6 C161.472,70.176 160.704,72.32 160.192,73.792 C159.2,76.608 158.528,78.528 158.528,79.104 C158.528,79.744 158.848,80.32 159.808,80.32 C162.848,80.32 164.8,78.048 165.184,77.536 C165.28,77.408 165.28,77.248 165.152,77.152 L164.864,76.896 C164.768,76.8 164.64,76.768 164.544,76.896 C164.224,77.28 163.168,78.272 162.784,78.272 C162.528,78.272 162.368,78.112 162.368,77.728 C162.368,77.344 162.624,76.64 163.392,74.464 C164.8,70.528 165.248,69.184 165.248,68.48 C165.248,67.584 164.576,66.336 163.2,66.336 C160.032,66.336 157.376,70.56 156.416,71.968 L156.128,71.744 C156.992,69.76 157.664,68.032 157.664,67.584 C157.664,67.072 157.344,66.336 156.384,66.336 C153.056,66.336 151.04,68.928 150.56,69.568 C150.464,69.696 150.464,69.792 150.592,69.888 L150.912,70.24 C151.008,70.336 151.136,70.304 151.232,70.208 C151.648,69.728 152.896,68.48 153.376,68.48 C153.632,68.48 153.792,68.672 153.792,68.992 C153.792,69.376 153.088,71.488 152.352,73.504 L150.144,79.648 C150.08,79.84 150.208,80 150.432,80 L153.152,80 Z M176.864,62.72 C176.96,62.496 176.832,62.144 176.608,62.144 C176.448,62.144 176.256,62.24 176.096,62.336 C175.808,62.528 174.112,63.328 173.28,63.392 C172.448,63.424 172.32,63.52 172.192,63.84 L171.136,67.296 L168.48,67.296 C168.288,67.296 168.192,67.36 168.128,67.52 L167.936,68.352 C167.872,68.544 167.936,68.704 168.128,68.704 L170.624,68.704 L167.712,77.184 C167.456,77.824 167.36,78.528 167.36,79.168 C167.36,79.648 167.904,80.32 169.024,80.32 C172.288,80.32 175.008,77.664 175.424,77.12 C175.456,77.024 175.424,76.96 175.328,76.864 L174.976,76.48 C174.88,76.384 174.784,76.352 174.688,76.48 C174.496,76.704 172.576,78.048 171.968,78.048 C171.52,78.048 171.264,77.76 171.264,77.44 C171.264,77.056 171.552,76.256 171.712,75.744 L174.336,68.704 L177.568,68.704 C177.792,68.704 177.92,68.608 177.984,68.416 L178.208,67.584 C178.272,67.392 178.208,67.296 178.048,67.296 L174.816,67.296 L176.864,62.72 Z M186.208,76.448 C186.112,76.384 186.016,76.448 185.952,76.544 C185.216,77.344 184.064,78.208 182.496,78.208 C181.408,78.208 180.768,77.248 180.768,76.128 C180.768,75.232 180.896,74.4 181.024,74.112 C182.24,74.016 183.968,73.696 185.728,72.704 C187.584,71.648 188.64,70.336 188.64,68.544 C188.64,67.328 187.904,66.336 186.144,66.336 C184.256,66.336 182.368,67.232 180.8,68.576 C177.952,70.976 176.928,74.368 176.928,76.736 C176.928,79.008 178.496,80.32 180.672,80.32 C183.808,80.32 186.208,78.272 186.784,77.12 C186.848,76.992 186.848,76.896 186.72,76.8 L186.208,76.448 Z M181.28,72.928 C181.76,70.848 183.136,67.936 184.352,67.936 C185.088,67.936 185.216,68.512 185.216,69.024 C185.216,70.08 184.704,71.168 184.192,71.648 C183.264,72.544 181.824,72.96 181.28,72.928 L181.28,72.928 Z M193.152,80 C193.344,80 193.504,79.936 193.568,79.776 L194.592,76.544 C194.976,75.36 195.328,74.432 195.648,73.664 C196.352,72.032 198.08,69.504 199.072,69.504 C199.488,69.504 199.712,69.728 199.968,69.888 C200.256,70.08 200.608,70.144 201.024,70.144 C201.6,70.144 202.464,69.184 202.464,68.064 C202.464,67.04 201.568,66.336 200.64,66.336 C198.304,66.336 196.384,70.272 195.584,72.032 L195.232,71.84 C196,69.76 196.608,68.192 196.608,67.616 C196.608,67.008 196.192,66.336 194.944,66.336 C192.16,66.336 190.336,68.704 189.824,69.632 C189.728,69.856 189.728,69.952 189.824,70.016 L190.144,70.24 C190.272,70.336 190.4,70.304 190.528,70.112 C190.976,69.408 192.128,68.352 192.64,68.352 C192.96,68.352 193.184,68.64 193.184,68.96 C193.184,69.568 192.192,72.736 191.648,74.528 L190.112,79.712 C190.048,79.872 190.176,80 190.4,80 L193.152,80 Z" id="Winter" sketch:type="MSShapeGroup"></path>
        </g>
    </g>
</svg>