<?xml version="1.0" encoding="UTF-8" standalone="no"?>
<svg width="360px" height="247px" viewBox="0 0 360 247" version="1.1" xmlns="http://www.w3.org/2000/svg" xmlns:xlink="http://www.w3.org/1999/xlink" xmlns:sketch="http://www.bohemiancoding.com/sketch/ns">
    <!-- Generator: Sketch 3.2.2 (9983) - http://www.bohemiancoding.com/sketch -->
    <title>春文字</title>
    <desc>Created with Sketch.</desc>
    <defs></defs>
    <g id="Page-1" stroke="none" stroke-width="1" fill="none" fill-rule="evenodd" sketch:type="MSPage">
        <g id="春文字" sketch:type="MSArtboardGroup" fill="#FFFFFF">
            <g id="Imported-Layers" sketch:type="MSLayerGroup">
                <path d="M131.449711,205.323059 L130.894727,205.701458 L130.894727,207.290732 L130.94518,208.62774 C130.94518,208.812735 130.793822,208.947276 130.491102,209.031365 C130.188381,209.115454 129.986571,209.157497 129.885664,209.157497 C129.784757,209.157497 129.734305,209.090227 129.734305,208.955685 L129.734305,207.946622 L116.69217,207.946622 L116.111959,208.602513 C116.044688,208.686602 115.977418,208.728646 115.910146,208.728646 C115.842875,208.728646 115.750379,208.695011 115.632654,208.62774 L114.295646,207.820489 L115.254256,207.315958 L115.254256,205.953724 C115.254256,205.499643 115.229029,204.919438 115.178576,204.21309 L116.868756,204.944661 C117.036934,205.011932 117.121022,205.074998 117.121022,205.13386 C117.121022,205.192722 117.045343,205.255788 116.893983,205.323059 L116.364225,205.600552 L116.364225,207.492544 L122.393374,207.492544 L122.393374,204.919434 C122.393374,204.465354 122.368148,203.885149 122.317694,203.178801 L124.033101,203.859919 C124.201279,203.92719 124.285366,203.986051 124.285366,204.036504 C124.285366,204.086958 124.218096,204.162637 124.083554,204.263544 L123.528569,204.641942 L123.528569,207.492544 L129.734305,207.492544 L129.734305,206.105083 C129.734305,205.600549 129.709078,204.961482 129.658625,204.187864 L131.449711,204.995114 C131.550618,205.045567 131.601071,205.09602 131.601071,205.146473 C131.601071,205.196927 131.550618,205.255788 131.449711,205.323059 L131.449711,205.323059 Z M123.225851,221.241023 C123.377211,221.409201 123.45289,221.526923 123.45289,221.594195 C123.45289,221.661466 123.343576,221.695101 123.124944,221.695101 L113.38749,221.695101 C112.731596,221.695101 112.168208,221.787597 111.69731,221.972593 L110.990966,221.140116 C111.79822,221.207388 112.41206,221.241023 112.832505,221.241023 L113.892021,221.241023 L113.892021,214.555983 C113.892021,214.051449 113.866795,213.227389 113.816341,212.083779 L114.976763,213.017162 L116.717397,213.017162 L117.045342,211.200849 L114.043381,211.200849 C113.387487,211.200849 112.824099,211.293346 112.353201,211.478342 L111.646857,210.671091 C112.454111,210.738363 113.067951,210.771998 113.488396,210.771998 L117.171475,210.771998 C117.289199,210.048832 117.432148,209.266817 117.600326,208.425927 L119.013014,209.006138 C119.147556,209.056591 119.214827,209.111248 119.214827,209.170111 C119.214827,209.228973 119.164374,209.292039 119.063467,209.35931 L118.483256,209.737708 L118.256217,210.771998 L120.753647,210.771998 L121.409538,209.813388 L122.418601,210.746771 C122.603596,210.914949 122.696093,211.032672 122.696093,211.099943 C122.696093,211.167214 122.569961,211.200849 122.317694,211.200849 L118.155311,211.200849 L117.726459,213.017162 L119.870717,213.017162 L120.425702,212.336045 L121.661804,213.244201 C121.76271,213.311472 121.813163,213.370334 121.813163,213.420787 C121.813163,213.47124 121.771119,213.521693 121.68703,213.572147 L121.232952,213.849639 L121.232952,221.241023 L121.586124,221.241023 L122.267241,220.181507 L123.225851,221.241023 Z M120.173436,215.08574 L120.173436,213.47124 L114.951537,213.47124 L114.951537,215.08574 L120.173436,215.08574 Z M120.173436,217.028186 L120.173436,215.539819 L114.951537,215.539819 L114.951537,217.028186 L120.173436,217.028186 Z M120.173436,219.147218 L120.173436,217.482264 L114.951537,217.482264 L114.951537,219.147218 L120.173436,219.147218 Z M120.173436,221.241023 L120.173436,219.601296 L114.951537,219.601296 L114.951537,221.241023 L120.173436,221.241023 Z M133.846235,210.771998 C133.96396,210.90654 134.022821,211.007445 134.022821,211.074716 C134.022821,211.141988 133.938733,211.175623 133.770555,211.175623 L129.154094,211.175623 L127.539593,214.076678 L130.617235,214.076678 L131.247899,213.118068 L132.811946,214.152358 C132.896035,214.202811 132.938079,214.257468 132.938079,214.31633 C132.938079,214.375192 132.896035,214.429849 132.811946,214.480303 L132.130828,214.959608 L132.130828,216.599334 C132.130828,217.961576 132.147646,218.953811 132.181282,219.576069 L132.256961,221.140116 C132.256961,221.325112 132.219122,221.451244 132.143442,221.518515 C132.067762,221.585786 131.912199,221.669874 131.67675,221.770781 C131.441301,221.871687 131.268921,221.92214 131.159606,221.92214 C131.05029,221.92214 130.995633,221.745556 130.995633,221.392382 L131.046086,217.885889 L131.046086,214.530756 L125.269202,214.530756 L125.269202,218.819272 C125.269202,219.475166 125.277611,220.004919 125.294429,220.408546 L125.344882,221.442835 C125.344882,221.678284 125.185116,221.867482 124.865577,222.010433 C124.546039,222.153384 124.340024,222.224859 124.247527,222.224859 C124.155029,222.224859 124.10878,222.08191 124.10878,221.796007 L124.159234,220.509452 C124.176051,219.988101 124.18446,219.264946 124.18446,218.339968 L124.18446,216.548881 C124.18446,215.237093 124.159234,214.127135 124.10878,213.218975 L125.294429,214.076678 L127.085515,214.076678 C127.337782,213.269424 127.522775,212.302415 127.6405,211.175623 L126.126906,211.175623 C125.471012,211.175623 124.907624,211.268119 124.436726,211.453115 L123.730382,210.645865 C124.537636,210.713136 125.151476,210.746771 125.571921,210.746771 L131.75243,210.746771 L132.71104,209.535896 L133.846235,210.771998 Z M129.103641,216.77592 L128.700015,217.078639 C128.430931,219.719033 127.972653,221.573167 127.325168,222.641097 C126.677683,223.709027 125.698061,224.600357 124.386273,225.315113 C123.074485,226.029869 121.653402,226.530191 120.122983,226.816094 L119.971624,226.538602 C123.066098,225.495898 125.101021,224.272422 126.076453,222.868136 C127.051885,221.46385 127.56482,219.071555 127.615273,215.691178 L129.078414,216.422748 C129.196139,216.49002 129.255,216.548881 129.255,216.599334 C129.255,216.649788 129.204547,216.708649 129.103641,216.77592 L129.103641,216.77592 Z M116.465131,222.880749 C116.599673,222.998474 116.666943,223.086766 116.666943,223.145628 C116.666943,223.204491 116.523994,223.271761 116.238092,223.347441 C115.952189,223.423121 115.708335,223.536639 115.506521,223.688 C114.110644,224.898881 112.664336,225.975203 111.167552,226.917 L110.990966,226.664734 C113.110008,224.882048 114.581543,223.326425 115.405615,221.99782 L116.465131,222.880749 Z M128.548656,222.149179 C131.676766,223.460967 133.240797,224.655013 133.240797,225.731351 C133.240797,226.000436 133.181936,226.231677 133.064211,226.425082 C132.946487,226.618487 132.811947,226.715187 132.660586,226.715187 C132.509226,226.715187 132.391503,226.673144 132.307414,226.589055 C132.223325,226.504966 132.105603,226.311564 131.954243,226.008844 C131.399255,224.882051 130.222027,223.679597 128.422523,222.401445 L128.548656,222.149179 Z M118.558936,222.224859 C119.66891,222.578032 120.467744,222.926996 120.95546,223.271761 C121.443176,223.616526 121.68703,224.024351 121.68703,224.49525 C121.68703,224.747517 121.615556,224.949327 121.472604,225.100687 C121.329653,225.252047 121.1825,225.327726 121.031139,225.327726 C120.879779,225.327726 120.73683,225.16796 120.602288,224.848422 C120.316385,224.02435 119.618457,223.233925 118.508483,222.477124 L118.558936,222.224859 Z" id="Type-something" sketch:type="MSShapeGroup"></path>
                <path d="M116.322,112.524 L117.817,113.55 C117.655,113.82 117.457,113.964 116.953,113.964 L101.324,113.964 L101.198,113.496 L110.759,113.496 C111.804,110.597 112.829,106.744 113.37,103.809 L115.008,104.187 C114.954,104.422 114.738,104.511 114.288,104.511 C113.639,107.14 112.47,110.723 111.173,113.496 L115.566,113.496 L116.322,112.524 L116.322,112.524 Z M102.116,102.585 L101.99,102.117 L109.066,102.117 L109.066,98.156 L110.759,98.299 C110.722,98.588 110.524,98.714 109.877,98.803 L109.877,102.117 L114.828,102.117 L115.602,101.144 L117.079,102.171 C116.934,102.441 116.736,102.585 116.232,102.585 L102.116,102.585 L102.116,102.585 Z M104.817,104.061 C106.456,106.816 107.014,109.193 107.014,110.651 C107.014,111.659 106.744,112.236 106.42,112.236 C106.294,112.236 106.168,112.164 106.042,112.02 C106.059,111.803 106.059,111.588 106.059,111.353 C106.059,109.013 105.267,106.042 104.493,104.151 L104.817,104.061 L104.817,104.061 Z" id="Fill-2" sketch:type="MSShapeGroup"></path>
                <path d="M106.708,128.445 L109.911,128.697 C109.839,129.237 109.479,129.489 108.327,129.597 L108.327,151.482 C108.327,151.554 108.111,152.202 106.708,152.202 L106.708,148.315 L81.367,148.315 L81.367,152.13 C81.367,152.238 81.186,152.814 79.747,152.814 L79.747,128.589 L82.95,128.841 C82.879,129.381 82.518,129.633 81.367,129.741 L81.367,147.379 L93.137,147.379 L93.137,120.13 L96.521,120.418 C96.485,121.03 96.017,121.282 94.757,121.426 L94.757,147.379 L106.708,147.379 L106.708,128.445" id="Fill-3" sketch:type="MSShapeGroup"></path>
                <path d="M112.061,156.269 L114.221,158.285 C113.933,158.573 113.574,158.681 112.782,158.717 C111.234,165.592 108.139,172.827 101.515,177.578 L101.155,176.931 C106.627,172.287 109.686,165.304 110.982,158.393 L101.802,158.393 L101.515,157.457 L110.838,157.457 L112.061,156.269 L112.061,156.269 Z M118.685,152.633 C119.621,156.881 121.133,160.481 122.932,163.54 C126.172,160.84 129.808,157.061 131.679,154.433 L134.343,156.017 C134.163,156.269 133.983,156.377 133.623,156.377 C133.443,156.377 133.227,156.341 132.939,156.269 C130.815,158.537 127,161.848 123.364,164.224 C126.604,169.407 130.887,172.935 135.098,175.383 L134.991,175.743 C134.235,175.779 133.587,176.247 133.264,177.074 C126.927,172.647 121.457,166.312 118.685,155.117 L118.685,177.399 C118.685,179.018 118.217,180.206 115.338,180.53 C115.338,179.126 113.897,179.018 111.054,178.802 L111.054,178.226 L116.093,178.226 C116.85,178.226 117.065,177.974 117.065,177.326 L117.065,147.09 L120.413,147.378 C120.341,147.954 120.125,148.206 118.685,148.386 L118.685,152.633 L118.685,152.633 Z" id="Fill-4" sketch:type="MSShapeGroup"></path>
                <path d="M106.233,188.056 L107.12,188.914 C106.987,189.032 106.824,189.062 106.44,189.077 C104.665,191.68 101.573,194.536 98.185,196.459 C99.146,197.391 100.493,197.539 102.505,197.539 C103.851,197.539 107.047,197.539 108.423,197.494 L108.423,197.716 C108.111,197.746 107.949,197.938 107.92,198.219 L102.476,198.219 C99.739,198.219 98.289,197.79 97.179,195.542 C96.765,196.34 96.188,197.405 95.832,197.967 C95.907,198.056 95.936,198.16 95.936,198.249 C95.936,198.352 95.892,198.441 95.832,198.53 L94.738,197.598 C95.359,197.021 96.365,195.926 96.986,195.157 L97.297,194.003 L98.008,194.18 L97.327,195.246 C97.519,195.63 97.726,195.956 97.963,196.222 C100.907,194.373 103.91,191.547 105.582,188.943 L95.641,188.943 L95.522,188.559 L101.233,188.559 L101.233,185.141 L102.623,185.26 C102.609,185.511 102.43,185.6 101.899,185.674 L101.899,188.559 L105.67,188.559 L106.233,188.056" id="Fill-5" sketch:type="MSShapeGroup"></path>
                <path d="M91.344,42.224 C100.144,48.624 111.146,52.524 121.147,54.225 L121.346,55.325 C114.645,58.625 109.846,63.725 109.245,69.726 C105.145,67.825 101.445,65.225 97.944,62.325 L97.944,91.127 C97.845,91.927 90.344,94.827 85.144,94.827 L82.344,94.827 L82.344,87.727 L62.742,87.727 L62.742,91.427 C62.742,92.427 58.242,95.727 50.541,95.727 L47.742,95.727 L47.742,58.225 C41.641,62.825 34.341,66.726 25.641,69.926 L25.04,68.826 C36.441,61.725 44.141,52.424 49.342,42.224 L26.439,42.224 L25.939,40.624 L50.141,40.624 C51.941,36.824 53.441,33.023 54.643,29.023 L37.441,29.023 L36.941,27.423 L55.143,27.423 C56.242,23.723 57.142,19.922 57.742,16.122 L31.641,16.122 L31.141,14.522 L58.042,14.522 C58.842,9.722 59.442,4.822 59.842,0.021 L80.543,3.421 C80.144,4.921 79.243,5.622 76.344,5.722 C75.844,8.722 75.243,11.622 74.543,14.522 L95.844,14.522 L103.045,5.422 L116.145,14.722 C115.346,15.822 114.045,16.122 111.245,16.122 L74.143,16.122 C73.143,20.022 72.043,23.723 70.642,27.423 L90.943,27.423 L97.545,19.022 L109.745,27.623 C109.045,28.823 107.644,29.023 105.045,29.023 L78.943,29.023 C81.543,33.423 85.144,37.324 89.244,40.624 L99.145,40.624 L106.545,31.223 L120.246,40.824 C119.546,41.924 118.246,42.224 115.346,42.224 L91.344,42.224 L91.344,42.224 Z M86.544,49.124 C85.044,46.924 83.744,44.624 82.443,42.224 L62.942,42.224 C60.543,45.824 57.742,49.124 54.643,52.325 L64.143,55.725 L81.543,55.725 L86.544,49.124 L86.544,49.124 Z M62.742,70.326 L82.343,70.326 L82.343,57.325 L62.742,57.325 L62.742,70.326 Z M62.742,86.126 L82.343,86.126 L82.343,71.925 L62.742,71.925 L62.742,86.126 Z M81.644,40.624 C79.844,36.923 78.142,33.023 76.844,29.023 L69.943,29.023 C68.343,33.023 66.343,36.923 64.043,40.624 L81.644,40.624 L81.644,40.624 Z" id="Fill-6" sketch:type="MSShapeGroup"></path>
                <path d="M3.013,9.697 C3.013,9.715 2.85,9.968 2.202,9.968 L2.202,7.141 C1.807,7.501 1.374,7.824 0.942,8.077 L0.727,7.843 C1.681,7.068 2.689,5.736 3.247,4.655 L3.283,4.674 L3.283,4.62 L0.996,4.62 L0.888,4.151 L3.283,4.151 L3.283,2.909 L4.741,3.018 C4.724,3.287 4.615,3.377 4.093,3.449 L4.093,4.151 L6.307,4.151 L6.307,2.909 L7.784,3.018 C7.748,3.27 7.658,3.359 7.118,3.432 L7.118,4.151 L8.162,4.151 L8.774,3.377 L9.999,4.224 C9.837,4.476 9.603,4.62 9.135,4.62 L7.118,4.62 L7.118,4.998 C7.118,5.016 7.028,5.286 6.307,5.286 L6.307,4.62 L4.093,4.62 L4.093,4.943 L4.489,5.069 C4.417,5.196 4.327,5.286 4.129,5.286 C4.057,5.286 3.967,5.268 3.859,5.25 C3.733,5.448 3.589,5.646 3.427,5.844 L7.929,5.844 L8.378,5.322 L9.476,6.168 C9.369,6.313 9.152,6.366 8.811,6.42 C8.685,9.445 8.433,10.22 7.01,10.22 C7.01,9.77 6.74,9.679 6.307,9.607 L6.307,9.481 C6.271,9.499 6.038,9.679 5.533,9.679 L5.533,9.319 L3.013,9.319 L3.013,9.697 L3.013,9.697 Z M3.409,16.863 C3.427,16.972 3.427,17.079 3.427,17.188 C3.427,18.682 2.257,19.528 1.482,19.528 C1.122,19.528 0.979,19.348 0.979,19.15 C0.979,18.952 1.158,18.736 1.393,18.592 C2.059,18.376 2.923,17.71 3.085,16.846 L3.409,16.863 L3.409,16.863 Z M7.226,9.283 C7.424,9.283 7.515,9.283 7.622,9.193 C7.838,8.995 8,8.221 8.091,6.313 L3.031,6.313 C2.833,6.528 2.635,6.727 2.437,6.925 L3.102,7.248 L5.426,7.248 L5.767,6.816 L6.794,7.555 C6.722,7.627 6.542,7.734 6.344,7.771 L6.344,9.283 L7.226,9.283 L7.226,9.283 Z M3.013,8.851 L5.533,8.851 L5.533,7.717 L3.013,7.717 L3.013,8.851 Z M15.238,15.621 L15.725,15.063 L16.859,15.963 C16.733,16.089 16.517,16.179 16.157,16.215 C15.851,19.132 15.238,19.636 13.725,19.636 C13.725,19.168 13.456,19.024 12.376,18.934 L12.376,18.592 C12.808,18.61 13.798,18.645 14.122,18.645 C14.392,18.645 14.536,18.645 14.662,18.538 C14.932,18.321 15.184,17.493 15.364,16.089 L4.345,16.089 L4.345,16.377 C4.345,16.377 4.237,16.684 3.535,16.684 L3.535,10.094 L4.561,10.579 L13.366,10.579 L13.996,9.823 L15.257,10.651 C15.112,10.922 14.914,11.048 14.41,11.048 L9.566,11.048 L9.566,12.254 L13.024,12.254 L13.582,11.569 L14.734,12.326 C14.59,12.596 14.392,12.722 13.906,12.722 L9.566,12.722 L9.566,13.929 L13.024,13.929 L13.6,13.227 L14.771,14.001 C14.626,14.271 14.429,14.396 13.942,14.396 L9.566,14.396 L9.566,15.621 L15.238,15.621 L15.238,15.621 Z M4.345,12.254 L8.757,12.254 L8.757,11.048 L4.345,11.048 L4.345,12.254 Z M4.345,13.929 L8.757,13.929 L8.757,12.722 L4.345,12.722 L4.345,13.929 Z M4.345,15.621 L8.757,15.621 L8.757,14.396 L4.345,14.396 L4.345,15.621 Z M5.552,16.72 C6.326,17.403 6.596,18.052 6.596,18.52 C6.596,18.97 6.344,19.276 6.073,19.276 C5.947,19.276 5.821,19.204 5.714,19.06 C5.767,18.376 5.569,17.403 5.317,16.81 L5.552,16.72 L5.552,16.72 Z M8.181,16.647 C9.44,17.134 9.855,17.836 9.855,18.321 C9.855,18.645 9.639,18.897 9.404,18.897 C9.278,18.897 9.171,18.844 9.045,18.736 C8.973,18.088 8.505,17.26 8.018,16.81 L8.181,16.647 L8.181,16.647 Z M17.507,4.836 C17.363,5.124 17.182,5.231 16.715,5.231 L16.013,5.231 C15.526,6.366 14.86,7.303 13.96,8.059 C14.896,8.725 16.066,9.193 17.597,9.499 L17.543,9.697 C17.273,9.733 16.985,9.877 16.877,10.22 C15.4,9.787 14.302,9.211 13.42,8.473 C12.376,9.229 11.062,9.77 9.476,10.165 L9.369,9.823 C10.81,9.392 12.016,8.815 12.97,8.059 C12.321,7.393 11.8,6.618 11.367,5.7 C10.881,6.349 10.323,6.942 9.765,7.393 L9.495,7.194 C10.467,6.186 11.439,4.403 11.943,3.018 L13.312,3.341 C13.24,3.539 13.114,3.611 12.682,3.594 C12.502,3.972 12.268,4.367 12.016,4.764 L15.742,4.764 L16.337,4.008 L17.507,4.836 L17.507,4.836 Z M11.169,16.485 C12.79,16.593 13.33,17.241 13.33,17.691 C13.33,17.926 13.168,18.105 12.952,18.105 C12.861,18.105 12.772,18.088 12.682,18.034 C12.376,17.548 11.691,16.972 11.098,16.701 L11.169,16.485 L11.169,16.485 Z M11.709,5.231 L11.638,5.322 C12.105,6.24 12.682,7.015 13.437,7.663 C14.158,6.979 14.716,6.168 15.112,5.231 L11.709,5.231 L11.709,5.231 Z" id="Fill-7" sketch:type="MSShapeGroup"></path>
                <path d="M4.651,32.017 L4.651,30.559 L1.141,30.559 L1.015,30.091 L3.283,30.091 C3.265,30.072 3.229,30.055 3.211,30.019 C3.175,29.496 2.887,28.758 2.562,28.326 L2.707,28.236 L1.05,28.236 L0.924,27.768 L4.651,27.768 L4.651,26.472 L1.734,26.472 L1.608,26.003 L4.651,26.003 L4.651,24.617 L6.128,24.743 C6.109,24.977 5.947,25.067 5.462,25.139 L5.462,26.003 L7.028,26.003 L7.694,25.229 L8.99,26.075 C8.847,26.346 8.667,26.472 8.162,26.472 L5.462,26.472 L5.462,27.768 L7.694,27.768 L8.36,26.993 L9.657,27.84 C9.513,28.11 9.333,28.236 8.828,28.236 L6.992,28.236 L8.091,28.668 C8.018,28.813 7.893,28.866 7.676,28.866 C7.605,28.866 7.515,28.866 7.424,28.848 C7.172,29.244 6.794,29.694 6.397,30.091 L7.784,30.091 L8.396,29.389 L9.603,30.162 C9.459,30.433 9.278,30.559 8.793,30.559 L5.462,30.559 L5.462,32.017 L7.154,32.017 L7.748,31.297 L8.936,32.089 C8.793,32.359 8.612,32.485 8.126,32.485 L5.462,32.485 L5.462,34.231 C5.462,34.231 5.354,34.538 4.651,34.538 L4.651,32.485 L1.681,32.485 L1.555,32.017 L4.651,32.017 L4.651,32.017 Z M17.291,31.459 L17.021,33.277 C17.237,33.565 17.363,33.764 17.363,33.926 C17.363,34.088 17.201,34.214 16.985,34.214 C16.679,34.214 16.265,33.998 15.995,33.674 C15.005,32.449 14.807,30.396 14.752,27.281 L12.664,27.281 C12.592,28.236 12.447,29.172 12.124,30.072 C13.096,30.648 13.456,31.261 13.456,31.639 C13.456,31.854 13.33,31.999 13.114,31.999 C13.042,31.999 12.952,31.981 12.861,31.945 C12.645,31.585 12.25,31.207 11.8,30.829 C11.277,31.891 10.449,32.881 9.152,33.764 L10.305,33.854 C10.287,34.124 10.089,34.231 9.53,34.304 L9.53,35.294 L14.104,35.294 L14.555,34.718 L15.887,35.654 C15.761,35.798 15.436,35.942 15.095,36.015 L15.095,38.247 C15.095,38.283 14.807,38.553 14.284,38.553 L14.284,38.139 L9.53,38.139 L9.53,39.921 C11.043,39.903 12.664,39.886 14.32,39.85 C13.654,39.543 12.88,39.255 12.052,39.039 L12.124,38.733 C15.94,39.147 17.093,40.3 17.093,40.894 C17.093,41.109 16.949,41.254 16.715,41.254 C16.642,41.254 16.589,41.235 16.517,41.218 C16.211,40.93 15.725,40.569 15.095,40.245 C12.178,40.443 8.091,40.659 2.49,40.876 C2.383,41.073 2.202,41.2 2.022,41.235 L1.338,39.976 L2.814,39.976 C4.345,39.976 6.38,39.957 8.721,39.939 L8.721,38.139 L4.057,38.139 L4.057,38.625 C4.057,38.643 3.913,38.877 3.247,38.877 L3.247,34.844 L4.165,35.294 L8.721,35.294 L8.721,34.033 C8.486,34.178 8.234,34.321 7.982,34.448 L7.73,34.142 C9.585,33.061 10.611,31.783 11.169,30.36 C10.611,29.982 10.016,29.641 9.495,29.406 L9.566,29.154 C10.287,29.316 10.899,29.515 11.403,29.73 C11.638,28.939 11.764,28.128 11.817,27.281 L9.459,27.281 L9.315,26.813 L11.854,26.813 C11.89,26.111 11.907,25.391 11.907,24.653 L13.42,24.761 C13.402,24.977 13.294,25.103 12.772,25.157 C12.754,25.715 12.735,26.255 12.7,26.813 L14.608,26.813 L15.04,26.237 L16.283,27.227 C16.157,27.336 15.923,27.443 15.581,27.479 C15.526,30.055 15.707,31.999 16.354,32.863 C16.409,32.936 16.463,32.972 16.481,32.972 C16.589,32.972 17.021,31.603 17.093,31.405 L17.291,31.459 L17.291,31.459 Z M2.833,28.236 C3.715,28.704 4.003,29.244 4.003,29.641 C4.003,29.839 3.931,30 3.823,30.091 L5.894,30.091 C6.182,29.55 6.488,28.83 6.686,28.236 L2.833,28.236 L2.833,28.236 Z M4.057,37.671 L8.72,37.671 L8.72,35.762 L4.057,35.762 L4.057,37.671 Z M9.53,37.671 L14.284,37.671 L14.284,35.762 L9.53,35.762 L9.53,37.671 Z" id="Fill-8" sketch:type="MSShapeGroup"></path>
                <path d="M183.736,232.458 C183.526,232.332 183.526,232.08 183.484,231.87 L182.771,227.879 C182.729,227.669 182.854,227.585 183.023,227.543 L183.568,227.418 C183.736,227.375 183.862,227.46 183.946,227.669 L184.996,229.728 C185.837,231.282 186.425,232.332 188.651,232.332 C190.121,232.332 191.97,231.45 191.97,229.476 C191.97,227.585 191.046,226.493 187.895,225.611 C185.417,224.897 182.938,223.595 182.938,220.276 C182.938,217.377 185.669,215.151 188.819,215.151 C190.836,215.151 191.928,215.655 192.684,216.033 C193.314,216.327 193.399,216.538 193.44,216.79 L194.07,219.73 C194.07,219.898 193.986,220.024 193.776,220.108 L193.272,220.276 C193.103,220.318 193.02,220.276 192.893,220.066 L191.466,218.134 C190.962,217.335 190.163,216.496 188.525,216.496 C186.929,216.496 185.291,217.461 185.291,219.268 C185.291,221.704 187.265,222.166 189.323,222.754 C192.39,223.637 194.322,224.897 194.364,228.131 C194.322,231.534 191.55,233.676 187.98,233.676 C185.921,233.676 184.24,232.836 183.736,232.458" id="Fill-15" sketch:type="MSShapeGroup"></path>
                <path d="M199.695,221.284 C199.695,220.276 199.401,219.688 198.184,219.016 L197.217,218.47 C196.923,218.344 196.923,218.218 196.923,218.092 L196.923,217.756 C196.923,217.629 197.007,217.545 197.217,217.461 L201.25,215.445 C201.586,215.277 201.922,215.109 202.216,215.109 C202.426,215.109 202.51,215.319 202.51,215.949 L202.678,217.966 L202.805,217.966 C203.938,216.496 206.123,215.151 208.938,215.151 C211.08,215.151 212.508,216.075 213.727,217.209 C215.322,218.806 215.994,220.528 215.994,223.763 C215.994,229.266 212.172,233.676 206.921,233.676 C205.787,233.676 204.023,233.508 202.721,232.962 L202.721,241.826 C202.721,243.002 203.015,243.212 203.644,243.212 L205.493,243.212 C205.829,243.212 205.871,243.38 205.871,243.632 L205.871,244.346 C205.871,244.598 205.787,244.725 205.493,244.725 C205.282,244.725 203.854,244.598 201.166,244.598 C198.729,244.598 197.259,244.725 196.923,244.725 C196.629,244.725 196.545,244.598 196.545,244.346 L196.545,243.59 C196.545,243.38 196.629,243.212 197.049,243.212 L198.687,243.212 C199.401,243.212 199.485,242.792 199.569,242.162 C199.695,241.238 199.695,238.969 199.695,234.853 L199.695,221.284 L199.695,221.284 Z M202.721,228.972 C202.721,229.896 202.805,230.652 203.603,231.198 C204.778,232.038 206.081,232.332 207.803,232.332 C210.197,232.332 212.676,230.526 212.676,225.317 C212.676,219.436 210.029,217.083 207.215,217.083 C205.451,217.083 203.729,218.092 202.721,219.772 L202.721,228.972 L202.721,228.972 Z" id="Fill-16" sketch:type="MSShapeGroup"></path>
                <path d="M221.62,221.999 C221.62,219.856 221.283,219.436 220.107,218.806 L219.31,218.386 C219.058,218.302 218.974,218.26 218.974,218.092 L218.974,217.84 C218.974,217.671 219.058,217.587 219.31,217.461 L223.468,215.319 C223.72,215.193 223.888,215.151 224.056,215.151 C224.309,215.151 224.351,215.403 224.351,215.655 L224.561,218.638 L224.729,218.638 C225.988,216.706 227.963,214.983 229.77,214.983 C231.197,214.983 231.911,215.865 231.911,216.832 C231.911,218.05 230.903,218.89 230.147,218.89 C229.686,218.89 229.265,218.722 228.929,218.554 C228.593,218.344 228.089,218.218 227.543,218.218 C226.87,218.218 225.778,218.638 225.064,219.982 C224.812,220.444 224.644,221.2 224.644,221.326 L224.644,230.064 C224.644,231.366 224.938,231.786 225.82,231.786 L227.795,231.786 C228.047,231.786 228.089,231.912 228.089,232.164 L228.089,232.92 C228.089,233.172 228.047,233.298 227.879,233.298 C227.627,233.298 225.694,233.172 223.426,233.172 C220.821,233.172 219.058,233.298 218.805,233.298 C218.637,233.298 218.553,233.214 218.553,232.878 L218.553,232.164 C218.553,231.87 218.637,231.786 219.016,231.786 L220.653,231.786 C221.283,231.786 221.578,231.534 221.578,230.988 C221.62,229.602 221.62,228.131 221.62,225.947 L221.62,221.999" id="Fill-17" sketch:type="MSShapeGroup"></path>
                <path d="M235.226,230.778 C233.295,228.467 232.917,226.913 232.917,223.931 C232.917,221.789 234.051,219.1 236.529,217.168 C238.714,215.487 240.772,215.151 242.158,215.151 C244.469,215.151 246.779,216.327 248.039,217.587 C249.93,219.52 250.895,221.704 250.895,224.435 C250.895,229.014 246.779,233.676 241.612,233.676 C239.596,233.676 236.991,232.878 235.226,230.778 L235.226,230.778 Z M247.367,224.015 C247.367,219.352 243.965,216.412 241.822,216.412 C240.687,216.412 239.596,216.664 238.588,217.756 C236.949,219.436 236.361,221.158 236.361,224.351 C236.361,226.703 236.613,228.299 237.957,230.232 C238.924,231.618 240.142,232.416 242.116,232.416 C245.309,232.416 247.367,228.51 247.367,224.015 L247.367,224.015 Z" id="Fill-18" sketch:type="MSShapeGroup"></path>
                <path d="M269.88,224.645 C269.88,226.661 269.88,228.72 269.964,229.602 C270.09,230.904 270.552,231.072 271.056,231.072 C271.308,231.072 271.938,231.072 272.441,230.946 C272.778,230.862 272.904,230.946 272.946,231.114 L273.072,231.66 C273.114,231.912 273.03,231.996 272.862,232.038 L268.451,233.508 C268.199,233.592 267.947,233.676 267.611,233.676 C267.443,233.676 267.275,233.592 267.233,233.172 L266.896,230.736 L266.812,230.736 C265.637,232.374 263.2,233.676 261.1,233.676 C259.924,233.676 258.537,233.55 257.151,231.744 C255.429,229.518 255.513,228.131 255.513,223.511 L255.513,218.596 C255.471,217.419 254.883,217.125 253.917,217 C253.202,216.957 252.992,216.915 252.992,216.706 L252.992,215.949 C252.992,215.697 253.076,215.613 253.454,215.613 L257.193,215.613 C257.445,215.613 257.613,215.571 257.781,215.529 C257.949,215.529 258.117,215.487 258.243,215.487 C258.537,215.487 258.747,215.697 258.705,215.991 C258.663,216.37 258.537,218.344 258.537,220.822 L258.537,223.847 C258.537,225.527 258.117,228.215 259.462,230.148 C260.512,231.66 261.687,231.744 262.822,231.744 C263.956,231.744 265.637,230.652 266.434,229.644 C266.603,229.434 266.854,228.888 266.854,228.51 L266.854,218.47 C266.771,217.293 266.099,217.083 265.049,217 C264.334,217 264.124,216.915 264.124,216.706 L264.124,215.991 C264.124,215.655 264.208,215.613 264.629,215.613 L268.535,215.613 C268.829,215.613 269.039,215.571 269.249,215.529 C269.459,215.529 269.627,215.487 269.753,215.487 C270.006,215.487 270.174,215.697 270.132,215.907 C270.09,216.285 269.88,217.377 269.88,221.494 L269.88,224.645" id="Fill-19" sketch:type="MSShapeGroup"></path>
                <path d="M280.714,227.921 C280.714,231.072 282.142,231.618 282.897,231.618 C283.864,231.618 285.082,231.45 285.67,231.072 C285.881,230.946 286.049,230.988 286.175,231.156 L286.385,231.534 C286.511,231.702 286.427,231.87 286.301,231.996 C285.881,232.416 284.158,233.676 281.638,233.676 C279.579,233.676 277.563,231.702 277.563,230.106 C277.563,228.383 277.689,224.687 277.689,224.099 L277.689,223.175 C277.689,222.418 277.731,219.562 277.774,217.798 L275.211,217.798 C274.832,217.798 274.58,217.629 274.58,217.293 C274.58,216.957 274.832,216.832 275.337,216.538 C276.345,215.949 279.579,212.715 280.125,211.287 C280.251,210.95 280.462,210.866 280.714,210.866 C281.05,210.866 281.134,211.161 281.134,211.497 L280.924,215.613 L286.763,215.613 C287.015,215.613 287.141,215.823 287.057,215.991 L286.637,217.461 C286.595,217.671 286.511,217.798 286.259,217.798 L280.84,217.798 C280.756,219.73 280.714,221.789 280.714,223.721 L280.714,227.921" id="Fill-20" sketch:type="MSShapeGroup"></path>
                <path d="M317.944,243.473 C316.381,241.603 316.074,240.346 316.074,237.932 C316.074,236.198 316.992,234.022 318.998,232.458 C320.767,231.099 322.432,230.827 323.554,230.827 C325.424,230.827 327.294,231.778 328.313,232.798 C329.844,234.362 330.625,236.13 330.625,238.34 C330.625,242.045 327.294,245.819 323.112,245.819 C321.48,245.819 319.372,245.173 317.944,243.473 L317.944,243.473 Z M327.769,238 C327.769,234.226 325.016,231.847 323.282,231.847 C322.364,231.847 321.48,232.05 320.664,232.935 C319.338,234.294 318.862,235.688 318.862,238.272 C318.862,240.176 319.066,241.467 320.154,243.031 C320.936,244.153 321.922,244.799 323.52,244.799 C326.104,244.799 327.769,241.638 327.769,238 L327.769,238 Z" id="Fill-21" sketch:type="MSShapeGroup"></path>
                <path d="M345.993,238.51 C345.993,240.142 345.993,241.808 346.061,242.522 C346.163,243.575 346.537,243.711 346.945,243.711 C347.149,243.711 347.659,243.711 348.066,243.609 C348.339,243.541 348.44,243.609 348.475,243.745 L348.577,244.187 C348.61,244.391 348.543,244.46 348.406,244.493 L344.837,245.683 C344.633,245.751 344.429,245.819 344.157,245.819 C344.021,245.819 343.885,245.751 343.852,245.411 L343.579,243.44 L343.512,243.44 C342.559,244.765 340.588,245.819 338.888,245.819 C337.935,245.819 336.814,245.717 335.692,244.255 C334.298,242.454 334.366,241.332 334.366,237.592 L334.366,233.614 C334.332,232.663 333.856,232.424 333.074,232.322 C332.496,232.289 332.326,232.254 332.326,232.085 L332.326,231.473 C332.326,231.269 332.395,231.201 332.7,231.201 L335.726,231.201 C335.93,231.201 336.066,231.166 336.202,231.132 C336.338,231.132 336.474,231.099 336.576,231.099 C336.814,231.099 336.984,231.269 336.95,231.506 C336.916,231.812 336.814,233.41 336.814,235.416 L336.814,237.864 C336.814,239.224 336.474,241.399 337.561,242.963 C338.412,244.187 339.363,244.255 340.281,244.255 C341.199,244.255 342.559,243.372 343.205,242.555 C343.341,242.385 343.545,241.943 343.545,241.638 L343.545,233.512 C343.478,232.56 342.934,232.391 342.083,232.322 C341.506,232.322 341.336,232.254 341.336,232.085 L341.336,231.506 C341.336,231.234 341.403,231.201 341.743,231.201 L344.905,231.201 C345.143,231.201 345.313,231.166 345.483,231.132 C345.653,231.132 345.789,231.099 345.891,231.099 C346.095,231.099 346.23,231.269 346.197,231.439 C346.163,231.745 345.993,232.628 345.993,235.96 L345.993,238.51" id="Fill-22" sketch:type="MSShapeGroup"></path>
                <path d="M354.766,241.162 C354.766,243.711 355.922,244.153 356.534,244.153 C357.315,244.153 358.302,244.017 358.777,243.711 C358.947,243.609 359.084,243.643 359.186,243.779 L359.355,244.085 C359.457,244.221 359.39,244.357 359.287,244.46 C358.947,244.799 357.554,245.819 355.514,245.819 C353.848,245.819 352.216,244.221 352.216,242.929 C352.216,241.536 352.318,238.544 352.318,238.068 L352.318,237.32 C352.318,236.708 352.353,234.396 352.386,232.968 L350.313,232.968 C350.007,232.968 349.803,232.832 349.803,232.56 C349.803,232.289 350.007,232.186 350.414,231.949 C351.23,231.473 353.848,228.855 354.29,227.699 C354.392,227.427 354.562,227.359 354.766,227.359 C355.038,227.359 355.106,227.597 355.106,227.869 L354.936,231.201 L359.661,231.201 C359.865,231.201 359.968,231.371 359.899,231.506 L359.56,232.696 C359.525,232.866 359.457,232.968 359.254,232.968 L354.868,232.968 C354.8,234.532 354.766,236.198 354.766,237.762 L354.766,241.162" id="Fill-23" sketch:type="MSShapeGroup"></path>
            </g>
            <path d="M132.258,63.39 C132.292,63.254 132.224,63.186 132.02,63.152 L131.578,63.118 C131.34,63.084 131.272,63.118 131.238,63.22 C131.102,63.934 130.898,64.342 130.694,64.342 C130.49,64.342 130.388,64.342 130.218,64.24 C129.674,63.866 128.076,62.71 126.206,62.71 C121.344,62.71 119.406,66.246 119.406,68.694 C119.406,72.4 121.31,74.202 123.418,76.514 C124.914,78.146 126.58,79.472 126.58,81.512 C126.58,83.178 125.356,84.81 123.214,84.81 C121.072,84.81 118.794,82.498 119.406,77.806 C119.44,77.602 119.372,77.5 119.27,77.466 L118.522,77.33 C118.386,77.296 118.284,77.296 118.216,77.466 L115.7,84.878 C115.632,85.116 115.666,85.15 115.836,85.218 L116.278,85.388 C116.482,85.49 116.55,85.422 116.618,85.286 C116.856,84.776 117.298,84.266 117.502,83.994 C117.672,83.79 118.114,83.756 118.42,84.13 C119.372,85.252 120.936,86.51 123.112,86.51 C127.124,86.51 130.286,84.096 130.286,79.812 C130.286,75.868 127.974,73.964 126.41,72.4 C124.846,70.802 123.282,69.714 123.282,67.402 C123.282,66.178 124.2,64.41 126.104,64.41 C129.47,64.41 129.844,68.354 129.742,69.714 C129.742,69.918 129.776,70.02 130.014,70.02 L130.762,70.054 C130.932,70.054 131,69.986 131.034,69.85 L132.258,63.39 Z M139.67,68.286 C139.262,68.354 139.126,68.49 139.058,68.728 L138.038,72.196 C135.216,73.182 133.55,75.188 132.802,76.208 C132.734,76.31 132.666,76.48 132.802,76.582 L133.142,76.888 C133.278,76.99 133.414,76.956 133.516,76.82 C134.06,76.072 135.726,74.61 137.324,74.202 L131.068,92.29 C130.388,94.228 129.538,94.976 128.484,94.976 L127.702,94.976 C127.532,94.976 127.464,95.112 127.43,95.248 L127.26,95.928 C127.226,96.132 127.294,96.2 127.498,96.2 C127.872,96.2 128.79,96.098 131.952,96.098 C134.808,96.098 135.828,96.2 136.202,96.2 C136.474,96.2 136.576,96.098 136.61,95.996 L136.814,95.248 C136.848,95.112 136.78,94.976 136.61,94.976 L135.658,94.976 C134.4,94.976 134.128,94.432 134.706,92.664 L136.882,86 C139.636,85.694 142.356,84.708 144.09,83.45 C147.184,81.206 148.272,78.792 148.272,76.242 C148.272,73.454 146.368,71.482 143.104,71.482 C142.764,71.482 142.288,71.482 141.982,71.55 L143.818,67.538 C143.852,67.436 143.92,67.334 143.92,67.266 C143.92,67.198 143.852,67.13 143.75,67.13 C143.682,67.13 143.614,67.164 143.546,67.198 L139.67,68.286 Z M141.37,73.318 C141.71,73.25 142.016,73.25 142.254,73.25 C143.206,73.25 144.328,74.168 144.328,77.126 C144.328,81.342 140.146,84.3 137.358,84.742 L141.37,73.318 Z M153.576,86 C153.78,86 153.95,85.932 154.018,85.762 L155.106,82.328 C155.514,81.07 155.888,80.084 156.228,79.268 C156.976,77.534 158.812,74.848 159.866,74.848 C160.308,74.848 160.546,75.086 160.818,75.256 C161.124,75.46 161.498,75.528 161.94,75.528 C162.552,75.528 163.47,74.508 163.47,73.318 C163.47,72.23 162.518,71.482 161.532,71.482 C159.05,71.482 157.01,75.664 156.16,77.534 L155.786,77.33 C156.602,75.12 157.248,73.454 157.248,72.842 C157.248,72.196 156.806,71.482 155.48,71.482 C152.522,71.482 150.584,73.998 150.04,74.984 C149.938,75.222 149.938,75.324 150.04,75.392 L150.38,75.63 C150.516,75.732 150.652,75.698 150.788,75.494 C151.264,74.746 152.488,73.624 153.032,73.624 C153.372,73.624 153.61,73.93 153.61,74.27 C153.61,74.916 152.556,78.282 151.978,80.186 L150.346,85.694 C150.278,85.864 150.414,86 150.652,86 L153.576,86 Z M171.392,82.056 C171.324,81.988 171.188,81.988 171.12,82.09 C170.916,82.396 169.284,84.198 168.604,84.198 C168.264,84.198 168.162,83.96 168.162,83.722 C168.162,83.382 168.264,82.906 168.706,81.648 L170.542,76.446 C171.222,74.474 171.63,73.454 171.63,72.706 C171.63,72.026 171.188,71.482 170.134,71.482 C166.496,71.482 163.776,75.46 163.606,75.664 C163.538,75.732 163.606,75.868 163.708,75.97 L164.014,76.276 C164.116,76.378 164.252,76.378 164.388,76.242 C164.796,75.698 166.326,73.964 166.87,73.964 C167.176,73.964 167.312,74.168 167.312,74.406 C167.312,74.814 167.108,75.426 166.802,76.31 L165.884,78.996 C164.456,83.144 163.878,84.708 163.878,85.32 C163.878,85.83 164.184,86.34 165.204,86.34 C169.556,86.34 171.664,83.076 171.834,82.804 C171.936,82.634 171.902,82.566 171.8,82.464 L171.392,82.056 Z M170.406,63.9 C169.25,63.9 168.298,64.92 168.298,65.974 C168.298,67.266 169.148,68.048 170.474,68.048 C171.732,68.048 172.82,66.858 172.82,65.804 C172.82,64.75 172.038,63.9 170.406,63.9 L170.406,63.9 Z M176.628,86 C177.002,86 177.07,85.932 177.138,85.796 L178.464,81.988 C178.668,81.41 179.382,80.322 180.13,79.132 C181.49,76.922 184.006,74.202 184.788,74.202 C185.196,74.202 185.468,74.406 185.468,74.95 C185.468,75.562 184.652,77.84 184.108,79.404 C183.054,82.396 182.34,84.436 182.34,85.048 C182.34,85.728 182.68,86.34 183.7,86.34 C186.93,86.34 189.004,83.926 189.412,83.382 C189.514,83.246 189.514,83.076 189.378,82.974 L189.072,82.702 C188.97,82.6 188.834,82.566 188.732,82.702 C188.392,83.11 187.27,84.164 186.862,84.164 C186.59,84.164 186.42,83.994 186.42,83.586 C186.42,83.178 186.692,82.43 187.508,80.118 C189.004,75.936 189.48,74.508 189.48,73.76 C189.48,72.808 188.766,71.482 187.304,71.482 C183.938,71.482 181.116,75.97 180.096,77.466 L179.79,77.228 C180.708,75.12 181.422,73.284 181.422,72.808 C181.422,72.264 181.082,71.482 180.062,71.482 C176.526,71.482 174.384,74.236 173.874,74.916 C173.772,75.052 173.772,75.154 173.908,75.256 L174.248,75.63 C174.35,75.732 174.486,75.698 174.588,75.596 C175.03,75.086 176.356,73.76 176.866,73.76 C177.138,73.76 177.308,73.964 177.308,74.304 C177.308,74.712 176.56,76.956 175.778,79.098 L173.432,85.626 C173.364,85.83 173.5,86 173.738,86 L176.628,86 Z M195.736,96.098 C198.49,96.098 200.054,95.622 201.516,94.874 C203.726,93.752 204.168,92.222 204.168,91.032 C204.168,89.978 203.59,88.72 201.516,87.564 C199.034,86.17 197.3,85.32 196.62,84.946 C196.314,84.776 195.77,84.334 195.77,83.96 C195.77,83.45 196.212,82.838 196.926,82.532 C197.028,82.498 197.674,82.43 198.456,82.328 C202.4,81.818 204.304,77.704 204.304,76.106 C204.304,75.324 204.27,74.712 204.1,74.304 C204.27,74.134 204.61,73.998 204.848,73.998 C205.086,73.998 205.256,74.202 205.426,74.372 C205.698,74.644 206.106,74.882 206.514,74.882 C207.33,74.882 207.908,74.304 207.942,73.42 C207.908,72.706 207.432,71.856 206.344,71.856 C205.29,71.856 204.236,72.536 203.522,73.08 C203.182,72.57 202.128,71.482 199.816,71.482 C195.09,71.482 192.608,75.426 192.608,77.874 C192.608,80.356 193.458,81.206 195.498,82.226 L195.498,82.294 C193.662,83.076 192.438,84.062 192.438,84.844 C192.438,85.626 192.744,86.204 193.764,86.952 C192.676,87.394 190.806,88.108 189.412,89.23 C188.256,90.182 188.086,90.726 188.086,91.848 C188.086,94.126 191.35,96.098 195.736,96.098 L195.736,96.098 Z M196.382,79.608 C196.382,77.67 196.28,76.922 197.742,74.27 C198.388,73.08 198.83,72.672 199.578,72.672 C200.53,72.672 200.53,73.42 200.53,74.814 C200.53,77.432 199.136,81.206 197.402,81.206 C196.688,81.206 196.382,80.764 196.382,79.608 L196.382,79.608 Z M196.688,94.84 C193.968,94.84 191.962,93.752 191.962,91.304 C191.962,89.502 193.118,88.516 194.512,87.666 C195.124,88.074 197.266,89.23 197.64,89.434 C199.578,90.556 200.122,90.964 200.122,92.392 C200.122,94.126 198.116,94.84 196.688,94.84 L196.688,94.84 Z" id="Spring" sketch:type="MSShapeGroup"></path>
        </g>
    </g>
</svg>