<?xml version="1.0" encoding="UTF-8" standalone="no"?>
<svg width="519px" height="230px" viewBox="0 0 519 230" version="1.1" xmlns="http://www.w3.org/2000/svg" xmlns:xlink="http://www.w3.org/1999/xlink" xmlns:sketch="http://www.bohemiancoding.com/sketch/ns">
    <!-- Generator: Sketch 3.2.2 (9983) - http://www.bohemiancoding.com/sketch -->
    <title>夏文字</title>
    <desc>Created with Sketch.</desc>
    <defs></defs>
    <g id="Page-1" stroke="none" stroke-width="1" fill="none" fill-rule="evenodd" sketch:type="MSPage">
        <g id="夏文字" sketch:type="MSArtboardGroup" fill="#FFFFFF">
            <g id="Imported-Layers" sketch:type="MSLayerGroup">
                <path d="M92.1862813,72.532 C92.067052,73.366 85.3902119,77.293 76.6854721,77.293 L89.3237765,89.074 C88.3709441,90.383 87.1786513,90.74 84.0776879,90.978 C80.1431214,95.263 75.4931792,98.951 70.3653179,102.164 C78.9508285,103.474 88.6094027,103.949 99.4592678,103.949 C102.916917,103.949 106.493796,103.949 110.190906,103.831 L110.071676,105.259 C104.10921,107.758 101.247707,112.518 100.651561,119.896 C80.7392678,118.349 66.6702119,115.017 55.9395761,109.305 C40.3195376,115.493 21.6005395,118.587 1.09210019,120.134 L0.853641618,118.706 C18.1428902,115.493 34.0013873,110.376 46.5194605,102.997 C42.8233526,100.022 39.6041618,96.571 36.5042004,92.645 C26.8466281,98.714 15.4006166,103.949 2.8805395,107.163 L2.04593449,106.092 C17.9034297,98.356 31.6157996,83.957 38.6503276,71.699 L35.1926782,71.699 C35.1926782,73.961 31.0196532,78.602 18.2621195,78.602 L18.2621195,24.812 L36.1465125,31.715 L46.8771484,31.715 C47.1156069,28.025 47.2358382,23.027 47.1156069,19.576 L0.733410405,19.576 L0.139267823,17.672 L85.1507514,17.672 L93.9747206,6.604 L110.190906,17.91 C109.355299,19.219 107.805318,19.576 104.466898,19.576 L66.1942967,19.576 C63.0933333,23.503 58.8000771,28.264 55.1039692,31.715 L73.7047399,31.715 L79.9056647,23.741 L96.3593064,35.166 C95.6439306,35.999 94.3324085,36.951 92.1862813,37.427 L92.1862813,72.532 L92.1862813,72.532 Z M35.1926782,44.21 L74.8980347,44.21 L74.8980347,33.618 L35.1926782,33.618 L35.1926782,44.21 Z M35.1926782,56.943 L74.8980347,56.943 L74.8980347,46.114 L35.1926782,46.114 L35.1926782,56.943 Z M35.1926782,69.796 L74.8980347,69.796 L74.8980347,58.848 L35.1926782,58.848 L35.1926782,69.796 Z M45.5666281,86.218 C43.5387283,87.884 41.2733719,89.432 39.0090173,90.978 C43.0618112,94.072 47.9502119,96.452 53.6732177,98.356 C58.6808478,94.786 62.8548748,90.74 66.313526,86.218 L45.5666281,86.218 L45.5666281,86.218 Z M74.8980347,71.699 L45.8050867,71.699 L61.1866667,75.15 C60.7087476,76.698 59.1587669,77.531 55.1039692,77.649 C52.957842,79.911 50.5742582,82.053 47.9502119,84.314 L65.9548362,84.314 L74.8980347,76.698 L74.8980347,71.699 L74.8980347,71.699 Z" id="Fill-1" sketch:type="MSShapeGroup"></path>
                <path d="M278.139884,197.669 L280.00447,194.743 L284.952987,198.352 C284.268671,199.188 282.25079,199.644 280.00447,199.872 L280.00447,201.393 C281.108593,213.246 287.541965,221.453 298.50605,225.595 L298.39183,226.013 C296.37395,226.24 295.079461,227.57 294.279923,229.85 C288.911599,226.963 282.898035,219.934 281.07052,211.688 C278.405395,219.743 272.049171,226.24 263.026821,229.774 L262.722235,229.356 C271.32578,224.797 278.139884,214.234 279.129788,201.354 L279.091715,198.429 L270.183584,198.429 L269.955145,197.669 L278.139884,197.669" id="Fill-2" sketch:type="MSShapeGroup"></path>
                <path d="M365.482852,42.887 C365.183276,42.706 365.183276,42.347 365.12316,42.046 L364.101195,36.347 C364.041079,36.047 364.221426,35.927 364.461888,35.866 L365.243391,35.686 C365.482852,35.627 365.6642,35.746 365.784432,36.047 L367.287322,38.986 C368.488632,41.206 369.33025,42.706 372.51738,42.706 C374.621426,42.706 377.265511,41.446 377.265511,38.627 C377.265511,35.927 375.943969,34.366 371.435299,33.106 C367.888478,32.087 364.341657,30.227 364.341657,25.487 C364.341657,21.348 368.249171,18.167 372.75684,18.167 C375.642389,18.167 377.206397,18.888 378.288478,19.428 C379.18921,19.848 379.309441,20.147 379.370559,20.507 L380.271291,24.707 C380.271291,24.947 380.15106,25.127 379.850482,25.247 L379.130096,25.487 C378.888632,25.547 378.768401,25.487 378.588054,25.187 L376.544123,22.427 C375.823738,21.287 374.680539,20.087 372.336031,20.087 C370.05264,20.087 367.708131,21.467 367.708131,24.047 C367.708131,27.527 370.532563,28.186 373.479229,29.027 C377.867669,30.287 380.632987,32.087 380.6921,36.707 C380.632987,41.566 376.665356,44.626 371.55553,44.626 C368.609865,44.626 366.205241,43.426 365.482852,42.887" id="Fill-3" sketch:type="MSShapeGroup"></path>
                <path d="M387.497187,11.208 C387.497187,7.548 386.7758,6.888 384.611638,6.168 L383.589672,5.808 C383.228979,5.687 383.168863,5.628 383.168863,5.448 L383.168863,4.908 C383.168863,4.668 383.34921,4.607 383.89025,4.308 L390.142274,1.008 C390.623198,0.768 391.044008,0.528 391.524933,0.528 C391.885626,0.528 392.126089,1.008 392.005857,2.028 C391.885626,3.048 391.824509,15.227 391.824509,18.227 L391.824509,22.067 L392.126089,22.067 C394.230135,19.547 397.715838,18.167 400.361927,18.167 C402.88578,18.167 404.630135,18.947 406.31237,20.567 C409.017572,23.087 408.897341,26.146 408.897341,29.387 L408.897341,32.807 C408.897341,36.167 409.017572,39.887 409.017572,41.026 C409.017572,41.746 409.980424,41.927 411.24185,41.927 L412.263815,41.927 C412.74474,41.927 412.925087,42.046 412.925087,42.467 L412.925087,43.366 C412.925087,43.847 412.804855,44.086 412.44316,44.086 C412.023353,44.086 410.099653,43.906 406.673064,43.906 C403.727399,43.906 401.563237,44.086 401.022197,44.086 C400.601387,44.086 400.481156,43.906 400.481156,43.426 L400.481156,42.406 C400.481156,42.106 400.542274,41.927 400.901965,41.927 L402.285626,41.927 C403.30659,41.927 404.509904,41.806 404.569017,40.786 C404.630135,39.946 404.569017,36.767 404.569017,34.847 L404.569017,29.986 C404.569017,26.627 404.328555,24.227 402.586204,22.607 C401.38289,21.467 400.121464,20.927 398.618574,20.927 C396.87422,20.927 394.710058,21.527 393.027823,23.447 C392.486782,24.107 391.824509,25.307 391.824509,26.387 L391.824509,39.467 C391.824509,41.387 392.005857,41.927 393.148054,41.927 L394.951522,41.927 C395.371329,41.927 395.612794,42.046 395.612794,42.406 L395.612794,43.426 C395.612794,43.847 395.492563,44.086 395.130867,44.086 C394.650944,44.086 392.186204,43.906 389.420886,43.906 C386.415106,43.906 384.130713,44.086 383.589672,44.086 C383.34921,44.086 383.168863,43.906 383.168863,43.486 L383.168863,42.406 C383.168863,41.986 383.409326,41.927 384.070597,41.927 L385.333025,41.927 C386.294875,41.927 387.196609,41.686 387.31684,40.967 C387.497187,39.826 387.497187,33.227 387.497187,29.327 L387.497187,11.208" id="Fill-4" sketch:type="MSShapeGroup"></path>
                <path d="M417.739345,40.486 C414.975029,37.186 414.433988,34.967 414.433988,30.707 C414.433988,27.646 416.05711,23.807 419.603931,21.047 C422.729942,18.647 425.675607,18.167 427.659422,18.167 C430.96578,18.167 434.271137,19.848 436.075607,21.647 C438.779807,24.407 440.162466,27.527 440.162466,31.427 C440.162466,37.967 434.271137,44.626 426.877919,44.626 C423.99237,44.626 420.265202,43.486 417.739345,40.486 L417.739345,40.486 Z M435.112755,30.827 C435.112755,24.167 430.243391,19.967 427.178497,19.967 C425.555376,19.967 423.99237,20.327 422.549595,21.887 C420.204085,24.287 419.363468,26.747 419.363468,31.307 C419.363468,34.667 419.724162,36.946 421.647861,39.706 C423.03052,41.686 424.773873,42.826 427.598304,42.826 C432.167091,42.826 435.112755,37.246 435.112755,30.827 L435.112755,30.827 Z" id="Fill-5" sketch:type="MSShapeGroup"></path>
                <path d="M465.957071,31.727 C465.957071,34.606 465.957071,37.547 466.077303,38.807 C466.257649,40.666 466.917919,40.906 467.640308,40.906 C468.001002,40.906 468.902736,40.906 469.624123,40.727 C470.105048,40.606 470.285395,40.727 470.344509,40.967 L470.525857,41.746 C470.585973,42.106 470.465742,42.227 470.224277,42.286 L463.914143,44.387 C463.552447,44.506 463.191753,44.626 462.710829,44.626 C462.470366,44.626 462.229904,44.506 462.169788,43.906 L461.688863,40.427 L461.569634,40.427 C459.885395,42.767 456.399692,44.626 453.393911,44.626 C451.710674,44.626 449.725857,44.446 447.743044,41.866 C445.278304,38.686 445.398536,36.707 445.398536,30.106 L445.398536,23.087 C445.337418,21.407 444.496802,20.987 443.114143,20.808 C442.092177,20.747 441.791599,20.687 441.791599,20.387 L441.791599,19.308 C441.791599,18.947 441.91183,18.827 442.452871,18.827 L447.802158,18.827 C448.163854,18.827 448.404316,18.768 448.643776,18.707 C448.885241,18.707 449.125703,18.647 449.305048,18.647 C449.725857,18.647 450.027437,18.947 449.967322,19.367 C449.907206,19.907 449.725857,22.727 449.725857,26.267 L449.725857,30.587 C449.725857,32.986 449.125703,36.826 451.049403,39.586 C452.552293,41.746 454.234528,41.866 455.857649,41.866 C457.481773,41.866 459.885395,40.306 461.028593,38.866 C461.268054,38.566 461.628748,37.786 461.628748,37.246 L461.628748,22.907 C461.508516,21.227 460.546667,20.927 459.043776,20.808 C458.022813,20.808 457.722235,20.687 457.722235,20.387 L457.722235,19.367 C457.722235,18.888 457.841464,18.827 458.443622,18.827 L464.033372,18.827 C464.454181,18.827 464.754759,18.768 465.055337,18.707 C465.355915,18.707 465.596378,18.647 465.776724,18.647 C466.137418,18.647 466.376879,18.947 466.317765,19.247 C466.257649,19.787 465.957071,21.348 465.957071,27.227 L465.957071,31.727" id="Fill-6" sketch:type="MSShapeGroup"></path>
                <path d="M479.526166,36.406 C479.526166,40.906 481.570096,41.686 482.652177,41.686 C484.034836,41.686 485.777187,41.446 486.619807,40.906 C486.919383,40.727 487.159846,40.786 487.340193,41.026 L487.640771,41.566 C487.821118,41.806 487.700886,42.046 487.520539,42.227 C486.919383,42.826 484.455645,44.626 480.848709,44.626 C477.902042,44.626 475.017495,41.806 475.017495,39.526 C475.017495,37.066 475.19684,31.787 475.19684,30.947 L475.19684,29.627 C475.19684,28.547 475.257958,24.467 475.317071,21.947 L471.651021,21.947 C471.109981,21.947 470.749287,21.707 470.749287,21.227 C470.749287,20.747 471.109981,20.567 471.831368,20.147 C473.273141,19.308 477.902042,14.687 478.684547,12.647 C478.863892,12.168 479.16447,12.048 479.526166,12.048 C480.006089,12.048 480.12632,12.468 480.12632,12.947 L479.825742,18.827 L488.181811,18.827 C488.543507,18.827 488.722852,19.127 488.60262,19.367 L488.002466,21.467 C487.941349,21.768 487.821118,21.947 487.461426,21.947 L479.705511,21.947 C479.585279,24.707 479.526166,27.646 479.526166,30.407 L479.526166,36.406" id="Fill-7" sketch:type="MSShapeGroup"></path>
                <path d="M133.367476,23.904 L135.011638,25.044 C134.851329,25.345 134.630906,25.505 134.049788,25.505 L120.380501,25.505 L120.380501,32.926 C120.380501,33.966 121.422505,34.126 123.006551,34.126 L129.179422,34.126 C130.16131,34.126 131.584046,34.086 132.445703,33.727 C133.148054,33.727 133.588902,33.887 133.588902,34.106 C133.588902,34.526 132.986744,34.967 129.278613,34.967 L123.145819,34.967 C120.840385,34.967 119.478767,34.486 119.478767,32.886 L119.478767,25.505 L116.572177,25.505 L116.431908,24.984 L125.230829,24.984 L125.230829,21.903 L126.99422,22.044 C126.975183,22.344 126.773796,22.464 126.132563,22.563 L126.132563,24.984 L132.505819,24.984 L133.367476,23.904 L133.367476,23.904 Z M121.743121,20.003 L116.592216,20.003 L116.471985,19.483 L121.743121,19.483 L121.743121,17.102 L123.446397,17.223 C123.42736,17.522 123.26605,17.623 122.644855,17.703 L122.644855,19.483 L128.598304,19.483 L128.598304,17.102 L130.30158,17.223 C130.281541,17.522 130.121233,17.602 129.500039,17.683 L129.500039,19.483 L132.445703,19.483 L133.247245,18.403 L134.891407,19.563 C134.71106,19.863 134.489634,20.003 133.929557,20.003 L129.500039,20.003 L129.500039,21.844 C129.500039,21.863 129.419884,22.224 128.598304,22.224 L128.598304,20.003 L122.644855,20.003 L122.644855,21.924 C122.644855,22.004 122.505588,22.264 121.743121,22.264 L121.743121,20.003 L121.743121,20.003 Z" id="Fill-8" sketch:type="MSShapeGroup"></path>
                <path d="M120.641002,47.524 L120.641002,49.864 C122.72501,50.745 123.387283,51.805 123.387283,52.425 C123.387283,52.745 123.206936,52.945 122.966474,52.945 C122.846243,52.945 122.72501,52.905 122.585742,52.805 C122.264123,52.025 121.382428,50.925 120.641002,50.225 L120.641002,59.167 C120.641002,59.206 120.520771,59.526 119.739268,59.526 L119.739268,50.205 C119.016879,52.205 117.995915,54.046 116.652331,55.626 L116.351753,55.326 C117.834605,53.125 118.837534,50.324 119.418651,47.524 L116.732486,47.524 L116.592216,47.004 L119.739268,47.004 L119.739268,43.263 C118.737341,43.583 117.674297,43.883 116.67237,44.083 L116.5321,43.743 C118.515915,43.123 120.94158,41.963 122.143892,41.142 L123.486474,42.102 C123.40632,42.203 123.26605,42.263 123.086705,42.263 C122.945434,42.263 122.785125,42.223 122.585742,42.163 C122.044701,42.403 121.382428,42.683 120.641002,42.943 L120.641002,47.004 L121.502659,47.004 L122.264123,46.023 L123.767013,47.063 C123.587669,47.384 123.387283,47.524 122.846243,47.524 L120.641002,47.524 L120.641002,47.524 Z M133.568863,57.187 L135.131869,58.286 C134.971561,58.606 134.751137,58.746 134.190058,58.746 L122.625819,58.746 L122.484547,58.227 L128.396917,58.227 L128.396917,55.926 L123.807091,55.926 L123.667823,55.405 L128.396917,55.405 L128.396917,53.145 L125.170713,53.145 L125.170713,53.806 C125.170713,53.825 125.030443,54.125 124.267977,54.125 L124.267977,47.044 L125.270906,47.544 L128.396917,47.544 L128.396917,45.644 L123.225973,45.644 L123.086705,45.123 L128.396917,45.123 L128.396917,43.144 C126.873988,43.403 125.250867,43.583 123.7079,43.684 L123.627746,43.303 C126.813873,42.883 130.642235,41.903 132.62605,41.083 L133.88948,42.223 C133.809326,42.303 133.689094,42.343 133.548825,42.343 C133.388516,42.343 133.188131,42.303 132.967707,42.203 C131.945742,42.483 130.682312,42.743 129.299653,43.003 L129.299653,45.123 L132.687168,45.123 L133.508748,44.103 L135.051715,45.184 C134.891407,45.504 134.670983,45.644 134.129942,45.644 L129.299653,45.644 L129.299653,47.544 L132.526859,47.544 L133.007784,46.924 L134.390443,47.924 C134.270212,48.065 133.948593,48.225 133.60894,48.284 L133.60894,53.565 C133.588902,53.645 133.287322,53.945 132.706204,53.945 L132.706204,53.145 L129.299653,53.145 L129.299653,55.405 L132.146127,55.405 L132.92763,54.405 L134.470597,55.466 C134.310289,55.786 134.089865,55.926 133.527784,55.926 L129.299653,55.926 L129.299653,58.227 L132.746281,58.227 L133.568863,57.187 L133.568863,57.187 Z M125.170713,50.045 L128.397919,50.045 L128.397919,48.065 L125.170713,48.065 L125.170713,50.045 Z M125.170713,52.625 L128.397919,52.625 L128.397919,50.564 L125.170713,50.564 L125.170713,52.625 Z M129.299653,50.045 L132.706204,50.045 L132.706204,48.065 L129.299653,48.065 L129.299653,50.045 Z M129.299653,52.625 L132.706204,52.625 L132.706204,50.564 L129.299653,50.564 L129.299653,52.625 Z" id="Fill-9" sketch:type="MSShapeGroup"></path>
                <path d="M507.754451,152.156 C508.492871,152.028 509.262351,151.884 510.047861,151.724 L510.080925,151.9 C509.150135,152.492 507.706358,153.356 505.621349,154.413 C505.541195,154.605 505.380886,154.766 505.189518,154.813 L504.338882,152.732 C504.723622,152.684 505.332794,152.589 506.087245,152.46 L506.087245,147.002 L504.531252,147.002 L504.4521,146.682 L506.087245,146.682 L506.087245,142.473 L508.444778,142.696 C508.412717,142.936 508.251407,143.032 507.754451,143.112 L507.754451,146.682 L507.89973,146.682 L508.668208,145.418 L510.047861,146.73 C509.904586,146.938 509.695183,147.002 509.295414,147.002 L507.754451,147.002 L507.754451,152.156 L507.754451,152.156 Z M519.077225,153.821 L519.061195,155.662 C519.606243,155.901 519.654335,155.966 519.654335,156.174 C519.654335,156.766 519.253565,157.134 517.857881,157.134 L516.30289,157.134 C514.795992,157.134 514.507437,156.798 514.507437,155.422 L514.507437,152.877 L514.138728,152.877 C514.057572,152.973 513.913295,153.036 513.640771,153.053 C513.272062,155.021 512.342274,156.67 507.962852,157.343 L507.819576,157.102 C511.026744,156.318 511.668979,154.766 511.844316,153.165 C511.331329,153.581 510.658035,153.581 510.304355,153.581 L510.304355,148.171 L512.053719,148.875 L516.399075,148.875 L517.057341,147.994 L518.900886,149.291 C518.804701,149.419 518.58027,149.547 518.243622,149.627 L518.243622,152.973 C518.243622,152.988 517.794759,153.421 516.559383,153.421 L516.559383,152.925 C516.49526,152.973 516.367013,153.005 516.190674,153.036 L516.190674,155.422 C516.190674,155.773 516.206705,155.773 516.527322,155.773 L517.826821,155.773 C518.099345,155.773 518.194528,155.758 518.307746,155.55 C518.435992,155.342 518.660424,154.701 518.948979,153.821 L519.077225,153.821 L519.077225,153.821 Z M509.872524,144.569 L509.775337,144.265 L513.400308,144.265 L513.400308,142.265 L515.773873,142.473 C515.741811,142.713 515.581503,142.824 515.084547,142.904 L515.084547,144.265 L516.655568,144.265 L517.586358,142.984 L519.270597,144.297 C519.142351,144.505 518.948979,144.569 518.500116,144.569 L516.238767,144.569 L517.938035,145.081 C517.874913,145.258 517.714605,145.338 517.312832,145.306 C516.847938,145.834 516.126551,146.586 515.501349,147.21 L517.040308,147.21 L517.971098,145.962 L519.719461,147.242 C519.590212,147.45 519.398844,147.53 518.948979,147.53 L509.326474,147.53 L509.230289,147.21 L512.454489,147.21 L512.454489,147.194 C512.214027,147.162 511.988593,147.05 511.812254,146.794 C511.87738,146.105 511.684008,145.241 511.34736,144.713 L511.475607,144.633 C512.983507,145.098 513.496493,145.754 513.496493,146.298 C513.496493,146.762 513.094721,147.146 512.645857,147.194 L512.645857,147.21 L515.084547,147.21 C515.292948,146.426 515.549441,145.353 515.724778,144.569 L509.872524,144.569 L509.872524,144.569 Z M511.972563,150.716 L516.559383,150.716 L516.559383,149.195 L511.972563,149.195 L511.972563,150.716 Z M511.972563,152.557 L516.559383,152.557 L516.559383,151.036 L511.972563,151.036 L511.972563,152.557 Z" id="Fill-10" sketch:type="MSShapeGroup"></path>
                <path d="M475.247938,158.059 L477.312909,159.939 C477.171638,160.14 476.950212,160.22 476.430212,160.239 C473.944432,163.74 469.995838,167.001 465.326859,169.102 C466.729557,170.182 468.753449,170.361 471.940578,170.361 C473.523622,170.361 477.393064,170.361 479.075299,170.321 L479.075299,170.561 C478.333873,170.722 477.974181,171.481 477.954143,172.322 L471.880462,172.322 C467.612254,172.322 465.487168,171.542 464.064432,168.181 C463.541426,169.302 462.741888,170.941 462.28,171.762 C462.379191,171.901 462.42027,172.021 462.42027,172.142 C462.42027,172.302 462.340116,172.442 462.240925,172.561 L460.516609,170.882 C461.377264,170.161 462.861118,168.741 463.723776,167.761 L464.044393,166.16 L465.166551,166.421 L464.203699,167.881 C464.465202,168.261 464.725703,168.581 465.025279,168.861 C468.614181,166.561 472.059807,163.019 473.944432,159.68 L461.698882,159.68 L461.578651,159.279 L468.513988,159.279 L468.513988,154.318 L471.558844,154.618 C471.519769,154.898 471.340424,155.038 470.718227,155.139 L470.718227,159.279 L473.905356,159.279 L475.247938,158.059" id="Fill-11" sketch:type="MSShapeGroup"></path>
                <path d="M407.432524,191.332 C416.449865,184.972 416.257495,177.194 416.281541,169.682 L420.057803,170.018 C420.032755,170.354 419.840385,170.546 419.071908,170.618 C419.696108,178.274 422.077688,184.923 429.965857,189.075 L429.916763,189.34 C428.619268,189.531 427.801696,190.323 427.465048,191.716 C421.572717,187.611 419.672062,181.179 418.950674,174.507 L418.926628,174.507 C418.54289,180.795 416.93079,187.18 407.696031,191.691 L407.432524,191.332" id="Fill-12" sketch:type="MSShapeGroup"></path>
                <path d="M367.701118,193.275 C367.444624,193.659 367.060886,193.819 366.130096,193.819 L353.114066,193.819 C351.927784,200.604 348.562312,206.459 338.302582,210.843 L337.949904,210.362 C345.965318,205.499 348.690559,199.899 349.619345,193.819 L338.142274,193.819 L337.949904,193.18 L349.71553,193.18 C350.10027,190.395 350.132331,187.516 350.164393,184.572 L340.38659,184.572 L340.19422,183.933 L360.039383,183.933 L362.091329,181.276 L365.841541,184.028 C365.61711,184.444 365.200308,184.572 364.27052,184.572 L353.819422,184.572 C353.755299,187.548 353.659114,190.428 353.21025,193.18 L361.737649,193.18 L363.853719,190.46 L367.701118,193.275 L367.701118,193.275 Z M366.38659,202.427 L366.35553,207.003 C367.572871,207.482 367.797303,207.643 367.797303,208.123 C367.797303,209.402 366.835453,210.139 363.276609,210.139 L357.698882,210.139 C354.075915,210.139 353.306435,209.467 353.306435,206.331 L353.306435,195.707 L357.827129,196.06 C357.762004,196.443 357.602697,196.636 356.704971,196.764 L356.704971,206.394 C356.704971,207.259 356.769094,207.291 357.859191,207.291 L363.308671,207.291 C364.015029,207.291 364.334644,207.291 364.623198,206.778 C364.976879,206.267 365.456802,204.635 366.162158,202.427 L366.38659,202.427 L366.38659,202.427 Z" id="Fill-13" sketch:type="MSShapeGroup"></path>
                <path d="M425.779807,75.526 C425.779807,78.645 425.779807,87.705 425.839923,89.565 C425.899037,90.585 426.139499,91.426 427.401927,91.426 L430.107129,91.426 C430.64817,91.426 430.769403,91.605 430.769403,91.965 L430.769403,92.985 C430.769403,93.346 430.64817,93.585 430.407707,93.585 C429.986898,93.585 427.342813,93.405 423.615645,93.405 C419.768247,93.405 417.363622,93.585 416.822582,93.585 C416.522004,93.585 416.401773,93.346 416.401773,92.985 L416.401773,91.965 C416.401773,91.545 416.522004,91.426 417.183276,91.426 L420.068825,91.426 C420.730096,91.426 421.331252,91.006 421.391368,89.926 C421.451484,88.065 421.451484,77.746 421.451484,74.266 L421.451484,70.486 C421.451484,66.227 421.391368,60.767 421.271137,59.207 C421.150906,57.167 420.189056,56.207 418.265356,55.606 L417.063044,55.186 C416.762466,55.066 416.702351,55.007 416.702351,54.887 L416.702351,54.407 C416.702351,54.227 416.882697,54.106 417.243391,53.987 C419.347437,53.027 422.051638,51.947 424.276917,50.507 C424.816956,50.148 425.177649,50.027 425.539345,50.027 C425.960154,50.027 426.080385,50.327 426.019268,51.107 C425.960154,54.407 425.779807,66.887 425.779807,70.186 L425.779807,75.526" id="Fill-14" sketch:type="MSShapeGroup"></path>
                <path d="M434.958459,89.985 C432.193141,86.686 431.6521,84.466 431.6521,80.206 C431.6521,77.145 433.276224,73.306 436.823044,70.546 C439.949056,68.146 442.893719,67.666 444.878536,67.666 C448.183892,67.666 451.49025,69.347 453.293719,71.146 C455.997919,73.906 457.38158,77.026 457.38158,80.926 C457.38158,87.466 451.49025,94.125 444.096031,94.125 C441.210482,94.125 437.484316,92.985 434.958459,89.985 L434.958459,89.985 Z M452.331869,80.326 C452.331869,73.666 447.462505,69.466 444.396609,69.466 C442.773487,69.466 441.210482,69.826 439.767707,71.386 C437.423198,73.786 436.58158,76.246 436.58158,80.806 C436.58158,84.166 436.943276,86.445 438.866975,89.205 C440.249634,91.186 441.992987,92.325 444.817418,92.325 C449.386204,92.325 452.331869,86.745 452.331869,80.326 L452.331869,80.326 Z" id="Fill-15" sketch:type="MSShapeGroup"></path>
                <path d="M483.175183,81.226 C483.175183,84.105 483.175183,87.046 483.295414,88.306 C483.476763,90.165 484.137033,90.405 484.859422,90.405 C485.219114,90.405 486.120848,90.405 486.842235,90.226 C487.324162,90.105 487.503507,90.226 487.563622,90.466 L487.744971,91.245 C487.804085,91.605 487.683854,91.726 487.443391,91.785 L481.132254,93.885 C480.771561,94.005 480.410867,94.125 479.929942,94.125 C479.68948,94.125 479.448015,94.005 479.388902,93.405 L478.907977,89.926 L478.787746,89.926 C477.103507,92.266 473.617803,94.125 470.612023,94.125 C468.928786,94.125 466.944971,93.945 464.961156,91.365 C462.496416,88.186 462.617649,86.205 462.617649,79.606 L462.617649,72.586 C462.556532,70.906 461.714913,70.486 460.332254,70.306 C459.311291,70.246 459.010713,70.186 459.010713,69.887 L459.010713,68.806 C459.010713,68.446 459.129942,68.326 459.670983,68.326 L465.021272,68.326 C465.381965,68.326 465.62343,68.267 465.86289,68.206 C466.103353,68.206 466.343815,68.146 466.524162,68.146 C466.944971,68.146 467.246551,68.446 467.185434,68.866 C467.12632,69.406 466.944971,72.227 466.944971,75.766 L466.944971,80.086 C466.944971,82.485 466.343815,86.325 468.267514,89.086 C469.770405,91.245 471.453642,91.365 473.076763,91.365 C474.699884,91.365 477.103507,89.806 478.246705,88.365 C478.486166,88.065 478.847861,87.285 478.847861,86.745 L478.847861,72.406 C478.72763,70.727 477.76578,70.426 476.26289,70.306 C475.240925,70.306 474.940347,70.186 474.940347,69.887 L474.940347,68.866 C474.940347,68.387 475.059576,68.326 475.661734,68.326 L481.251484,68.326 C481.672293,68.326 481.973873,68.267 482.274451,68.206 C482.574027,68.206 482.815491,68.146 482.994836,68.146 C483.356532,68.146 483.595992,68.446 483.536879,68.746 C483.476763,69.286 483.175183,70.846 483.175183,76.726 L483.175183,81.226" id="Fill-16" sketch:type="MSShapeGroup"></path>
                <path d="M509.007861,56.867 C509.007861,54.587 508.587052,53.867 505.220578,53.327 C504.860886,53.267 504.799769,53.146 504.799769,52.907 L504.799769,51.887 C504.799769,51.646 504.92,51.527 505.281696,51.467 C507.625202,50.987 510.752216,50.447 511.89341,50.207 C512.434451,50.148 512.85526,50.027 513.276069,50.027 C513.576647,50.027 513.635761,50.447 513.576647,51.107 C513.396301,54.106 513.336185,62.806 513.336185,70.426 L513.336185,83.686 C513.336185,85.905 513.456416,88.546 513.937341,89.145 C514.478382,89.745 515.740809,90.105 516.582428,90.165 C517.424046,90.226 517.664509,90.285 517.78474,90.585 L517.904971,91.065 C517.965087,91.426 517.844855,91.605 517.48316,91.726 L510.691098,94.005 C510.330405,94.125 510.029827,93.945 509.909595,93.525 L509.128092,90.886 C507.205395,92.806 503.357996,94.125 500.291098,94.125 C498.308285,94.125 496.02289,94.245 493.198459,91.365 C490.132563,88.365 489.411175,85.666 489.411175,81.645 C489.411175,77.926 490.793834,74.266 493.619268,71.446 C495.963776,68.926 499.210019,67.666 502.575491,67.666 C505.040231,67.666 507.205395,68.026 509.007861,68.566 L509.007861,56.867 L509.007861,56.867 Z M509.007861,75.886 C509.007861,75.046 509.007861,73.906 508.466821,72.946 C507.625202,71.326 505.702505,69.706 502.155684,69.706 C500.291098,69.706 498.247168,70.246 496.685164,71.866 C494.340655,74.386 493.919846,77.566 493.919846,79.846 C493.919846,86.626 498.607861,91.545 502.094566,91.545 C505.46104,91.545 508.046012,89.806 508.647168,88.245 C508.947746,87.346 509.007861,86.865 509.007861,86.205 L509.007861,75.886 L509.007861,75.886 Z" id="Fill-17" sketch:type="MSShapeGroup"></path>
            </g>
            <path d="M122.258,107.39 C122.292,107.254 122.224,107.186 122.02,107.152 L121.578,107.118 C121.34,107.084 121.272,107.118 121.238,107.22 C121.102,107.934 120.898,108.342 120.694,108.342 C120.49,108.342 120.388,108.342 120.218,108.24 C119.674,107.866 118.076,106.71 116.206,106.71 C111.344,106.71 109.406,110.246 109.406,112.694 C109.406,116.4 111.31,118.202 113.418,120.514 C114.914,122.146 116.58,123.472 116.58,125.512 C116.58,127.178 115.356,128.81 113.214,128.81 C111.072,128.81 108.794,126.498 109.406,121.806 C109.44,121.602 109.372,121.5 109.27,121.466 L108.522,121.33 C108.386,121.296 108.284,121.296 108.216,121.466 L105.7,128.878 C105.632,129.116 105.666,129.15 105.836,129.218 L106.278,129.388 C106.482,129.49 106.55,129.422 106.618,129.286 C106.856,128.776 107.298,128.266 107.502,127.994 C107.672,127.79 108.114,127.756 108.42,128.13 C109.372,129.252 110.936,130.51 113.112,130.51 C117.124,130.51 120.286,128.096 120.286,123.812 C120.286,119.868 117.974,117.964 116.41,116.4 C114.846,114.802 113.282,113.714 113.282,111.402 C113.282,110.178 114.2,108.41 116.104,108.41 C119.47,108.41 119.844,112.354 119.742,113.714 C119.742,113.918 119.776,114.02 120.014,114.02 L120.762,114.054 C120.932,114.054 121,113.986 121.034,113.85 L122.258,107.39 Z M135.79,115.822 C135.518,115.822 135.348,115.856 135.28,116.06 L134.192,119.324 C133.716,120.752 133.308,121.636 132.73,122.622 C131.88,124.016 128.786,127.722 128.208,127.722 C127.936,127.722 127.63,127.484 127.63,127.11 C127.63,126.498 128.208,124.968 129.058,122.894 C130.418,119.562 130.894,117.828 130.894,117.08 C130.894,116.23 130.248,115.482 129.126,115.482 C125.794,115.482 124.026,117.828 123.312,118.746 C123.21,118.882 123.244,118.95 123.312,119.052 L123.652,119.392 C123.754,119.494 123.924,119.494 124.026,119.358 C124.808,118.406 125.862,117.59 126.338,117.59 C126.678,117.59 126.916,117.828 126.916,118.168 C126.916,118.61 126.474,120.106 125.556,122.35 C124.162,125.716 123.516,127.212 123.516,128.674 C123.448,129.252 124.4,130.34 125.284,130.34 C128.684,130.34 131.642,125.716 132.866,123.812 L133.24,124.016 C132.866,125.002 131.574,128.572 131.574,129.184 C131.574,129.898 132.118,130.34 133.002,130.34 C136.198,130.34 138.068,127.858 138.544,126.94 C138.612,126.77 138.646,126.634 138.544,126.566 L138.17,126.294 C138.068,126.192 137.932,126.192 137.83,126.328 C137.218,127.11 136.436,128.13 135.994,128.13 C135.79,128.13 135.586,128.028 135.552,127.722 C135.552,127.45 135.892,126.226 136.776,123.54 L139.156,116.264 C139.258,115.992 139.122,115.822 138.816,115.822 L135.79,115.822 Z M143.95,130 C144.188,130 144.358,129.966 144.426,129.762 L145.548,126.77 C146.024,125.546 146.534,124.594 146.976,123.948 C148.914,120.99 151.26,118.27 151.838,118.27 C152.314,118.27 152.416,118.576 152.416,118.95 C152.416,119.494 151.702,121.568 150.852,123.914 L148.812,129.558 C148.71,129.864 148.846,130 149.152,130 L152.042,130 C152.314,130 152.45,129.966 152.518,129.796 L153.572,126.804 C153.98,125.614 154.49,124.764 154.728,124.39 C156.904,121.126 159.25,118.27 159.794,118.27 C160.202,118.27 160.406,118.542 160.406,118.916 C160.406,119.528 160.1,120.48 159.046,123.268 C157.788,126.566 157.176,128.47 157.21,129.116 C157.244,129.66 157.652,130.34 158.774,130.34 C162.514,130.34 164.86,126.396 164.962,126.158 C165.064,125.92 165.064,125.818 164.928,125.716 L164.452,125.376 C164.384,125.342 164.282,125.342 164.18,125.512 C164.01,125.784 162.582,127.926 161.766,127.926 C161.528,127.926 161.392,127.722 161.358,127.45 C161.358,126.974 161.97,125.478 162.65,123.54 C163.5,121.126 164.418,118.508 164.418,117.386 C164.418,116.74 163.772,115.482 162.344,115.482 C159.012,115.482 156.632,120.004 154.796,122.758 L154.49,122.52 C154.898,121.466 156.224,118.168 156.224,117.148 C156.224,116.332 155.204,115.482 154.082,115.482 C150.852,115.482 148.234,120.276 146.84,122.622 L146.5,122.384 C146.772,121.67 148.608,117.828 148.608,116.808 C148.608,115.992 148.166,115.482 146.704,115.482 C143.984,115.482 141.536,118.44 141.026,119.256 C140.958,119.358 140.992,119.46 141.094,119.562 L141.468,119.902 C141.604,120.038 141.74,120.038 141.842,119.902 C142.114,119.494 143.712,117.794 144.154,117.794 C144.494,117.794 144.562,118.032 144.562,118.27 C144.596,118.78 143.712,121.024 142.998,123.132 L140.788,129.558 C140.686,129.83 140.822,130 141.094,130 L143.95,130 Z M170.062,130 C170.3,130 170.47,129.966 170.538,129.762 L171.66,126.77 C172.136,125.546 172.646,124.594 173.088,123.948 C175.026,120.99 177.372,118.27 177.95,118.27 C178.426,118.27 178.528,118.576 178.528,118.95 C178.528,119.494 177.814,121.568 176.964,123.914 L174.924,129.558 C174.822,129.864 174.958,130 175.264,130 L178.154,130 C178.426,130 178.562,129.966 178.63,129.796 L179.684,126.804 C180.092,125.614 180.602,124.764 180.84,124.39 C183.016,121.126 185.362,118.27 185.906,118.27 C186.314,118.27 186.518,118.542 186.518,118.916 C186.518,119.528 186.212,120.48 185.158,123.268 C183.9,126.566 183.288,128.47 183.322,129.116 C183.356,129.66 183.764,130.34 184.886,130.34 C188.626,130.34 190.972,126.396 191.074,126.158 C191.176,125.92 191.176,125.818 191.04,125.716 L190.564,125.376 C190.496,125.342 190.394,125.342 190.292,125.512 C190.122,125.784 188.694,127.926 187.878,127.926 C187.64,127.926 187.504,127.722 187.47,127.45 C187.47,126.974 188.082,125.478 188.762,123.54 C189.612,121.126 190.53,118.508 190.53,117.386 C190.53,116.74 189.884,115.482 188.456,115.482 C185.124,115.482 182.744,120.004 180.908,122.758 L180.602,122.52 C181.01,121.466 182.336,118.168 182.336,117.148 C182.336,116.332 181.316,115.482 180.194,115.482 C176.964,115.482 174.346,120.276 172.952,122.622 L172.612,122.384 C172.884,121.67 174.72,117.828 174.72,116.808 C174.72,115.992 174.278,115.482 172.816,115.482 C170.096,115.482 167.648,118.44 167.138,119.256 C167.07,119.358 167.104,119.46 167.206,119.562 L167.58,119.902 C167.716,120.038 167.852,120.038 167.954,119.902 C168.226,119.494 169.824,117.794 170.266,117.794 C170.606,117.794 170.674,118.032 170.674,118.27 C170.708,118.78 169.824,121.024 169.11,123.132 L166.9,129.558 C166.798,129.83 166.934,130 167.206,130 L170.062,130 Z M202.668,126.226 C202.566,126.158 202.464,126.226 202.396,126.328 C201.614,127.178 200.39,128.096 198.724,128.096 C197.568,128.096 196.888,127.076 196.888,125.886 C196.888,124.934 197.024,124.05 197.16,123.744 C198.452,123.642 200.288,123.302 202.158,122.248 C204.13,121.126 205.252,119.732 205.252,117.828 C205.252,116.536 204.47,115.482 202.6,115.482 C200.594,115.482 198.588,116.434 196.922,117.862 C193.896,120.412 192.808,124.016 192.808,126.532 C192.808,128.946 194.474,130.34 196.786,130.34 C200.118,130.34 202.668,128.164 203.28,126.94 C203.348,126.804 203.348,126.702 203.212,126.6 L202.668,126.226 Z M197.432,122.486 C197.942,120.276 199.404,117.182 200.696,117.182 C201.478,117.182 201.614,117.794 201.614,118.338 C201.614,119.46 201.07,120.616 200.526,121.126 C199.54,122.078 198.01,122.52 197.432,122.486 L197.432,122.486 Z M210.046,130 C210.25,130 210.42,129.932 210.488,129.762 L211.576,126.328 C211.984,125.07 212.358,124.084 212.698,123.268 C213.446,121.534 215.282,118.848 216.336,118.848 C216.778,118.848 217.016,119.086 217.288,119.256 C217.594,119.46 217.968,119.528 218.41,119.528 C219.022,119.528 219.94,118.508 219.94,117.318 C219.94,116.23 218.988,115.482 218.002,115.482 C215.52,115.482 213.48,119.664 212.63,121.534 L212.256,121.33 C213.072,119.12 213.718,117.454 213.718,116.842 C213.718,116.196 213.276,115.482 211.95,115.482 C208.992,115.482 207.054,117.998 206.51,118.984 C206.408,119.222 206.408,119.324 206.51,119.392 L206.85,119.63 C206.986,119.732 207.122,119.698 207.258,119.494 C207.734,118.746 208.958,117.624 209.502,117.624 C209.842,117.624 210.08,117.93 210.08,118.27 C210.08,118.916 209.026,122.282 208.448,124.186 L206.816,129.694 C206.748,129.864 206.884,130 207.122,130 L210.046,130 Z" id="Summer" sketch:type="MSShapeGroup"></path>
        </g>
    </g>
</svg>